{"glyphs":{"0":{"ha":944,"x_min":71,"x_max":872,"o":"m 471 -14 q 298 15 371 -14 q 176 93 225 43 q 103 210 128 143 q 74 353 78 276 q 72 438 72 390 q 72 535 71 486 q 74 624 72 585 q 103 766 78 700 q 178 881 129 832 q 301 958 228 931 q 471 986 374 986 q 642 958 569 986 q 764 881 715 931 q 839 766 813 832 q 869 624 865 700 q 872 535 871 585 q 872 438 872 486 q 869 353 871 390 q 840 210 865 276 q 766 93 814 143 q 645 15 718 43 q 471 -14 572 -14 m 471 188 q 576 234 543 188 q 610 360 608 281 q 613 444 613 400 q 613 533 614 489 q 610 615 613 578 q 576 739 608 692 q 471 788 543 786 q 367 739 400 786 q 332 615 335 692 q 331 533 332 578 q 331 444 331 489 q 332 360 332 400 q 368 234 335 281 q 471 188 401 188 z "},"1":{"ha":690,"x_min":21,"x_max":600,"o":"m 385 0 q 360 10 371 0 q 350 35 350 21 l 350 696 l 160 550 q 134 543 147 540 q 111 558 121 546 l 29 665 q 23 692 21 678 q 39 715 25 707 l 358 963 q 374 970 367 968 q 392 972 382 972 l 565 972 q 590 963 581 972 q 600 938 600 953 l 600 35 q 590 10 600 21 q 565 0 581 0 l 385 0 z "},"2":{"ha":903,"x_min":57,"x_max":842,"o":"m 93 0 q 67 10 78 0 q 57 35 57 21 l 57 133 q 63 163 57 143 q 92 201 68 183 l 236 343 q 419 487 347 428 q 525 592 490 546 q 560 678 560 638 q 535 756 560 725 q 451 788 511 788 q 385 770 411 788 q 344 725 358 753 q 324 668 329 697 q 305 643 318 650 q 276 636 292 636 l 103 636 q 82 644 90 636 q 74 665 74 653 q 102 791 75 732 q 178 894 129 850 q 297 965 228 939 q 451 990 365 990 q 652 952 569 990 q 778 847 735 914 q 821 689 821 779 q 791 562 821 621 q 706 449 761 503 q 576 339 651 396 l 449 210 l 806 210 q 831 200 821 210 q 842 175 842 190 l 842 35 q 831 10 842 21 q 806 0 821 0 l 93 0 z "},"3":{"ha":915,"x_min":44,"x_max":860,"o":"m 451 -14 q 267 12 344 -14 q 142 78 190 38 q 69 166 93 119 q 44 256 46 213 q 53 276 44 268 q 75 285 63 285 l 257 285 q 282 278 272 285 q 300 258 292 272 q 333 215 311 232 q 385 192 354 199 q 451 186 415 186 q 562 219 522 186 q 601 308 601 251 q 564 394 601 368 q 457 419 526 419 l 303 419 q 278 429 288 419 q 268 454 268 439 l 268 532 q 275 561 268 549 q 290 579 282 574 l 518 772 l 132 772 q 108 782 118 772 q 97 807 97 792 l 97 938 q 108 963 97 953 q 132 972 118 972 l 771 972 q 797 963 786 972 q 807 938 807 953 l 807 819 q 800 792 807 804 q 785 774 793 781 l 574 578 l 583 575 q 726 533 664 565 q 824 442 788 501 q 860 293 860 383 q 806 130 860 199 q 661 24 753 61 q 451 -14 569 -14 z "},"4":{"ha":949,"x_min":39,"x_max":906,"o":"m 540 0 q 516 10 526 0 q 506 35 506 21 l 506 192 l 74 192 q 49 201 60 192 q 39 226 39 211 l 39 358 q 44 381 39 371 q 54 401 49 392 l 458 949 q 510 972 476 972 l 713 972 q 737 963 726 972 q 747 938 747 953 l 747 399 l 869 399 q 896 388 886 399 q 906 364 906 378 l 906 226 q 895 201 906 211 q 871 192 885 192 l 747 192 l 747 35 q 737 10 747 21 q 713 0 726 0 l 540 0 m 278 389 l 511 389 l 511 717 l 278 389 z "},"5":{"ha":897,"x_min":46,"x_max":847,"o":"m 444 -15 q 226 26 314 -15 q 94 133 139 67 q 46 275 49 199 q 54 296 46 288 q 75 304 63 304 l 261 304 q 290 297 279 304 q 306 278 300 290 q 339 225 318 246 q 386 194 360 204 q 446 185 413 185 q 518 201 485 185 q 572 251 551 218 q 592 329 592 283 q 573 401 592 371 q 522 450 554 432 q 446 468 489 468 q 392 460 413 468 q 357 442 371 453 q 332 423 343 431 q 307 415 321 415 l 125 415 q 103 424 113 415 q 94 446 94 433 l 144 931 q 160 962 147 951 q 190 972 172 972 l 747 972 q 773 963 763 972 q 783 938 783 953 l 783 807 q 773 782 783 792 q 747 772 763 772 l 344 772 l 326 593 q 398 626 357 613 q 511 640 439 640 q 637 617 576 640 q 745 553 697 594 q 820 453 793 511 q 847 324 847 396 q 799 149 847 225 q 661 28 751 72 q 444 -15 571 -15 z "},"6":{"ha":904,"x_min":46,"x_max":864,"o":"m 460 -14 q 243 31 336 -14 q 98 153 150 75 q 46 333 46 232 q 59 419 46 376 q 92 499 72 461 q 131 567 111 538 q 163 615 150 597 l 407 944 q 425 962 414 951 q 457 972 436 972 l 642 972 q 663 963 654 972 q 671 942 671 954 q 669 931 671 936 q 665 924 668 926 l 478 668 q 498 672 486 671 q 519 672 510 672 q 643 644 582 669 q 754 576 704 619 q 834 473 804 533 q 864 339 864 413 q 814 162 864 242 q 673 34 764 82 q 460 -14 582 -14 m 457 186 q 532 203 497 186 q 588 254 567 221 q 610 335 610 288 q 589 416 610 383 q 533 465 568 449 q 457 482 499 482 q 380 465 415 482 q 324 416 344 449 q 303 335 303 383 q 324 254 303 288 q 381 203 346 221 q 457 186 415 186 z "},"7":{"ha":796,"x_min":39,"x_max":760,"o":"m 196 0 q 175 9 183 0 q 167 31 167 18 q 169 43 167 36 l 490 763 l 75 763 q 49 773 60 763 q 39 799 39 783 l 39 938 q 49 963 39 953 q 75 972 60 972 l 724 972 q 750 963 740 972 q 760 938 760 953 l 760 814 q 756 779 760 793 q 744 751 751 765 l 424 33 q 408 13 419 25 q 375 0 397 0 l 196 0 z "},"8":{"ha":940,"x_min":63,"x_max":878,"o":"m 469 -14 q 290 10 367 -14 q 163 76 213 35 q 88 174 113 118 q 63 292 63 229 q 101 426 63 368 q 197 517 139 485 q 123 597 149 549 q 97 708 97 644 q 138 849 97 786 q 260 949 178 911 q 469 986 342 986 q 678 949 596 986 q 799 850 760 913 q 839 710 839 788 q 814 598 839 647 q 742 517 789 549 q 841 426 804 486 q 878 290 878 367 q 833 138 878 207 q 697 27 788 68 q 469 -14 607 -14 m 469 164 q 549 179 514 164 q 606 223 585 194 q 626 292 626 251 q 606 360 626 332 q 549 403 585 388 q 469 418 514 418 q 389 403 425 418 q 332 360 353 388 q 311 292 311 332 q 332 223 311 251 q 389 179 353 194 q 469 164 425 164 m 469 586 q 540 601 508 586 q 590 640 572 615 q 608 697 608 664 q 591 756 608 731 q 542 794 574 781 q 469 808 510 808 q 398 794 429 808 q 349 756 367 781 q 331 697 331 731 q 349 639 331 664 q 398 600 367 614 q 469 586 429 586 z "},"9":{"ha":890,"x_min":40,"x_max":844,"o":"m 242 0 q 221 9 229 0 q 213 31 213 18 q 215 42 213 38 q 218 49 217 46 l 414 317 q 374 313 394 313 q 251 341 311 317 q 144 408 192 365 q 68 508 96 450 q 40 639 40 567 q 65 767 40 706 q 140 878 90 829 q 265 957 190 928 q 438 986 339 986 q 613 960 538 986 q 740 888 689 935 q 818 780 792 842 q 844 649 844 718 q 822 531 844 585 q 766 428 799 476 q 699 332 733 381 l 476 28 q 460 10 471 21 q 426 0 449 0 l 242 0 m 440 496 q 515 513 482 496 q 568 563 549 531 q 588 640 588 594 q 568 719 588 686 q 515 769 549 751 q 440 786 482 786 q 367 769 400 786 q 314 719 333 751 q 294 640 294 686 q 314 563 294 594 q 367 513 333 531 q 440 496 400 496 z "},"A":{"ha":994,"x_min":13,"x_max":982,"o":"m 42 0 q 22 9 31 0 q 13 29 13 18 q 14 42 13 36 l 340 933 q 358 960 344 949 q 394 972 371 972 l 600 972 q 637 960 624 972 q 654 933 650 949 l 979 42 q 982 29 982 36 q 973 9 982 18 q 951 0 964 0 l 781 0 q 749 10 760 0 q 736 29 739 21 l 682 171 l 311 171 l 258 29 q 246 10 256 21 q 213 0 236 0 l 42 0 m 368 371 l 626 371 l 497 738 l 368 371 z "},"Á":{"ha":994,"x_min":13,"x_max":982,"o":"m 42 0 q 22 9 31 0 q 13 29 13 18 q 14 42 13 36 l 340 933 q 358 960 344 949 q 394 972 371 972 l 600 972 q 637 960 624 972 q 654 933 650 949 l 979 42 q 982 29 982 36 q 973 9 982 18 q 951 0 964 0 l 781 0 q 749 10 760 0 q 736 29 739 21 l 682 171 l 311 171 l 258 29 q 246 10 256 21 q 213 0 236 0 l 42 0 m 368 371 l 626 371 l 497 738 l 368 371 m 411 1042 q 389 1064 389 1042 q 396 1082 389 1075 l 518 1231 q 542 1252 532 1247 q 569 1257 551 1257 l 764 1257 q 790 1229 790 1257 q 783 1213 790 1219 l 599 1061 q 576 1047 588 1051 q 546 1042 565 1042 l 411 1042 z "},"Ă":{"ha":994,"x_min":13,"x_max":982,"o":"m 42 0 q 22 9 31 0 q 13 29 13 18 q 14 42 13 36 l 340 933 q 358 960 344 949 q 394 972 371 972 l 600 972 q 637 960 624 972 q 654 933 650 949 l 979 42 q 982 29 982 36 q 973 9 982 18 q 951 0 964 0 l 781 0 q 749 10 760 0 q 736 29 739 21 l 682 171 l 311 171 l 258 29 q 246 10 256 21 q 213 0 236 0 l 42 0 m 368 371 l 626 371 l 497 738 l 368 371 m 497 1032 q 375 1059 422 1032 q 306 1131 328 1086 q 285 1228 285 1175 q 292 1247 285 1239 q 311 1254 299 1254 l 404 1254 q 424 1247 417 1254 q 431 1228 431 1239 q 444 1171 431 1196 q 497 1146 457 1146 q 551 1171 538 1146 q 565 1228 565 1196 q 572 1247 565 1239 q 592 1254 579 1254 l 685 1254 q 704 1247 697 1254 q 711 1228 711 1239 q 690 1131 711 1175 q 621 1059 668 1086 q 497 1032 574 1032 z "},"Â":{"ha":994,"x_min":13,"x_max":982,"o":"m 42 0 q 22 9 31 0 q 13 29 13 18 q 14 42 13 36 l 340 933 q 358 960 344 949 q 394 972 371 972 l 600 972 q 637 960 624 972 q 654 933 650 949 l 979 42 q 982 29 982 36 q 973 9 982 18 q 951 0 964 0 l 781 0 q 749 10 760 0 q 736 29 739 21 l 682 171 l 311 171 l 258 29 q 246 10 256 21 q 213 0 236 0 l 42 0 m 368 371 l 626 371 l 497 738 l 368 371 m 258 1042 q 236 1061 236 1042 q 247 1083 236 1072 l 390 1233 q 415 1253 404 1249 q 439 1257 425 1257 l 557 1257 q 581 1253 571 1257 q 606 1233 592 1249 l 747 1083 q 758 1061 758 1072 q 738 1042 758 1042 l 667 1042 q 643 1044 656 1042 q 619 1051 631 1046 l 497 1119 l 376 1051 q 353 1044 365 1046 q 328 1042 340 1042 l 258 1042 z "},"Ä":{"ha":994,"x_min":13,"x_max":982,"o":"m 42 0 q 22 9 31 0 q 13 29 13 18 q 14 42 13 36 l 340 933 q 358 960 344 949 q 394 972 371 972 l 600 972 q 637 960 624 972 q 654 933 650 949 l 979 42 q 982 29 982 36 q 973 9 982 18 q 951 0 964 0 l 781 0 q 749 10 760 0 q 736 29 739 21 l 682 171 l 311 171 l 258 29 q 246 10 256 21 q 213 0 236 0 l 42 0 m 368 371 l 626 371 l 497 738 l 368 371 m 597 1042 q 574 1050 583 1042 q 565 1074 565 1058 l 565 1200 q 574 1223 565 1214 q 597 1232 583 1232 l 725 1232 q 748 1223 739 1232 q 757 1200 757 1214 l 757 1074 q 748 1050 757 1058 q 725 1042 739 1042 l 597 1042 m 268 1042 q 246 1050 254 1042 q 238 1074 238 1058 l 238 1200 q 246 1223 238 1214 q 268 1232 254 1232 l 396 1232 q 419 1223 410 1232 q 428 1200 428 1214 l 428 1074 q 419 1050 428 1058 q 396 1042 410 1042 l 268 1042 z "},"À":{"ha":994,"x_min":13,"x_max":982,"o":"m 42 0 q 22 9 31 0 q 13 29 13 18 q 14 42 13 36 l 340 933 q 358 960 344 949 q 394 972 371 972 l 600 972 q 637 960 624 972 q 654 933 650 949 l 979 42 q 982 29 982 36 q 973 9 982 18 q 951 0 964 0 l 781 0 q 749 10 760 0 q 736 29 739 21 l 682 171 l 311 171 l 258 29 q 246 10 256 21 q 213 0 236 0 l 42 0 m 368 371 l 626 371 l 497 738 l 368 371 m 454 1042 q 424 1047 435 1042 q 401 1061 413 1051 l 217 1213 q 210 1229 210 1219 q 236 1257 210 1257 l 431 1257 q 458 1252 447 1257 q 482 1231 468 1247 l 604 1082 q 611 1064 611 1075 q 589 1042 611 1042 l 454 1042 z "},"Ā":{"ha":994,"x_min":13,"x_max":982,"o":"m 42 0 q 22 9 31 0 q 13 29 13 18 q 14 42 13 36 l 340 933 q 358 960 344 949 q 394 972 371 972 l 600 972 q 637 960 624 972 q 654 933 650 949 l 979 42 q 982 29 982 36 q 973 9 982 18 q 951 0 964 0 l 781 0 q 749 10 760 0 q 736 29 739 21 l 682 171 l 311 171 l 258 29 q 246 10 256 21 q 213 0 236 0 l 42 0 m 368 371 l 626 371 l 497 738 l 368 371 m 281 1042 q 258 1050 267 1042 q 250 1074 250 1058 l 250 1175 q 258 1198 250 1189 q 281 1207 267 1207 l 711 1207 q 735 1198 726 1207 q 743 1175 743 1189 l 743 1074 q 735 1050 743 1058 q 711 1042 726 1042 l 281 1042 z "},"Ą":{"ha":994,"x_min":13,"x_max":982,"o":"m 910 -306 q 788 -276 836 -306 q 715 -197 739 -247 q 692 -85 692 -147 q 708 -14 692 -43 q 751 29 725 15 q 734 40 740 32 q 726 54 728 47 l 682 171 l 311 171 l 258 29 q 246 10 256 21 q 213 0 236 0 l 42 0 q 22 9 31 0 q 13 29 13 18 q 14 42 13 36 l 340 933 q 358 960 344 949 q 394 972 371 972 l 600 972 q 637 960 624 972 q 654 933 650 949 l 979 42 q 982 29 982 36 q 973 9 982 18 q 951 0 964 0 l 910 0 q 851 -27 871 -1 q 832 -85 832 -53 q 852 -144 832 -119 q 915 -169 872 -169 l 932 -169 q 956 -180 946 -169 q 967 -204 967 -190 l 967 -271 q 956 -295 967 -285 q 932 -306 946 -306 l 910 -306 m 368 371 l 626 371 l 497 738 l 368 371 z "},"Å":{"ha":994,"x_min":13,"x_max":982,"o":"m 42 0 q 22 9 31 0 q 13 29 13 18 q 14 42 13 36 l 340 933 q 358 960 344 949 q 394 972 371 972 l 600 972 q 637 960 624 972 q 654 933 650 949 l 979 42 q 982 29 982 36 q 973 9 982 18 q 951 0 964 0 l 781 0 q 749 10 760 0 q 736 29 739 21 l 682 171 l 311 171 l 258 29 q 246 10 256 21 q 213 0 236 0 l 42 0 m 368 371 l 626 371 l 497 738 l 368 371 m 497 1028 q 407 1063 444 1028 q 369 1150 369 1097 q 407 1237 369 1203 q 497 1271 444 1271 q 588 1237 550 1271 q 626 1150 626 1203 q 588 1063 626 1097 q 497 1028 550 1028 m 497 1108 q 527 1120 515 1108 q 539 1150 539 1132 q 527 1180 539 1168 q 497 1192 515 1192 q 467 1180 479 1192 q 456 1150 456 1168 q 467 1120 456 1132 q 497 1108 479 1108 z "},"Ã":{"ha":994,"x_min":13,"x_max":982,"o":"m 42 0 q 22 9 31 0 q 13 29 13 18 q 14 42 13 36 l 340 933 q 358 960 344 949 q 394 972 371 972 l 600 972 q 637 960 624 972 q 654 933 650 949 l 979 42 q 982 29 982 36 q 973 9 982 18 q 951 0 964 0 l 781 0 q 749 10 760 0 q 736 29 739 21 l 682 171 l 311 171 l 258 29 q 246 10 256 21 q 213 0 236 0 l 42 0 m 368 371 l 626 371 l 497 738 l 368 371 m 581 1035 q 518 1047 543 1035 q 473 1072 493 1060 q 428 1083 453 1083 q 401 1074 410 1083 q 385 1053 392 1064 q 363 1042 378 1042 l 279 1042 q 263 1049 269 1042 q 256 1065 256 1057 q 263 1118 256 1088 q 290 1177 271 1149 q 338 1224 308 1206 q 411 1243 368 1243 q 475 1231 450 1243 q 521 1206 500 1218 q 565 1193 542 1193 q 592 1204 585 1193 q 607 1226 600 1215 q 629 1236 614 1236 l 713 1236 q 731 1228 725 1236 q 738 1211 738 1221 q 729 1159 738 1189 q 703 1101 721 1129 q 654 1053 685 1072 q 581 1035 624 1035 z "},"Æ":{"ha":1351,"x_min":6,"x_max":1290,"o":"m 36 0 q 15 9 24 0 q 6 29 6 18 q 10 43 6 36 q 42 138 25 89 q 81 242 60 186 q 131 365 103 297 q 197 515 160 432 q 283 702 233 599 q 393 933 332 806 q 412 960 399 949 q 446 972 425 972 l 1244 972 q 1269 963 1260 972 q 1279 938 1279 953 l 1279 807 q 1269 782 1279 792 q 1244 772 1260 772 l 828 772 l 828 585 l 1214 585 q 1239 574 1229 585 q 1249 549 1249 564 l 1249 428 q 1239 403 1249 414 q 1214 393 1229 393 l 828 393 l 828 200 l 1256 200 q 1281 190 1271 200 q 1290 165 1290 181 l 1290 35 q 1281 10 1290 21 q 1256 0 1271 0 l 622 0 q 597 10 607 0 q 588 35 588 21 l 588 171 l 321 171 q 289 108 301 132 q 270 69 276 83 q 260 45 264 54 q 254 29 256 36 q 239 10 249 19 q 208 0 229 0 l 36 0 m 383 371 l 588 371 l 588 768 l 558 768 l 383 371 z "},"Ǽ":{"ha":1351,"x_min":6,"x_max":1290,"o":"m 36 0 q 15 9 24 0 q 6 29 6 18 q 10 43 6 36 q 42 138 25 89 q 81 242 60 186 q 131 365 103 297 q 197 515 160 432 q 283 702 233 599 q 393 933 332 806 q 412 960 399 949 q 446 972 425 972 l 1244 972 q 1269 963 1260 972 q 1279 938 1279 953 l 1279 807 q 1269 782 1279 792 q 1244 772 1260 772 l 828 772 l 828 585 l 1214 585 q 1239 574 1229 585 q 1249 549 1249 564 l 1249 428 q 1239 403 1249 414 q 1214 393 1229 393 l 828 393 l 828 200 l 1256 200 q 1281 190 1271 200 q 1290 165 1290 181 l 1290 35 q 1281 10 1290 21 q 1256 0 1271 0 l 622 0 q 597 10 607 0 q 588 35 588 21 l 588 171 l 321 171 q 289 108 301 132 q 270 69 276 83 q 260 45 264 54 q 254 29 256 36 q 239 10 249 19 q 208 0 229 0 l 36 0 m 383 371 l 588 371 l 588 768 l 558 768 l 383 371 m 590 1042 q 568 1064 568 1042 q 575 1082 568 1075 l 697 1231 q 721 1252 711 1247 q 749 1257 731 1257 l 943 1257 q 969 1229 969 1257 q 963 1213 969 1219 l 778 1061 q 756 1047 767 1051 q 725 1042 744 1042 l 590 1042 z "},"B":{"ha":978,"x_min":97,"x_max":921,"o":"m 132 0 q 107 10 117 0 q 97 35 97 21 l 97 938 q 107 963 97 953 q 132 972 117 972 l 556 972 q 751 939 675 972 q 865 844 828 906 q 901 697 901 782 q 883 609 901 647 q 837 546 864 571 q 786 510 810 521 q 880 428 839 485 q 921 294 921 371 q 880 137 921 203 q 760 35 839 71 q 568 0 682 0 l 132 0 m 347 181 l 540 181 q 631 215 600 181 q 661 294 661 250 q 630 376 661 343 q 540 410 599 410 l 347 410 l 347 181 m 347 586 l 528 586 q 613 616 585 586 q 642 690 642 646 q 613 763 642 735 q 528 792 585 792 l 347 792 l 347 586 z "},"C":{"ha":975,"x_min":65,"x_max":928,"o":"m 496 -14 q 271 29 365 -14 q 124 156 176 72 q 67 363 72 239 q 65 485 65 419 q 67 610 65 550 q 125 815 72 731 q 272 943 178 900 q 496 986 367 986 q 665 963 588 986 q 801 897 743 940 q 892 791 860 853 q 926 651 925 729 q 919 631 928 639 q 897 622 910 622 l 710 622 q 682 630 692 622 q 665 658 672 638 q 602 759 646 732 q 494 786 558 786 q 374 744 418 786 q 325 603 329 701 q 325 369 321 489 q 374 228 329 271 q 494 186 418 186 q 603 214 558 186 q 665 314 647 242 q 681 342 671 335 q 710 350 692 350 l 897 350 q 919 342 910 350 q 926 321 928 333 q 892 181 925 243 q 801 76 860 119 q 665 9 743 32 q 496 -14 588 -14 z "},"Ć":{"ha":975,"x_min":65,"x_max":928,"o":"m 496 -14 q 271 29 365 -14 q 124 156 176 72 q 67 363 72 239 q 65 485 65 419 q 67 610 65 550 q 125 815 72 731 q 272 943 178 900 q 496 986 367 986 q 665 963 588 986 q 801 897 743 940 q 892 791 860 853 q 926 651 925 729 q 919 631 928 639 q 897 622 910 622 l 710 622 q 682 630 692 622 q 665 658 672 638 q 602 759 646 732 q 494 786 558 786 q 374 744 418 786 q 325 603 329 701 q 325 369 321 489 q 374 228 329 271 q 494 186 418 186 q 603 214 558 186 q 665 314 647 242 q 681 342 671 335 q 710 350 692 350 l 897 350 q 919 342 910 350 q 926 321 928 333 q 892 181 925 243 q 801 76 860 119 q 665 9 743 32 q 496 -14 588 -14 m 403 1042 q 381 1064 381 1042 q 388 1082 381 1075 l 510 1231 q 533 1252 524 1247 q 561 1257 543 1257 l 756 1257 q 782 1229 782 1257 q 775 1213 782 1219 l 590 1061 q 568 1047 579 1051 q 538 1042 557 1042 l 403 1042 z "},"Č":{"ha":975,"x_min":65,"x_max":928,"o":"m 496 -14 q 271 29 365 -14 q 124 156 176 72 q 67 363 72 239 q 65 485 65 419 q 67 610 65 550 q 125 815 72 731 q 272 943 178 900 q 496 986 367 986 q 665 963 588 986 q 801 897 743 940 q 892 791 860 853 q 926 651 925 729 q 919 631 928 639 q 897 622 910 622 l 710 622 q 682 630 692 622 q 665 658 672 638 q 602 759 646 732 q 494 786 558 786 q 374 744 418 786 q 325 603 329 701 q 325 369 321 489 q 374 228 329 271 q 494 186 418 186 q 603 214 558 186 q 665 314 647 242 q 681 342 671 335 q 710 350 692 350 l 897 350 q 919 342 910 350 q 926 321 928 333 q 892 181 925 243 q 801 76 860 119 q 665 9 743 32 q 496 -14 588 -14 m 431 1042 q 406 1047 417 1042 q 382 1065 396 1051 l 239 1215 q 228 1238 228 1226 q 250 1257 228 1257 l 319 1257 q 344 1255 332 1257 q 368 1247 357 1253 l 489 1179 l 611 1247 q 635 1255 622 1253 q 658 1257 647 1257 l 729 1257 q 750 1238 750 1257 q 739 1215 750 1226 l 597 1065 q 573 1047 583 1051 q 549 1042 563 1042 l 431 1042 z "},"Ç":{"ha":975,"x_min":65,"x_max":928,"o":"m 489 -306 q 421 -293 451 -306 q 378 -264 390 -281 q 379 -235 365 -247 l 404 -212 q 426 -205 417 -201 q 449 -216 435 -208 q 489 -224 463 -224 q 522 -212 510 -224 q 535 -182 535 -200 q 523 -153 535 -165 q 489 -142 511 -142 q 458 -147 472 -142 q 433 -152 444 -151 q 411 -144 421 -153 l 383 -117 q 376 -99 375 -108 q 385 -72 378 -89 l 413 -8 q 231 50 307 4 q 114 174 156 96 q 67 363 72 253 q 65 485 65 419 q 67 610 65 550 q 125 815 72 731 q 272 943 178 900 q 496 986 367 986 q 665 963 588 986 q 801 897 743 940 q 892 791 860 853 q 926 651 925 729 q 919 631 928 639 q 897 622 910 622 l 710 622 q 682 630 692 622 q 665 658 672 638 q 602 759 646 732 q 494 786 558 786 q 374 744 418 786 q 325 603 329 701 q 325 369 321 489 q 374 228 329 271 q 494 186 418 186 q 603 214 558 186 q 665 314 647 242 q 681 342 671 335 q 710 350 692 350 l 897 350 q 919 342 910 350 q 926 321 928 333 q 892 181 925 243 q 801 76 860 119 q 665 9 743 32 q 496 -14 588 -14 l 468 -69 q 491 -63 476 -65 q 514 -61 506 -61 q 594 -94 564 -61 q 624 -182 624 -128 q 588 -270 624 -235 q 489 -306 553 -306 z "},"Ĉ":{"ha":975,"x_min":65,"x_max":928,"o":"m 496 -14 q 271 29 365 -14 q 124 156 176 72 q 67 363 72 239 q 65 485 65 419 q 67 610 65 550 q 125 815 72 731 q 272 943 178 900 q 496 986 367 986 q 665 963 588 986 q 801 897 743 940 q 892 791 860 853 q 926 651 925 729 q 919 631 928 639 q 897 622 910 622 l 710 622 q 682 630 692 622 q 665 658 672 638 q 602 759 646 732 q 494 786 558 786 q 374 744 418 786 q 325 603 329 701 q 325 369 321 489 q 374 228 329 271 q 494 186 418 186 q 603 214 558 186 q 665 314 647 242 q 681 342 671 335 q 710 350 692 350 l 897 350 q 919 342 910 350 q 926 321 928 333 q 892 181 925 243 q 801 76 860 119 q 665 9 743 32 q 496 -14 588 -14 m 250 1042 q 228 1061 228 1042 q 239 1083 228 1072 l 382 1233 q 406 1253 396 1249 q 431 1257 417 1257 l 549 1257 q 573 1253 563 1257 q 597 1233 583 1249 l 739 1083 q 750 1061 750 1072 q 729 1042 750 1042 l 658 1042 q 635 1044 647 1042 q 611 1051 622 1046 l 489 1119 l 368 1051 q 344 1044 357 1046 q 319 1042 332 1042 l 250 1042 z "},"Ċ":{"ha":975,"x_min":65,"x_max":928,"o":"m 496 -14 q 271 29 365 -14 q 124 156 176 72 q 67 363 72 239 q 65 485 65 419 q 67 610 65 550 q 125 815 72 731 q 272 943 178 900 q 496 986 367 986 q 665 963 588 986 q 801 897 743 940 q 892 791 860 853 q 926 651 925 729 q 919 631 928 639 q 897 622 910 622 l 710 622 q 682 630 692 622 q 665 658 672 638 q 602 759 646 732 q 494 786 558 786 q 374 744 418 786 q 325 603 329 701 q 325 369 321 489 q 374 228 329 271 q 494 186 418 186 q 603 214 558 186 q 665 314 647 242 q 681 342 671 335 q 710 350 692 350 l 897 350 q 919 342 910 350 q 926 321 928 333 q 892 181 925 243 q 801 76 860 119 q 665 9 743 32 q 496 -14 588 -14 m 417 1042 q 394 1050 403 1042 q 386 1074 386 1058 l 386 1217 q 394 1240 386 1231 q 417 1249 403 1249 l 560 1249 q 583 1240 574 1249 q 592 1217 592 1231 l 592 1074 q 583 1050 592 1058 q 560 1042 574 1042 l 417 1042 z "},"D":{"ha":994,"x_min":97,"x_max":929,"o":"m 132 0 q 107 10 117 0 q 97 35 97 21 l 97 938 q 107 963 97 953 q 132 972 117 972 l 493 972 q 725 928 629 972 q 872 801 821 885 q 928 593 924 717 q 929 486 929 532 q 928 381 929 440 q 873 167 922 251 q 730 41 824 82 q 500 0 636 0 l 132 0 m 347 200 l 493 200 q 592 219 553 200 q 652 278 632 238 q 674 383 672 318 q 677 456 676 424 q 677 519 678 488 q 674 590 676 551 q 624 728 671 685 q 486 772 578 772 l 347 772 l 347 200 z "},"Ð":{"ha":1021,"x_min":19,"x_max":953,"o":"m 156 0 q 131 10 140 0 q 121 35 121 21 l 121 406 l 56 406 q 30 416 40 406 q 19 440 19 426 l 19 536 q 30 561 19 551 q 56 571 40 571 l 121 571 l 121 938 q 131 963 121 953 q 156 972 140 972 l 517 972 q 750 928 653 972 q 899 801 847 885 q 953 593 951 717 q 953 488 953 538 q 953 381 953 438 q 901 167 951 251 q 753 41 850 82 q 519 0 657 0 l 156 0 m 371 200 l 517 200 q 616 219 578 200 q 674 278 654 238 q 693 383 693 318 q 694 453 694 421 q 694 519 694 486 q 693 590 694 553 q 649 728 693 685 q 514 772 606 772 l 371 772 l 371 571 l 497 571 q 522 561 513 571 q 532 536 532 551 l 532 440 q 522 416 532 426 q 497 406 513 406 l 371 406 l 371 200 z "},"Ď":{"ha":994,"x_min":97,"x_max":929,"o":"m 132 0 q 107 10 117 0 q 97 35 97 21 l 97 938 q 107 963 97 953 q 132 972 117 972 l 493 972 q 725 928 629 972 q 872 801 821 885 q 928 593 924 717 q 929 486 929 532 q 928 381 929 440 q 873 167 922 251 q 730 41 824 82 q 500 0 636 0 l 132 0 m 347 200 l 493 200 q 592 219 553 200 q 652 278 632 238 q 674 383 672 318 q 677 456 676 424 q 677 519 678 488 q 674 590 676 551 q 624 728 671 685 q 486 772 578 772 l 347 772 l 347 200 m 435 1042 q 410 1047 421 1042 q 386 1065 400 1051 l 243 1215 q 232 1238 232 1226 q 254 1257 232 1257 l 324 1257 q 349 1255 336 1257 q 372 1247 361 1253 l 493 1179 l 615 1247 q 639 1255 626 1253 q 663 1257 651 1257 l 733 1257 q 754 1238 754 1257 q 743 1215 754 1226 l 601 1065 q 577 1047 588 1051 q 553 1042 567 1042 l 435 1042 z "},"Đ":{"ha":1019,"x_min":19,"x_max":954,"o":"m 156 0 q 131 10 140 0 q 121 35 121 21 l 121 407 l 56 407 q 30 417 40 407 q 19 442 19 426 l 19 538 q 30 563 19 553 q 56 572 40 572 l 121 572 l 121 938 q 131 963 121 953 q 156 972 140 972 l 517 972 q 749 928 653 972 q 897 801 844 885 q 951 593 949 717 q 954 486 954 532 q 951 381 954 440 q 897 167 947 251 q 751 41 846 82 q 519 0 657 0 l 156 0 m 371 200 l 517 200 q 617 219 578 200 q 676 278 656 238 q 699 383 697 318 q 701 456 700 424 q 701 519 701 488 q 699 590 700 551 q 651 728 696 685 q 514 772 606 772 l 371 772 l 371 572 l 497 572 q 522 563 513 572 q 532 538 532 553 l 532 442 q 522 417 532 426 q 497 407 513 407 l 371 407 l 371 200 z "},"E":{"ha":888,"x_min":97,"x_max":826,"o":"m 132 0 q 107 10 117 0 q 97 35 97 21 l 97 938 q 107 963 97 953 q 132 972 117 972 l 781 972 q 806 963 796 972 q 815 938 815 953 l 815 807 q 806 782 815 792 q 781 772 796 772 l 338 772 l 338 585 l 750 585 q 775 574 765 585 q 785 549 785 564 l 785 428 q 775 403 785 414 q 750 393 765 393 l 338 393 l 338 200 l 792 200 q 817 190 807 200 q 826 165 826 181 l 826 35 q 817 10 826 21 q 792 0 807 0 l 132 0 z "},"É":{"ha":888,"x_min":97,"x_max":826,"o":"m 132 0 q 107 10 117 0 q 97 35 97 21 l 97 938 q 107 963 97 953 q 132 972 117 972 l 781 972 q 806 963 796 972 q 815 938 815 953 l 815 807 q 806 782 815 792 q 781 772 796 772 l 338 772 l 338 585 l 750 585 q 775 574 765 585 q 785 549 785 564 l 785 428 q 775 403 785 414 q 750 393 765 393 l 338 393 l 338 200 l 792 200 q 817 190 807 200 q 826 165 826 181 l 826 35 q 817 10 826 21 q 792 0 807 0 l 132 0 m 358 1042 q 336 1064 336 1042 q 343 1082 336 1075 l 465 1231 q 489 1252 479 1247 q 517 1257 499 1257 l 711 1257 q 738 1229 738 1257 q 731 1213 738 1219 l 546 1061 q 524 1047 535 1051 q 493 1042 513 1042 l 358 1042 z "},"Ĕ":{"ha":888,"x_min":97,"x_max":826,"o":"m 132 0 q 107 10 117 0 q 97 35 97 21 l 97 938 q 107 963 97 953 q 132 972 117 972 l 781 972 q 806 963 796 972 q 815 938 815 953 l 815 807 q 806 782 815 792 q 781 772 796 772 l 338 772 l 338 585 l 750 585 q 775 574 765 585 q 785 549 785 564 l 785 428 q 775 403 785 414 q 750 393 765 393 l 338 393 l 338 200 l 792 200 q 817 190 807 200 q 826 165 826 181 l 826 35 q 817 10 826 21 q 792 0 807 0 l 132 0 m 444 1032 q 322 1059 369 1032 q 253 1131 275 1086 q 232 1228 232 1175 q 239 1247 232 1239 q 258 1254 246 1254 l 351 1254 q 371 1247 364 1254 q 378 1228 378 1239 q 391 1171 378 1196 q 444 1146 404 1146 q 499 1171 485 1146 q 513 1228 513 1196 q 519 1247 513 1239 q 539 1254 526 1254 l 632 1254 q 651 1247 644 1254 q 658 1228 658 1239 q 637 1131 658 1175 q 568 1059 615 1086 q 444 1032 521 1032 z "},"Ě":{"ha":888,"x_min":97,"x_max":826,"o":"m 132 0 q 107 10 117 0 q 97 35 97 21 l 97 938 q 107 963 97 953 q 132 972 117 972 l 781 972 q 806 963 796 972 q 815 938 815 953 l 815 807 q 806 782 815 792 q 781 772 796 772 l 338 772 l 338 585 l 750 585 q 775 574 765 585 q 785 549 785 564 l 785 428 q 775 403 785 414 q 750 393 765 393 l 338 393 l 338 200 l 792 200 q 817 190 807 200 q 826 165 826 181 l 826 35 q 817 10 826 21 q 792 0 807 0 l 132 0 m 386 1042 q 362 1047 372 1042 q 338 1065 351 1051 l 194 1215 q 183 1238 183 1226 q 206 1257 183 1257 l 275 1257 q 300 1255 288 1257 q 324 1247 313 1253 l 444 1179 l 567 1247 q 590 1255 578 1253 q 614 1257 603 1257 l 685 1257 q 706 1238 706 1257 q 694 1215 706 1226 l 553 1065 q 528 1047 539 1051 q 504 1042 518 1042 l 386 1042 z "},"Ê":{"ha":888,"x_min":97,"x_max":826,"o":"m 132 0 q 107 10 117 0 q 97 35 97 21 l 97 938 q 107 963 97 953 q 132 972 117 972 l 781 972 q 806 963 796 972 q 815 938 815 953 l 815 807 q 806 782 815 792 q 781 772 796 772 l 338 772 l 338 585 l 750 585 q 775 574 765 585 q 785 549 785 564 l 785 428 q 775 403 785 414 q 750 393 765 393 l 338 393 l 338 200 l 792 200 q 817 190 807 200 q 826 165 826 181 l 826 35 q 817 10 826 21 q 792 0 807 0 l 132 0 m 206 1042 q 183 1061 183 1042 q 194 1083 183 1072 l 338 1233 q 362 1253 351 1249 q 386 1257 372 1257 l 504 1257 q 528 1253 518 1257 q 553 1233 539 1249 l 694 1083 q 706 1061 706 1072 q 685 1042 706 1042 l 614 1042 q 590 1044 603 1042 q 567 1051 578 1046 l 444 1119 l 324 1051 q 300 1044 313 1046 q 275 1042 288 1042 l 206 1042 z "},"Ë":{"ha":888,"x_min":97,"x_max":826,"o":"m 132 0 q 107 10 117 0 q 97 35 97 21 l 97 938 q 107 963 97 953 q 132 972 117 972 l 781 972 q 806 963 796 972 q 815 938 815 953 l 815 807 q 806 782 815 792 q 781 772 796 772 l 338 772 l 338 585 l 750 585 q 775 574 765 585 q 785 549 785 564 l 785 428 q 775 403 785 414 q 750 393 765 393 l 338 393 l 338 200 l 792 200 q 817 190 807 200 q 826 165 826 181 l 826 35 q 817 10 826 21 q 792 0 807 0 l 132 0 m 544 1042 q 522 1050 531 1042 q 513 1074 513 1058 l 513 1200 q 522 1223 513 1214 q 544 1232 531 1232 l 672 1232 q 695 1223 686 1232 q 704 1200 704 1214 l 704 1074 q 695 1050 704 1058 q 672 1042 686 1042 l 544 1042 m 215 1042 q 193 1050 201 1042 q 185 1074 185 1058 l 185 1200 q 193 1223 185 1214 q 215 1232 201 1232 l 343 1232 q 366 1223 357 1232 q 375 1200 375 1214 l 375 1074 q 366 1050 375 1058 q 343 1042 357 1042 l 215 1042 z "},"Ė":{"ha":888,"x_min":97,"x_max":826,"o":"m 132 0 q 107 10 117 0 q 97 35 97 21 l 97 938 q 107 963 97 953 q 132 972 117 972 l 781 972 q 806 963 796 972 q 815 938 815 953 l 815 807 q 806 782 815 792 q 781 772 796 772 l 338 772 l 338 585 l 750 585 q 775 574 765 585 q 785 549 785 564 l 785 428 q 775 403 785 414 q 750 393 765 393 l 338 393 l 338 200 l 792 200 q 817 190 807 200 q 826 165 826 181 l 826 35 q 817 10 826 21 q 792 0 807 0 l 132 0 m 372 1042 q 350 1050 358 1042 q 342 1074 342 1058 l 342 1217 q 350 1240 342 1231 q 372 1249 358 1249 l 515 1249 q 538 1240 529 1249 q 547 1217 547 1231 l 547 1074 q 538 1050 547 1058 q 515 1042 529 1042 l 372 1042 z "},"È":{"ha":888,"x_min":97,"x_max":826,"o":"m 132 0 q 107 10 117 0 q 97 35 97 21 l 97 938 q 107 963 97 953 q 132 972 117 972 l 781 972 q 806 963 796 972 q 815 938 815 953 l 815 807 q 806 782 815 792 q 781 772 796 772 l 338 772 l 338 585 l 750 585 q 775 574 765 585 q 785 549 785 564 l 785 428 q 775 403 785 414 q 750 393 765 393 l 338 393 l 338 200 l 792 200 q 817 190 807 200 q 826 165 826 181 l 826 35 q 817 10 826 21 q 792 0 807 0 l 132 0 m 400 1042 q 369 1047 381 1042 q 347 1061 358 1051 l 163 1213 q 156 1229 156 1219 q 182 1257 156 1257 l 376 1257 q 403 1252 393 1257 q 428 1231 414 1247 l 550 1082 q 557 1064 557 1075 q 535 1042 557 1042 l 400 1042 z "},"Ē":{"ha":888,"x_min":97,"x_max":826,"o":"m 132 0 q 107 10 117 0 q 97 35 97 21 l 97 938 q 107 963 97 953 q 132 972 117 972 l 781 972 q 806 963 796 972 q 815 938 815 953 l 815 807 q 806 782 815 792 q 781 772 796 772 l 338 772 l 338 585 l 750 585 q 775 574 765 585 q 785 549 785 564 l 785 428 q 775 403 785 414 q 750 393 765 393 l 338 393 l 338 200 l 792 200 q 817 190 807 200 q 826 165 826 181 l 826 35 q 817 10 826 21 q 792 0 807 0 l 132 0 m 228 1042 q 206 1050 214 1042 q 197 1074 197 1058 l 197 1175 q 206 1198 197 1189 q 228 1207 214 1207 l 658 1207 q 682 1198 674 1207 q 690 1175 690 1189 l 690 1074 q 682 1050 690 1058 q 658 1042 674 1042 l 228 1042 z "},"Ę":{"ha":888,"x_min":97,"x_max":826,"o":"m 769 -306 q 649 -276 697 -306 q 576 -197 600 -247 q 551 -85 551 -147 q 556 -40 551 -61 q 567 0 560 -18 l 132 0 q 107 10 117 0 q 97 35 97 21 l 97 938 q 107 963 97 953 q 132 972 117 972 l 781 972 q 806 963 796 972 q 815 938 815 953 l 815 807 q 806 782 815 792 q 781 772 796 772 l 338 772 l 338 585 l 750 585 q 775 574 765 585 q 785 549 785 564 l 785 428 q 775 403 785 414 q 750 393 765 393 l 338 393 l 338 200 l 792 200 q 817 190 807 200 q 826 165 826 181 l 826 35 q 817 10 826 21 q 792 0 807 0 l 772 0 q 711 -26 731 -1 q 692 -85 692 -51 q 713 -144 692 -119 q 775 -169 733 -169 l 792 -169 q 817 -180 807 -169 q 826 -204 826 -190 l 826 -271 q 817 -295 826 -285 q 792 -306 807 -306 l 769 -306 z "},"F":{"ha":858,"x_min":97,"x_max":806,"o":"m 132 0 q 107 10 117 0 q 97 35 97 21 l 97 938 q 107 963 97 953 q 132 972 117 972 l 771 972 q 796 963 786 972 q 806 938 806 953 l 806 797 q 796 772 806 782 q 771 763 786 763 l 342 763 l 342 558 l 743 558 q 768 548 758 558 q 778 522 778 538 l 778 383 q 768 359 778 369 q 743 349 758 349 l 342 349 l 342 35 q 332 10 342 21 q 307 0 322 0 l 132 0 z "},"G":{"ha":1000,"x_min":65,"x_max":938,"o":"m 499 -14 q 272 30 367 -14 q 124 158 176 74 q 67 363 72 242 q 65 490 65 422 q 67 618 65 557 q 125 818 72 736 q 274 943 178 900 q 499 986 369 986 q 683 960 603 986 q 819 892 764 935 q 903 797 874 849 q 933 696 932 746 q 924 675 933 683 q 903 667 915 667 l 700 667 q 677 672 685 667 q 664 686 669 676 q 635 730 654 707 q 584 769 617 753 q 499 786 551 786 q 375 744 421 786 q 325 611 329 703 q 325 369 321 492 q 376 229 329 272 q 503 186 424 186 q 595 204 554 186 q 660 260 636 222 q 683 358 683 299 l 683 385 l 553 385 q 528 395 538 385 q 518 421 518 406 l 518 524 q 528 549 518 539 q 553 560 538 560 l 903 560 q 928 549 918 560 q 938 524 938 539 l 938 365 q 883 161 938 246 q 730 31 829 76 q 499 -14 631 -14 z "},"Ğ":{"ha":1000,"x_min":65,"x_max":938,"o":"m 499 -14 q 272 30 367 -14 q 124 158 176 74 q 67 363 72 242 q 65 490 65 422 q 67 618 65 557 q 125 818 72 736 q 274 943 178 900 q 499 986 369 986 q 683 960 603 986 q 819 892 764 935 q 903 797 874 849 q 933 696 932 746 q 924 675 933 683 q 903 667 915 667 l 700 667 q 677 672 685 667 q 664 686 669 676 q 635 730 654 707 q 584 769 617 753 q 499 786 551 786 q 375 744 421 786 q 325 611 329 703 q 325 369 321 492 q 376 229 329 272 q 503 186 424 186 q 595 204 554 186 q 660 260 636 222 q 683 358 683 299 l 683 385 l 553 385 q 528 395 538 385 q 518 421 518 406 l 518 524 q 528 549 518 539 q 553 560 538 560 l 903 560 q 928 549 918 560 q 938 524 938 539 l 938 365 q 883 161 938 246 q 730 31 829 76 q 499 -14 631 -14 m 504 1032 q 382 1059 429 1032 q 313 1131 335 1086 q 292 1228 292 1175 q 299 1247 292 1239 q 318 1254 306 1254 l 411 1254 q 431 1247 424 1254 q 438 1228 438 1239 q 451 1171 438 1196 q 504 1146 464 1146 q 558 1171 544 1146 q 572 1228 572 1196 q 579 1247 572 1239 q 599 1254 586 1254 l 692 1254 q 711 1247 704 1254 q 718 1228 718 1239 q 697 1131 718 1175 q 628 1059 675 1086 q 504 1032 581 1032 z "},"Ĝ":{"ha":1000,"x_min":65,"x_max":938,"o":"m 499 -14 q 272 30 367 -14 q 124 158 176 74 q 67 363 72 242 q 65 490 65 422 q 67 618 65 557 q 125 818 72 736 q 274 943 178 900 q 499 986 369 986 q 683 960 603 986 q 819 892 764 935 q 903 797 874 849 q 933 696 932 746 q 924 675 933 683 q 903 667 915 667 l 700 667 q 677 672 685 667 q 664 686 669 676 q 635 730 654 707 q 584 769 617 753 q 499 786 551 786 q 375 744 421 786 q 325 611 329 703 q 325 369 321 492 q 376 229 329 272 q 503 186 424 186 q 595 204 554 186 q 660 260 636 222 q 683 358 683 299 l 683 385 l 553 385 q 528 395 538 385 q 518 421 518 406 l 518 524 q 528 549 518 539 q 553 560 538 560 l 903 560 q 928 549 918 560 q 938 524 938 539 l 938 365 q 883 161 938 246 q 730 31 829 76 q 499 -14 631 -14 m 265 1042 q 243 1061 243 1042 q 254 1083 243 1072 l 397 1233 q 422 1253 411 1249 q 446 1257 432 1257 l 564 1257 q 588 1253 578 1257 q 613 1233 599 1249 l 754 1083 q 765 1061 765 1072 q 744 1042 765 1042 l 674 1042 q 650 1044 663 1042 q 626 1051 638 1046 l 504 1119 l 383 1051 q 360 1044 372 1046 q 335 1042 347 1042 l 265 1042 z "},"Ģ":{"ha":1000,"x_min":65,"x_max":938,"o":"m 499 -14 q 272 30 367 -14 q 124 158 176 74 q 67 363 72 242 q 65 490 65 422 q 67 618 65 557 q 125 818 72 736 q 274 943 178 900 q 499 986 369 986 q 683 960 603 986 q 819 892 764 935 q 903 797 874 849 q 933 696 932 746 q 924 675 933 683 q 903 667 915 667 l 700 667 q 677 672 685 667 q 664 686 669 676 q 635 730 654 707 q 584 769 617 753 q 499 786 551 786 q 375 744 421 786 q 325 611 329 703 q 325 369 321 492 q 376 229 329 272 q 503 186 424 186 q 595 204 554 186 q 660 260 636 222 q 683 358 683 299 l 683 385 l 553 385 q 528 395 538 385 q 518 421 518 406 l 518 524 q 528 549 518 539 q 553 560 538 560 l 903 560 q 928 549 918 560 q 938 524 938 539 l 938 365 q 883 161 938 246 q 730 31 829 76 q 499 -14 631 -14 m 385 -326 q 365 -317 372 -326 q 358 -296 358 -308 l 385 -117 q 400 -84 388 -99 q 436 -69 413 -69 l 590 -69 q 609 -78 601 -69 q 617 -97 617 -86 q 614 -112 617 -106 l 546 -287 q 529 -314 540 -301 q 494 -326 518 -326 l 385 -326 z "},"Ġ":{"ha":1000,"x_min":65,"x_max":938,"o":"m 499 -14 q 272 30 367 -14 q 124 158 176 74 q 67 363 72 242 q 65 490 65 422 q 67 618 65 557 q 125 818 72 736 q 274 943 178 900 q 499 986 369 986 q 683 960 603 986 q 819 892 764 935 q 903 797 874 849 q 933 696 932 746 q 924 675 933 683 q 903 667 915 667 l 700 667 q 677 672 685 667 q 664 686 669 676 q 635 730 654 707 q 584 769 617 753 q 499 786 551 786 q 375 744 421 786 q 325 611 329 703 q 325 369 321 492 q 376 229 329 272 q 503 186 424 186 q 595 204 554 186 q 660 260 636 222 q 683 358 683 299 l 683 385 l 553 385 q 528 395 538 385 q 518 421 518 406 l 518 524 q 528 549 518 539 q 553 560 538 560 l 903 560 q 928 549 918 560 q 938 524 938 539 l 938 365 q 883 161 938 246 q 730 31 829 76 q 499 -14 631 -14 m 432 1042 q 410 1050 418 1042 q 401 1074 401 1058 l 401 1217 q 410 1240 401 1231 q 432 1249 418 1249 l 575 1249 q 598 1240 589 1249 q 607 1217 607 1231 l 607 1074 q 598 1050 607 1058 q 575 1042 589 1042 l 432 1042 z "},"H":{"ha":1035,"x_min":97,"x_max":938,"o":"m 132 0 q 107 10 117 0 q 97 35 97 19 l 97 938 q 107 963 97 953 q 132 972 117 972 l 311 972 q 337 963 326 972 q 347 938 347 953 l 347 603 l 689 603 l 689 938 q 699 963 689 953 q 724 972 708 972 l 903 972 q 928 963 918 972 q 938 938 938 953 l 938 35 q 928 10 938 21 q 903 0 918 0 l 724 0 q 699 10 708 0 q 689 35 689 21 l 689 381 l 347 381 l 347 35 q 337 10 347 21 q 311 0 326 0 l 132 0 z "},"Ħ":{"ha":1035,"x_min":64,"x_max":975,"o":"m 99 719 q 74 730 85 719 q 64 754 64 740 l 64 821 q 74 846 64 836 q 99 856 85 856 l 939 856 q 965 846 954 856 q 975 821 975 836 l 975 754 q 965 730 975 740 q 939 719 954 719 l 99 719 m 132 0 q 107 10 117 0 q 97 35 97 19 l 97 938 q 107 963 97 953 q 132 972 117 972 l 311 972 q 337 963 326 972 q 347 938 347 953 l 347 603 l 689 603 l 689 938 q 699 963 689 953 q 724 972 708 972 l 903 972 q 928 963 918 972 q 938 938 938 953 l 938 35 q 928 10 938 21 q 903 0 918 0 l 724 0 q 699 10 708 0 q 689 35 689 21 l 689 381 l 347 381 l 347 35 q 337 10 347 21 q 311 0 326 0 l 132 0 z "},"Ĥ":{"ha":1035,"x_min":97,"x_max":938,"o":"m 132 0 q 107 10 117 0 q 97 35 97 19 l 97 938 q 107 963 97 953 q 132 972 117 972 l 311 972 q 337 963 326 972 q 347 938 347 953 l 347 603 l 689 603 l 689 938 q 699 963 689 953 q 724 972 708 972 l 903 972 q 928 963 918 972 q 938 938 938 953 l 938 35 q 928 10 938 21 q 903 0 918 0 l 724 0 q 699 10 708 0 q 689 35 689 21 l 689 381 l 347 381 l 347 35 q 337 10 347 21 q 311 0 326 0 l 132 0 m 278 1042 q 256 1061 256 1042 q 267 1083 256 1072 l 410 1233 q 434 1253 424 1249 q 458 1257 444 1257 l 576 1257 q 601 1253 590 1257 q 625 1233 611 1249 l 767 1083 q 778 1061 778 1072 q 757 1042 778 1042 l 686 1042 q 663 1044 675 1042 q 639 1051 650 1046 l 517 1119 l 396 1051 q 372 1044 385 1046 q 347 1042 360 1042 l 278 1042 z "},"I":{"ha":450,"x_min":97,"x_max":354,"o":"m 132 0 q 107 10 117 0 q 97 35 97 21 l 97 938 q 107 963 97 953 q 132 972 117 972 l 318 972 q 344 963 333 972 q 354 938 354 953 l 354 35 q 344 10 354 21 q 318 0 333 0 l 132 0 z "},"Ĳ":{"ha":1007,"x_min":97,"x_max":919,"o":"m 500 -14 q 475 -3 485 -14 q 465 21 465 7 l 465 168 q 475 194 465 183 q 500 204 485 204 q 622 251 582 204 q 661 392 661 299 l 661 938 q 672 963 661 953 q 696 972 682 972 l 883 972 q 909 963 899 972 q 919 938 919 953 l 919 357 q 869 142 919 224 q 724 23 818 60 q 500 -14 631 -14 m 132 0 q 107 10 117 0 q 97 35 97 21 l 97 938 q 107 963 97 953 q 132 972 117 972 l 318 972 q 344 963 333 972 q 354 938 354 953 l 354 35 q 344 10 354 21 q 318 0 333 0 l 132 0 z "},"Í":{"ha":450,"x_min":97,"x_max":518,"o":"m 132 0 q 107 10 117 0 q 97 35 97 21 l 97 938 q 107 963 97 953 q 132 972 117 972 l 318 972 q 344 963 333 972 q 354 938 354 953 l 354 35 q 344 10 354 21 q 318 0 333 0 l 132 0 m 139 1042 q 117 1064 117 1042 q 124 1082 117 1075 l 246 1231 q 269 1252 260 1247 q 297 1257 279 1257 l 492 1257 q 518 1229 518 1257 q 511 1213 518 1219 l 326 1061 q 304 1047 315 1051 q 274 1042 293 1042 l 139 1042 z "},"Ĭ":{"ha":450,"x_min":13,"x_max":439,"o":"m 132 0 q 107 10 117 0 q 97 35 97 21 l 97 938 q 107 963 97 953 q 132 972 117 972 l 318 972 q 344 963 333 972 q 354 938 354 953 l 354 35 q 344 10 354 21 q 318 0 333 0 l 132 0 m 225 1032 q 103 1059 150 1032 q 34 1131 56 1086 q 13 1228 13 1175 q 19 1247 13 1239 q 39 1254 26 1254 l 132 1254 q 151 1247 144 1254 q 158 1228 158 1239 q 172 1171 158 1196 q 225 1146 185 1146 q 279 1171 265 1146 q 293 1228 293 1196 q 300 1247 293 1239 q 319 1254 307 1254 l 413 1254 q 432 1247 425 1254 q 439 1228 439 1239 q 417 1131 439 1175 q 349 1059 396 1086 q 225 1032 301 1032 z "},"Î":{"ha":450,"x_min":-36,"x_max":486,"o":"m 132 0 q 107 10 117 0 q 97 35 97 21 l 97 938 q 107 963 97 953 q 132 972 117 972 l 318 972 q 344 963 333 972 q 354 938 354 953 l 354 35 q 344 10 354 21 q 318 0 333 0 l 132 0 m -14 1042 q -36 1061 -36 1042 q -25 1083 -36 1072 l 118 1233 q 142 1253 132 1249 q 167 1257 153 1257 l 285 1257 q 309 1253 299 1257 q 333 1233 319 1249 l 475 1083 q 486 1061 486 1072 q 465 1042 486 1042 l 394 1042 q 371 1044 383 1042 q 347 1051 358 1046 l 225 1119 l 104 1051 q 81 1044 93 1046 q 56 1042 68 1042 l -14 1042 z "},"Ï":{"ha":450,"x_min":-35,"x_max":485,"o":"m 132 0 q 107 10 117 0 q 97 35 97 21 l 97 938 q 107 963 97 953 q 132 972 117 972 l 318 972 q 344 963 333 972 q 354 938 354 953 l 354 35 q 344 10 354 21 q 318 0 333 0 l 132 0 m 325 1042 q 302 1050 311 1042 q 293 1074 293 1058 l 293 1200 q 302 1223 293 1214 q 325 1232 311 1232 l 453 1232 q 476 1223 467 1232 q 485 1200 485 1214 l 485 1074 q 476 1050 485 1058 q 453 1042 467 1042 l 325 1042 m -4 1042 q -26 1050 -18 1042 q -35 1074 -35 1058 l -35 1200 q -26 1223 -35 1214 q -4 1232 -18 1232 l 124 1232 q 147 1223 138 1232 q 156 1200 156 1214 l 156 1074 q 147 1050 156 1058 q 124 1042 138 1042 l -4 1042 z "},"İ":{"ha":450,"x_min":97,"x_max":354,"o":"m 132 0 q 107 10 117 0 q 97 35 97 21 l 97 938 q 107 963 97 953 q 132 972 117 972 l 318 972 q 344 963 333 972 q 354 938 354 953 l 354 35 q 344 10 354 21 q 318 0 333 0 l 132 0 m 153 1042 q 131 1050 139 1042 q 122 1074 122 1058 l 122 1217 q 131 1240 122 1231 q 153 1249 139 1249 l 296 1249 q 319 1240 310 1249 q 328 1217 328 1231 l 328 1074 q 319 1050 328 1058 q 296 1042 310 1042 l 153 1042 z "},"Ì":{"ha":450,"x_min":-62,"x_max":354,"o":"m 132 0 q 107 10 117 0 q 97 35 97 21 l 97 938 q 107 963 97 953 q 132 972 117 972 l 318 972 q 344 963 333 972 q 354 938 354 953 l 354 35 q 344 10 354 21 q 318 0 333 0 l 132 0 m 182 1042 q 151 1047 163 1042 q 129 1061 140 1051 l -56 1213 q -62 1229 -62 1219 q -36 1257 -62 1257 l 158 1257 q 185 1252 175 1257 q 210 1231 196 1247 l 332 1082 q 339 1064 339 1075 q 317 1042 339 1042 l 182 1042 z "},"Ī":{"ha":450,"x_min":-22,"x_max":472,"o":"m 132 0 q 107 10 117 0 q 97 35 97 21 l 97 938 q 107 963 97 953 q 132 972 117 972 l 318 972 q 344 963 333 972 q 354 938 354 953 l 354 35 q 344 10 354 21 q 318 0 333 0 l 132 0 m 10 1042 q -12 1050 -4 1042 q -21 1074 -21 1058 l -21 1175 q -12 1198 -21 1189 q 10 1207 -4 1207 l 440 1207 q 464 1198 456 1207 q 472 1175 472 1189 l 472 1074 q 464 1050 472 1058 q 440 1042 456 1042 l 10 1042 z "},"Į":{"ha":460,"x_min":88,"x_max":363,"o":"m 306 -307 q 185 -278 233 -307 q 112 -199 136 -250 q 88 -86 88 -149 q 104 -14 88 -43 q 150 29 121 15 l 129 33 q 113 43 119 35 q 106 63 106 51 l 106 938 q 116 963 106 953 q 142 972 126 972 l 328 972 q 353 963 343 972 q 363 938 363 953 l 363 35 q 353 10 363 21 q 328 0 343 0 l 311 0 q 249 -26 269 0 q 229 -86 229 -53 q 249 -146 229 -119 q 311 -172 269 -172 l 328 -172 q 353 -182 343 -172 q 363 -207 363 -192 l 363 -272 q 353 -297 363 -287 q 328 -307 343 -307 l 306 -307 z "},"Ĩ":{"ha":450,"x_min":-17,"x_max":467,"o":"m 132 0 q 107 10 117 0 q 97 35 97 21 l 97 938 q 107 963 97 953 q 132 972 117 972 l 318 972 q 344 963 333 972 q 354 938 354 953 l 354 35 q 344 10 354 21 q 318 0 333 0 l 132 0 m 308 1035 q 246 1047 271 1035 q 201 1072 221 1060 q 156 1083 181 1083 q 128 1074 138 1083 q 113 1053 119 1064 q 90 1042 106 1042 l 7 1042 q -10 1049 -3 1042 q -17 1065 -17 1057 q -9 1118 -17 1088 q 17 1177 -1 1149 q 66 1224 36 1206 q 139 1243 96 1243 q 203 1231 178 1243 q 249 1206 228 1218 q 293 1193 269 1193 q 320 1204 313 1193 q 335 1226 328 1215 q 357 1236 342 1236 l 440 1236 q 459 1228 453 1236 q 465 1211 465 1221 q 457 1159 465 1189 q 431 1101 449 1129 q 382 1053 413 1072 q 308 1035 351 1035 z "},"J":{"ha":932,"x_min":32,"x_max":843,"o":"m 433 -14 q 283 6 354 -14 q 156 67 211 26 q 67 167 100 107 q 32 306 35 226 q 40 327 32 318 q 63 336 49 336 l 250 336 q 280 326 269 336 q 297 297 290 317 q 324 234 306 258 q 373 198 343 210 q 440 186 403 186 q 547 231 510 186 q 585 364 585 276 l 585 765 l 135 765 q 110 775 121 765 q 100 800 100 785 l 100 938 q 110 963 100 953 q 135 972 121 972 l 807 972 q 833 963 822 972 q 843 938 843 953 l 843 357 q 791 153 843 236 q 647 28 739 71 q 433 -14 554 -14 z "},"Ĵ":{"ha":932,"x_min":32,"x_max":843,"o":"m 433 -14 q 283 6 354 -14 q 156 67 211 26 q 67 167 100 107 q 32 306 35 226 q 40 327 32 318 q 63 336 49 336 l 250 336 q 280 326 269 336 q 297 297 290 317 q 324 234 306 258 q 373 198 343 210 q 440 186 403 186 q 547 231 510 186 q 585 364 585 276 l 585 765 l 135 765 q 110 775 121 765 q 100 800 100 785 l 100 938 q 110 963 100 953 q 135 972 121 972 l 807 972 q 833 963 822 972 q 843 938 843 953 l 843 357 q 791 153 843 236 q 647 28 739 71 q 433 -14 554 -14 m 240 1042 q 218 1061 218 1042 q 229 1083 218 1072 l 372 1233 q 397 1253 386 1249 q 421 1257 407 1257 l 539 1257 q 563 1253 553 1257 q 588 1233 574 1249 l 729 1083 q 740 1061 740 1072 q 719 1042 740 1042 l 649 1042 q 625 1044 638 1042 q 601 1051 613 1046 l 479 1119 l 358 1051 q 335 1044 347 1046 q 310 1042 322 1042 l 240 1042 z "},"K":{"ha":921,"x_min":97,"x_max":908,"o":"m 132 0 q 107 10 117 0 q 97 35 97 21 l 97 938 q 107 963 97 953 q 132 972 117 972 l 307 972 q 332 963 322 972 q 342 938 342 953 l 342 629 l 599 946 q 617 963 604 954 q 653 972 631 972 l 853 972 q 874 963 865 972 q 882 943 882 954 q 878 926 882 933 l 544 507 l 903 46 q 908 29 908 40 q 900 9 908 18 q 879 0 892 0 l 672 0 q 634 11 647 0 q 617 28 621 22 l 342 371 l 342 35 q 332 10 342 21 q 307 0 322 0 l 132 0 z "},"Ķ":{"ha":921,"x_min":97,"x_max":908,"o":"m 132 0 q 107 10 117 0 q 97 35 97 21 l 97 938 q 107 963 97 953 q 132 972 117 972 l 307 972 q 332 963 322 972 q 342 938 342 953 l 342 629 l 599 946 q 617 963 604 954 q 653 972 631 972 l 853 972 q 874 963 865 972 q 882 943 882 954 q 878 926 882 933 l 544 507 l 903 46 q 908 29 908 40 q 900 9 908 18 q 879 0 892 0 l 672 0 q 634 11 647 0 q 617 28 621 22 l 342 371 l 342 35 q 332 10 342 21 q 307 0 322 0 l 132 0 m 346 -326 q 326 -317 333 -326 q 319 -296 319 -308 l 346 -117 q 361 -84 349 -99 q 397 -69 374 -69 l 551 -69 q 570 -78 563 -69 q 578 -97 578 -86 q 575 -112 578 -106 l 507 -287 q 490 -314 501 -301 q 456 -326 479 -326 l 346 -326 z "},"L":{"ha":829,"x_min":97,"x_max":806,"o":"m 132 0 q 107 10 117 0 q 97 35 97 21 l 97 938 q 107 963 97 953 q 132 972 117 972 l 315 972 q 340 963 331 972 q 350 938 350 953 l 350 210 l 771 210 q 796 199 786 210 q 806 174 806 189 l 806 35 q 796 10 806 21 q 771 0 786 0 l 132 0 z "},"Ĺ":{"ha":829,"x_min":97,"x_max":806,"o":"m 132 0 q 107 10 117 0 q 97 35 97 21 l 97 938 q 107 963 97 953 q 132 972 117 972 l 315 972 q 340 963 331 972 q 350 938 350 953 l 350 210 l 771 210 q 796 199 786 210 q 806 174 806 189 l 806 35 q 796 10 806 21 q 771 0 786 0 l 132 0 m 129 1042 q 107 1064 107 1042 q 114 1082 107 1075 l 236 1231 q 260 1252 250 1247 q 288 1257 269 1257 l 482 1257 q 508 1229 508 1257 q 501 1213 508 1219 l 317 1061 q 294 1047 306 1051 q 264 1042 283 1042 l 129 1042 z "},"Ľ":{"ha":829,"x_min":97,"x_max":806,"o":"m 132 0 q 107 10 117 0 q 97 35 97 21 l 97 938 q 107 963 97 953 q 132 972 117 972 l 315 972 q 340 963 331 972 q 350 938 350 953 l 350 210 l 771 210 q 796 199 786 210 q 806 174 806 189 l 806 35 q 796 10 806 21 q 771 0 786 0 l 132 0 m 514 665 q 494 674 501 665 q 488 696 488 683 l 515 875 q 530 908 518 893 q 565 922 542 922 l 710 922 q 729 914 721 922 q 738 894 738 906 q 733 879 738 886 l 665 704 q 649 678 660 690 q 614 665 638 665 l 514 665 z "},"Ļ":{"ha":829,"x_min":97,"x_max":806,"o":"m 132 0 q 107 10 117 0 q 97 35 97 21 l 97 938 q 107 963 97 953 q 132 972 117 972 l 315 972 q 340 963 331 972 q 350 938 350 953 l 350 210 l 771 210 q 796 199 786 210 q 806 174 806 189 l 806 35 q 796 10 806 21 q 771 0 786 0 l 132 0 m 308 -326 q 289 -317 296 -326 q 282 -296 282 -308 l 308 -117 q 324 -84 311 -99 q 360 -69 336 -69 l 514 -69 q 533 -78 525 -69 q 540 -97 540 -86 q 538 -112 540 -106 l 469 -287 q 453 -314 464 -301 q 418 -326 442 -326 l 308 -326 z "},"Ŀ":{"ha":836,"x_min":97,"x_max":806,"o":"m 132 0 q 107 10 117 0 q 97 35 97 21 l 97 938 q 107 963 97 953 q 132 972 117 972 l 315 972 q 340 963 331 972 q 350 938 350 953 l 350 210 l 771 210 q 796 199 786 210 q 806 174 806 189 l 806 35 q 796 10 806 21 q 771 0 786 0 l 132 0 m 571 433 q 547 442 556 433 q 539 464 539 450 l 539 603 q 547 626 539 617 q 571 635 556 635 l 708 635 q 731 626 722 635 q 740 603 740 617 l 740 464 q 731 442 740 450 q 708 433 722 433 l 571 433 z "},"Ł":{"ha":840,"x_min":18,"x_max":817,"o":"m 143 0 q 118 10 128 0 q 108 35 108 21 l 108 347 l 63 331 q 46 326 53 326 q 26 333 33 326 q 18 353 18 340 l 18 457 q 25 484 18 475 q 49 499 32 493 l 108 522 l 108 938 q 118 963 108 953 q 143 972 128 972 l 326 972 q 351 963 342 972 q 361 938 361 953 l 361 622 l 563 700 q 579 704 574 704 q 599 697 590 704 q 607 676 607 689 l 607 574 q 600 547 607 556 q 576 532 593 539 l 361 447 l 361 210 l 782 210 q 807 199 797 210 q 817 175 817 189 l 817 35 q 807 10 817 21 q 782 0 797 0 l 143 0 z "},"M":{"ha":1150,"x_min":97,"x_max":1053,"o":"m 132 0 q 108 10 118 0 q 97 35 97 21 l 97 938 q 108 963 97 953 q 132 972 118 972 l 282 972 q 317 960 306 972 q 331 942 328 949 l 575 504 l 819 942 q 834 960 824 949 q 868 972 844 972 l 1017 972 q 1042 963 1032 972 q 1053 938 1053 953 l 1053 35 q 1042 10 1053 21 q 1017 0 1032 0 l 851 0 q 826 10 836 0 q 815 35 815 21 l 815 556 l 660 265 q 642 243 653 253 q 611 233 631 233 l 539 233 q 508 243 519 233 q 490 265 497 253 l 333 556 l 333 35 q 324 10 333 21 q 299 0 314 0 l 132 0 z "},"N":{"ha":999,"x_min":97,"x_max":901,"o":"m 132 0 q 107 10 117 0 q 97 35 97 21 l 97 938 q 107 963 97 953 q 132 972 117 972 l 279 972 q 313 962 303 972 q 326 946 324 951 l 665 413 l 665 938 q 675 963 665 953 q 700 972 685 972 l 867 972 q 892 963 882 972 q 901 938 901 953 l 901 36 q 892 10 901 21 q 867 0 882 0 l 718 0 q 685 11 696 0 q 672 26 675 22 l 333 540 l 333 35 q 324 10 333 21 q 299 0 314 0 l 132 0 z "},"Ń":{"ha":999,"x_min":97,"x_max":901,"o":"m 132 0 q 107 10 117 0 q 97 35 97 21 l 97 938 q 107 963 97 953 q 132 972 117 972 l 279 972 q 313 962 303 972 q 326 946 324 951 l 665 413 l 665 938 q 675 963 665 953 q 700 972 685 972 l 867 972 q 892 963 882 972 q 901 938 901 953 l 901 36 q 892 10 901 21 q 867 0 882 0 l 718 0 q 685 11 696 0 q 672 26 675 22 l 333 540 l 333 35 q 324 10 333 21 q 299 0 314 0 l 132 0 m 413 1042 q 390 1064 390 1042 q 397 1082 390 1075 l 519 1231 q 543 1252 533 1247 q 571 1257 553 1257 l 765 1257 q 792 1229 792 1257 q 785 1213 792 1219 l 600 1061 q 578 1047 589 1051 q 547 1042 567 1042 l 413 1042 z "},"Ň":{"ha":999,"x_min":97,"x_max":901,"o":"m 132 0 q 107 10 117 0 q 97 35 97 21 l 97 938 q 107 963 97 953 q 132 972 117 972 l 279 972 q 313 962 303 972 q 326 946 324 951 l 665 413 l 665 938 q 675 963 665 953 q 700 972 685 972 l 867 972 q 892 963 882 972 q 901 938 901 953 l 901 36 q 892 10 901 21 q 867 0 882 0 l 718 0 q 685 11 696 0 q 672 26 675 22 l 333 540 l 333 35 q 324 10 333 21 q 299 0 314 0 l 132 0 m 440 1042 q 416 1047 426 1042 q 392 1065 406 1051 l 249 1215 q 238 1238 238 1226 q 260 1257 238 1257 l 329 1257 q 354 1255 342 1257 q 378 1247 367 1253 l 499 1179 l 621 1247 q 644 1255 632 1253 q 668 1257 657 1257 l 739 1257 q 760 1238 760 1257 q 749 1215 760 1226 l 607 1065 q 583 1047 593 1051 q 558 1042 572 1042 l 440 1042 z "},"Ņ":{"ha":999,"x_min":97,"x_max":901,"o":"m 132 0 q 107 10 117 0 q 97 35 97 21 l 97 938 q 107 963 97 953 q 132 972 117 972 l 279 972 q 313 962 303 972 q 326 946 324 951 l 665 413 l 665 938 q 675 963 665 953 q 700 972 685 972 l 867 972 q 892 963 882 972 q 901 938 901 953 l 901 36 q 892 10 901 21 q 867 0 882 0 l 718 0 q 685 11 696 0 q 672 26 675 22 l 333 540 l 333 35 q 324 10 333 21 q 299 0 314 0 l 132 0 m 382 -326 q 363 -317 369 -326 q 356 -296 356 -308 l 382 -117 q 397 -84 385 -99 q 433 -69 410 -69 l 588 -69 q 606 -78 599 -69 q 614 -97 614 -86 q 611 -112 614 -106 l 543 -287 q 526 -314 538 -301 q 492 -326 515 -326 l 382 -326 z "},"Ñ":{"ha":999,"x_min":97,"x_max":901,"o":"m 132 0 q 107 10 117 0 q 97 35 97 21 l 97 938 q 107 963 97 953 q 132 972 117 972 l 279 972 q 313 962 303 972 q 326 946 324 951 l 665 413 l 665 938 q 675 963 665 953 q 700 972 685 972 l 867 972 q 892 963 882 972 q 901 938 901 953 l 901 36 q 892 10 901 21 q 867 0 882 0 l 718 0 q 685 11 696 0 q 672 26 675 22 l 333 540 l 333 35 q 324 10 333 21 q 299 0 314 0 l 132 0 m 583 1035 q 521 1047 546 1035 q 476 1072 496 1060 q 431 1083 456 1083 q 403 1074 413 1083 q 388 1053 394 1064 q 365 1042 381 1042 l 282 1042 q 265 1049 272 1042 q 258 1065 258 1057 q 266 1118 258 1088 q 292 1177 274 1149 q 341 1224 311 1206 q 414 1243 371 1243 q 478 1231 453 1243 q 524 1206 503 1218 q 568 1193 544 1193 q 595 1204 588 1193 q 610 1226 603 1215 q 632 1236 617 1236 l 715 1236 q 734 1228 728 1236 q 740 1211 740 1221 q 732 1159 740 1189 q 706 1101 724 1129 q 657 1053 688 1072 q 583 1035 626 1035 z "},"Ŋ":{"ha":999,"x_min":97,"x_max":901,"o":"m 525 -312 q 499 -302 510 -312 q 489 -278 489 -292 l 489 -140 q 499 -115 489 -125 q 525 -106 510 -106 l 561 -106 q 622 -91 600 -106 q 655 -53 644 -76 q 665 1 665 -29 l 665 38 l 333 540 l 333 35 q 324 10 333 21 q 299 0 314 0 l 132 0 q 107 10 117 0 q 97 35 97 21 l 97 938 q 107 963 97 953 q 132 972 117 972 l 279 972 q 313 962 303 972 q 326 946 324 951 l 665 413 l 665 938 q 675 963 665 953 q 700 972 685 972 l 867 972 q 892 963 882 972 q 901 938 901 953 l 901 -7 q 858 -174 901 -106 q 733 -277 814 -242 q 540 -312 653 -312 l 525 -312 z "},"O":{"ha":989,"x_min":65,"x_max":925,"o":"m 494 -14 q 272 28 367 -14 q 125 153 178 69 q 67 364 72 238 q 65 484 65 424 q 67 604 65 544 q 126 815 72 729 q 274 943 179 900 q 494 986 369 986 q 715 943 621 986 q 864 815 810 900 q 922 604 918 729 q 925 484 925 544 q 922 364 925 424 q 865 153 918 238 q 717 28 811 69 q 494 -14 622 -14 m 494 186 q 615 231 568 186 q 664 372 661 275 q 667 488 667 433 q 664 600 667 542 q 640 706 661 665 q 581 767 618 747 q 494 786 543 786 q 410 767 447 786 q 350 706 372 747 q 325 600 328 665 q 324 488 324 542 q 325 372 324 433 q 376 231 329 275 q 494 186 422 186 z "},"Ó":{"ha":989,"x_min":65,"x_max":925,"o":"m 494 -14 q 272 28 367 -14 q 125 153 178 69 q 67 364 72 238 q 65 484 65 424 q 67 604 65 544 q 126 815 72 729 q 274 943 179 900 q 494 986 369 986 q 715 943 621 986 q 864 815 810 900 q 922 604 918 729 q 925 484 925 544 q 922 364 925 424 q 865 153 918 238 q 717 28 811 69 q 494 -14 622 -14 m 494 186 q 615 231 568 186 q 664 372 661 275 q 667 488 667 433 q 664 600 667 542 q 640 706 661 665 q 581 767 618 747 q 494 786 543 786 q 410 767 447 786 q 350 706 372 747 q 325 600 328 665 q 324 488 324 542 q 325 372 324 433 q 376 231 329 275 q 494 186 422 186 m 408 1042 q 386 1064 386 1042 q 393 1082 386 1075 l 515 1231 q 539 1252 529 1247 q 567 1257 549 1257 l 761 1257 q 788 1229 788 1257 q 781 1213 788 1219 l 596 1061 q 574 1047 585 1051 q 543 1042 563 1042 l 408 1042 z "},"Ŏ":{"ha":989,"x_min":65,"x_max":925,"o":"m 494 -14 q 272 28 367 -14 q 125 153 178 69 q 67 364 72 238 q 65 484 65 424 q 67 604 65 544 q 126 815 72 729 q 274 943 179 900 q 494 986 369 986 q 715 943 621 986 q 864 815 810 900 q 922 604 918 729 q 925 484 925 544 q 922 364 925 424 q 865 153 918 238 q 717 28 811 69 q 494 -14 622 -14 m 494 186 q 615 231 568 186 q 664 372 661 275 q 667 488 667 433 q 664 600 667 542 q 640 706 661 665 q 581 767 618 747 q 494 786 543 786 q 410 767 447 786 q 350 706 372 747 q 325 600 328 665 q 324 488 324 542 q 325 372 324 433 q 376 231 329 275 q 494 186 422 186 m 494 1032 q 372 1059 419 1032 q 303 1131 325 1086 q 282 1228 282 1175 q 289 1247 282 1239 q 308 1254 296 1254 l 401 1254 q 421 1247 414 1254 q 428 1228 428 1239 q 441 1171 428 1196 q 494 1146 454 1146 q 549 1171 535 1146 q 563 1228 563 1196 q 569 1247 563 1239 q 589 1254 576 1254 l 682 1254 q 701 1247 694 1254 q 708 1228 708 1239 q 687 1131 708 1175 q 618 1059 665 1086 q 494 1032 571 1032 z "},"Ô":{"ha":989,"x_min":65,"x_max":925,"o":"m 494 -14 q 272 28 367 -14 q 125 153 178 69 q 67 364 72 238 q 65 484 65 424 q 67 604 65 544 q 126 815 72 729 q 274 943 179 900 q 494 986 369 986 q 715 943 621 986 q 864 815 810 900 q 922 604 918 729 q 925 484 925 544 q 922 364 925 424 q 865 153 918 238 q 717 28 811 69 q 494 -14 622 -14 m 494 186 q 615 231 568 186 q 664 372 661 275 q 667 488 667 433 q 664 600 667 542 q 640 706 661 665 q 581 767 618 747 q 494 786 543 786 q 410 767 447 786 q 350 706 372 747 q 325 600 328 665 q 324 488 324 542 q 325 372 324 433 q 376 231 329 275 q 494 186 422 186 m 256 1042 q 233 1061 233 1042 q 244 1083 233 1072 l 388 1233 q 412 1253 401 1249 q 436 1257 422 1257 l 554 1257 q 578 1253 568 1257 q 603 1233 589 1249 l 744 1083 q 756 1061 756 1072 q 735 1042 756 1042 l 664 1042 q 640 1044 653 1042 q 617 1051 628 1046 l 494 1119 l 374 1051 q 350 1044 363 1046 q 325 1042 338 1042 l 256 1042 z "},"Ö":{"ha":989,"x_min":65,"x_max":925,"o":"m 494 -14 q 272 28 367 -14 q 125 153 178 69 q 67 364 72 238 q 65 484 65 424 q 67 604 65 544 q 126 815 72 729 q 274 943 179 900 q 494 986 369 986 q 715 943 621 986 q 864 815 810 900 q 922 604 918 729 q 925 484 925 544 q 922 364 925 424 q 865 153 918 238 q 717 28 811 69 q 494 -14 622 -14 m 494 186 q 615 231 568 186 q 664 372 661 275 q 667 488 667 433 q 664 600 667 542 q 640 706 661 665 q 581 767 618 747 q 494 786 543 786 q 410 767 447 786 q 350 706 372 747 q 325 600 328 665 q 324 488 324 542 q 325 372 324 433 q 376 231 329 275 q 494 186 422 186 m 594 1042 q 572 1050 581 1042 q 563 1074 563 1058 l 563 1200 q 572 1223 563 1214 q 594 1232 581 1232 l 722 1232 q 745 1223 736 1232 q 754 1200 754 1214 l 754 1074 q 745 1050 754 1058 q 722 1042 736 1042 l 594 1042 m 265 1042 q 243 1050 251 1042 q 235 1074 235 1058 l 235 1200 q 243 1223 235 1214 q 265 1232 251 1232 l 393 1232 q 416 1223 407 1232 q 425 1200 425 1214 l 425 1074 q 416 1050 425 1058 q 393 1042 407 1042 l 265 1042 z "},"Ò":{"ha":989,"x_min":65,"x_max":925,"o":"m 494 -14 q 272 28 367 -14 q 125 153 178 69 q 67 364 72 238 q 65 484 65 424 q 67 604 65 544 q 126 815 72 729 q 274 943 179 900 q 494 986 369 986 q 715 943 621 986 q 864 815 810 900 q 922 604 918 729 q 925 484 925 544 q 922 364 925 424 q 865 153 918 238 q 717 28 811 69 q 494 -14 622 -14 m 494 186 q 615 231 568 186 q 664 372 661 275 q 667 488 667 433 q 664 600 667 542 q 640 706 661 665 q 581 767 618 747 q 494 786 543 786 q 410 767 447 786 q 350 706 372 747 q 325 600 328 665 q 324 488 324 542 q 325 372 324 433 q 376 231 329 275 q 494 186 422 186 m 451 1042 q 421 1047 432 1042 q 399 1061 410 1051 l 214 1213 q 207 1229 207 1219 q 233 1257 207 1257 l 428 1257 q 455 1252 444 1257 q 479 1231 465 1247 l 601 1082 q 608 1064 608 1075 q 586 1042 608 1042 l 451 1042 z "},"Ő":{"ha":989,"x_min":65,"x_max":925,"o":"m 494 -14 q 272 28 367 -14 q 125 153 178 69 q 67 364 72 238 q 65 484 65 424 q 67 604 65 544 q 126 815 72 729 q 274 943 179 900 q 494 986 369 986 q 715 943 621 986 q 864 815 810 900 q 922 604 918 729 q 925 484 925 544 q 922 364 925 424 q 865 153 918 238 q 717 28 811 69 q 494 -14 622 -14 m 494 186 q 615 231 568 186 q 664 372 661 275 q 667 488 667 433 q 664 600 667 542 q 640 706 661 665 q 581 767 618 747 q 494 786 543 786 q 410 767 447 786 q 350 706 372 747 q 325 600 328 665 q 324 488 324 542 q 325 372 324 433 q 376 231 329 275 q 494 186 422 186 m 589 1042 q 567 1064 567 1042 q 569 1075 567 1069 q 574 1085 572 1081 l 639 1231 q 690 1257 651 1257 l 849 1257 q 876 1231 876 1257 q 868 1213 876 1221 l 732 1061 q 686 1042 715 1042 l 589 1042 m 300 1042 q 278 1064 278 1042 q 281 1075 278 1069 q 285 1085 283 1081 l 350 1231 q 401 1257 363 1257 l 558 1257 q 586 1231 586 1257 q 578 1213 586 1221 l 442 1061 q 397 1042 425 1042 l 300 1042 z "},"Ō":{"ha":989,"x_min":65,"x_max":925,"o":"m 494 -14 q 272 28 367 -14 q 125 153 178 69 q 67 364 72 238 q 65 484 65 424 q 67 604 65 544 q 126 815 72 729 q 274 943 179 900 q 494 986 369 986 q 715 943 621 986 q 864 815 810 900 q 922 604 918 729 q 925 484 925 544 q 922 364 925 424 q 865 153 918 238 q 717 28 811 69 q 494 -14 622 -14 m 494 186 q 615 231 568 186 q 664 372 661 275 q 667 488 667 433 q 664 600 667 542 q 640 706 661 665 q 581 767 618 747 q 494 786 543 786 q 410 767 447 786 q 350 706 372 747 q 325 600 328 665 q 324 488 324 542 q 325 372 324 433 q 376 231 329 275 q 494 186 422 186 m 278 1042 q 256 1050 264 1042 q 247 1074 247 1058 l 247 1175 q 256 1198 247 1189 q 278 1207 264 1207 l 708 1207 q 732 1198 724 1207 q 740 1175 740 1189 l 740 1074 q 732 1050 740 1058 q 708 1042 724 1042 l 278 1042 z "},"Ø":{"ha":989,"x_min":65,"x_max":925,"o":"m 494 -14 q 272 28 367 -14 q 125 153 178 69 q 67 364 72 238 q 65 484 65 424 q 67 604 65 544 q 126 815 72 729 q 274 943 179 900 q 494 986 369 986 q 715 943 621 986 q 864 815 810 900 q 922 604 918 729 q 925 484 925 544 q 922 364 925 424 q 865 153 918 238 q 717 28 811 69 q 494 -14 622 -14 m 494 186 q 615 231 568 186 q 664 372 661 275 q 667 488 667 433 q 664 600 667 542 q 640 706 661 665 q 581 767 618 747 q 494 786 543 786 q 410 767 447 786 q 350 706 372 747 q 325 600 328 665 q 324 488 324 542 q 325 372 324 433 q 376 231 329 275 q 494 186 422 186 m 121 -90 q 96 -74 103 -90 q 100 -40 89 -58 l 789 1043 q 799 1055 792 1047 q 821 1063 807 1063 l 869 1063 q 894 1047 888 1063 q 889 1014 900 1032 l 199 -69 q 189 -82 196 -74 q 165 -90 182 -90 l 121 -90 z "},"Ǿ":{"ha":989,"x_min":65,"x_max":925,"o":"m 494 -14 q 272 28 367 -14 q 125 153 178 69 q 67 364 72 238 q 65 484 65 424 q 67 604 65 544 q 126 815 72 729 q 274 943 179 900 q 494 986 369 986 q 715 943 621 986 q 864 815 810 900 q 922 604 918 729 q 925 484 925 544 q 922 364 925 424 q 865 153 918 238 q 717 28 811 69 q 494 -14 622 -14 m 494 186 q 615 231 568 186 q 664 372 661 275 q 667 488 667 433 q 664 600 667 542 q 640 706 661 665 q 581 767 618 747 q 494 786 543 786 q 410 767 447 786 q 350 706 372 747 q 325 600 328 665 q 324 488 324 542 q 325 372 324 433 q 376 231 329 275 q 494 186 422 186 m 121 -90 q 96 -74 103 -90 q 100 -40 89 -58 l 789 1043 q 799 1055 792 1047 q 821 1063 807 1063 l 869 1063 q 894 1047 888 1063 q 889 1014 900 1032 l 199 -69 q 189 -82 196 -74 q 165 -90 182 -90 l 121 -90 m 408 1042 q 386 1064 386 1042 q 393 1082 386 1075 l 515 1231 q 539 1252 529 1247 q 567 1257 549 1257 l 761 1257 q 788 1229 788 1257 q 781 1213 788 1219 l 596 1061 q 574 1047 585 1051 q 543 1042 563 1042 l 408 1042 z "},"Õ":{"ha":989,"x_min":65,"x_max":925,"o":"m 494 -14 q 272 28 367 -14 q 125 153 178 69 q 67 364 72 238 q 65 484 65 424 q 67 604 65 544 q 126 815 72 729 q 274 943 179 900 q 494 986 369 986 q 715 943 621 986 q 864 815 810 900 q 922 604 918 729 q 925 484 925 544 q 922 364 925 424 q 865 153 918 238 q 717 28 811 69 q 494 -14 622 -14 m 494 186 q 615 231 568 186 q 664 372 661 275 q 667 488 667 433 q 664 600 667 542 q 640 706 661 665 q 581 767 618 747 q 494 786 543 786 q 410 767 447 786 q 350 706 372 747 q 325 600 328 665 q 324 488 324 542 q 325 372 324 433 q 376 231 329 275 q 494 186 422 186 m 578 1035 q 515 1047 540 1035 q 470 1072 490 1060 q 425 1083 450 1083 q 398 1074 407 1083 q 382 1053 389 1064 q 360 1042 375 1042 l 276 1042 q 260 1049 267 1042 q 253 1065 253 1057 q 260 1118 253 1088 q 287 1177 268 1149 q 335 1224 306 1206 q 408 1243 365 1243 q 472 1231 447 1243 q 518 1206 497 1218 q 563 1193 539 1193 q 590 1204 582 1193 q 604 1226 597 1215 q 626 1236 611 1236 l 710 1236 q 728 1228 722 1236 q 735 1211 735 1221 q 726 1159 735 1189 q 700 1101 718 1129 q 651 1053 682 1072 q 578 1035 621 1035 z "},"Œ":{"ha":1339,"x_min":65,"x_max":1278,"o":"m 494 0 q 265 41 358 0 q 121 167 171 82 q 67 381 71 251 q 65 486 65 440 q 67 593 65 532 q 122 801 71 717 q 269 928 174 885 q 501 972 365 972 l 1231 972 q 1256 963 1246 972 q 1267 938 1267 953 l 1267 807 q 1256 782 1267 792 q 1231 772 1246 772 l 826 772 l 826 585 l 1200 585 q 1226 574 1215 585 q 1236 549 1236 564 l 1236 428 q 1226 403 1236 414 q 1200 393 1215 393 l 826 393 l 826 200 l 1242 200 q 1267 190 1257 200 q 1278 165 1278 181 l 1278 35 q 1267 10 1278 21 q 1242 0 1257 0 l 494 0 m 501 200 l 586 200 l 586 772 l 508 772 q 370 728 417 772 q 321 590 324 685 q 319 519 319 551 q 319 456 318 488 q 321 383 319 424 q 343 278 324 318 q 402 219 363 238 q 501 200 442 200 z "},"P":{"ha":939,"x_min":97,"x_max":903,"o":"m 132 0 q 107 10 117 0 q 97 35 97 21 l 97 938 q 107 963 97 953 q 132 972 117 972 l 521 972 q 722 937 636 972 q 855 831 807 901 q 903 651 903 760 q 855 475 903 544 q 722 372 807 406 q 521 339 636 339 l 356 339 l 356 35 q 345 10 356 21 q 319 0 335 0 l 132 0 m 351 531 l 514 531 q 609 561 574 531 q 644 654 644 592 q 614 743 644 707 q 514 779 583 779 l 351 779 l 351 531 z "},"Þ":{"ha":942,"x_min":97,"x_max":903,"o":"m 132 0 q 107 10 117 0 q 97 35 97 21 l 97 938 q 107 963 97 953 q 132 972 117 972 l 321 972 q 345 963 335 972 q 356 938 356 953 l 356 813 l 517 813 q 721 777 635 813 q 855 670 807 742 q 903 492 903 599 q 855 314 903 383 q 721 211 807 244 q 517 178 635 178 l 356 178 l 356 35 q 345 10 356 21 q 319 0 335 0 l 132 0 m 351 369 l 514 369 q 609 400 574 369 q 644 493 644 431 q 614 583 644 547 q 514 619 583 619 l 351 619 l 351 369 z "},"Q":{"ha":989,"x_min":65,"x_max":928,"o":"m 717 -90 q 683 -78 694 -90 q 664 -58 671 -67 l 617 4 q 493 -14 563 -14 q 272 28 365 -14 q 124 153 178 69 q 67 364 71 238 q 65 484 65 424 q 67 604 65 544 q 125 815 71 729 q 274 943 179 900 q 493 986 368 986 q 714 943 619 986 q 863 815 808 900 q 921 604 918 729 q 924 484 924 544 q 921 364 924 424 q 821 97 914 192 l 922 -47 q 925 -53 924 -49 q 926 -61 926 -57 q 919 -81 928 -72 q 899 -90 911 -90 l 717 -90 m 493 186 q 613 231 567 186 q 663 372 660 275 q 665 488 665 433 q 663 600 665 542 q 639 706 661 665 q 580 767 617 747 q 493 786 543 786 q 408 767 446 786 q 349 706 371 747 q 325 600 328 665 q 324 488 324 542 q 325 372 324 433 q 375 231 329 275 q 493 186 421 186 z "},"R":{"ha":960,"x_min":97,"x_max":918,"o":"m 132 0 q 107 10 117 0 q 97 35 97 21 l 97 938 q 107 963 97 953 q 132 972 117 972 l 510 972 q 793 890 690 972 q 896 656 896 807 q 849 489 896 557 q 724 386 801 421 l 914 44 q 918 29 918 36 q 909 9 918 18 q 889 0 900 0 l 704 0 q 665 13 678 0 q 647 38 653 26 l 489 343 l 347 343 l 347 35 q 337 10 347 21 q 311 0 326 0 l 132 0 m 347 540 l 507 540 q 605 572 572 540 q 638 658 638 604 q 606 746 638 713 q 507 779 575 779 l 347 779 l 347 540 z "},"Ŕ":{"ha":960,"x_min":97,"x_max":918,"o":"m 132 0 q 107 10 117 0 q 97 35 97 21 l 97 938 q 107 963 97 953 q 132 972 117 972 l 510 972 q 793 890 690 972 q 896 656 896 807 q 849 489 896 557 q 724 386 801 421 l 914 44 q 918 29 918 36 q 909 9 918 18 q 889 0 900 0 l 704 0 q 665 13 678 0 q 647 38 653 26 l 489 343 l 347 343 l 347 35 q 337 10 347 21 q 311 0 326 0 l 132 0 m 347 540 l 507 540 q 605 572 572 540 q 638 658 638 604 q 606 746 638 713 q 507 779 575 779 l 347 779 l 347 540 m 365 1042 q 343 1064 343 1042 q 350 1082 343 1075 l 472 1231 q 496 1252 486 1247 q 524 1257 506 1257 l 718 1257 q 744 1229 744 1257 q 738 1213 744 1219 l 553 1061 q 531 1047 542 1051 q 500 1042 519 1042 l 365 1042 z "},"Ř":{"ha":960,"x_min":97,"x_max":918,"o":"m 132 0 q 107 10 117 0 q 97 35 97 21 l 97 938 q 107 963 97 953 q 132 972 117 972 l 510 972 q 793 890 690 972 q 896 656 896 807 q 849 489 896 557 q 724 386 801 421 l 914 44 q 918 29 918 36 q 909 9 918 18 q 889 0 900 0 l 704 0 q 665 13 678 0 q 647 38 653 26 l 489 343 l 347 343 l 347 35 q 337 10 347 21 q 311 0 326 0 l 132 0 m 347 540 l 507 540 q 605 572 572 540 q 638 658 638 604 q 606 746 638 713 q 507 779 575 779 l 347 779 l 347 540 m 393 1042 q 369 1047 379 1042 q 344 1065 358 1051 l 201 1215 q 190 1238 190 1226 q 213 1257 190 1257 l 282 1257 q 307 1255 294 1257 q 331 1247 319 1253 l 451 1179 l 574 1247 q 597 1255 585 1253 q 621 1257 610 1257 l 692 1257 q 713 1238 713 1257 q 701 1215 713 1226 l 560 1065 q 535 1047 546 1051 q 511 1042 525 1042 l 393 1042 z "},"Ŗ":{"ha":960,"x_min":97,"x_max":918,"o":"m 132 0 q 107 10 117 0 q 97 35 97 21 l 97 938 q 107 963 97 953 q 132 972 117 972 l 510 972 q 793 890 690 972 q 896 656 896 807 q 849 489 896 557 q 724 386 801 421 l 914 44 q 918 29 918 36 q 909 9 918 18 q 889 0 900 0 l 704 0 q 665 13 678 0 q 647 38 653 26 l 489 343 l 347 343 l 347 35 q 337 10 347 21 q 311 0 326 0 l 132 0 m 347 540 l 507 540 q 605 572 572 540 q 638 658 638 604 q 606 746 638 713 q 507 779 575 779 l 347 779 l 347 540 m 367 -326 q 347 -317 354 -326 q 340 -296 340 -308 l 367 -117 q 382 -84 369 -99 q 418 -69 394 -69 l 572 -69 q 591 -78 583 -69 q 599 -97 599 -86 q 596 -112 599 -106 l 528 -287 q 511 -314 522 -301 q 476 -326 500 -326 l 367 -326 z "},"S":{"ha":921,"x_min":40,"x_max":879,"o":"m 460 -14 q 229 26 321 -14 q 90 129 138 65 q 40 265 43 193 q 49 285 40 276 q 71 294 58 294 l 246 294 q 276 288 265 294 q 294 269 286 281 q 326 229 306 249 q 379 198 346 210 q 460 186 413 186 q 581 211 540 186 q 622 279 622 236 q 600 331 622 311 q 528 366 578 350 q 397 399 479 382 q 217 456 292 421 q 104 549 143 492 q 65 693 65 607 q 113 844 65 778 q 247 949 161 911 q 451 986 333 986 q 620 961 547 986 q 743 894 693 936 q 819 806 793 853 q 846 715 844 760 q 838 695 846 704 q 817 686 831 686 l 633 686 q 607 692 618 686 q 588 710 596 697 q 544 763 579 740 q 451 786 508 786 q 356 765 390 786 q 322 699 322 743 q 341 650 322 671 q 403 614 360 629 q 524 582 447 599 q 728 523 650 558 q 842 431 806 488 q 879 290 879 375 q 825 128 879 196 q 677 23 771 60 q 460 -14 583 -14 z "},"Ś":{"ha":921,"x_min":40,"x_max":879,"o":"m 460 -14 q 229 26 321 -14 q 90 129 138 65 q 40 265 43 193 q 49 285 40 276 q 71 294 58 294 l 246 294 q 276 288 265 294 q 294 269 286 281 q 326 229 306 249 q 379 198 346 210 q 460 186 413 186 q 581 211 540 186 q 622 279 622 236 q 600 331 622 311 q 528 366 578 350 q 397 399 479 382 q 217 456 292 421 q 104 549 143 492 q 65 693 65 607 q 113 844 65 778 q 247 949 161 911 q 451 986 333 986 q 620 961 547 986 q 743 894 693 936 q 819 806 793 853 q 846 715 844 760 q 838 695 846 704 q 817 686 831 686 l 633 686 q 607 692 618 686 q 588 710 596 697 q 544 763 579 740 q 451 786 508 786 q 356 765 390 786 q 322 699 322 743 q 341 650 322 671 q 403 614 360 629 q 524 582 447 599 q 728 523 650 558 q 842 431 806 488 q 879 290 879 375 q 825 128 879 196 q 677 23 771 60 q 460 -14 583 -14 m 375 1042 q 353 1064 353 1042 q 360 1082 353 1075 l 482 1231 q 506 1252 496 1247 q 533 1257 515 1257 l 728 1257 q 754 1229 754 1257 q 747 1213 754 1219 l 563 1061 q 540 1047 551 1051 q 510 1042 529 1042 l 375 1042 z "},"Š":{"ha":921,"x_min":40,"x_max":879,"o":"m 460 -14 q 229 26 321 -14 q 90 129 138 65 q 40 265 43 193 q 49 285 40 276 q 71 294 58 294 l 246 294 q 276 288 265 294 q 294 269 286 281 q 326 229 306 249 q 379 198 346 210 q 460 186 413 186 q 581 211 540 186 q 622 279 622 236 q 600 331 622 311 q 528 366 578 350 q 397 399 479 382 q 217 456 292 421 q 104 549 143 492 q 65 693 65 607 q 113 844 65 778 q 247 949 161 911 q 451 986 333 986 q 620 961 547 986 q 743 894 693 936 q 819 806 793 853 q 846 715 844 760 q 838 695 846 704 q 817 686 831 686 l 633 686 q 607 692 618 686 q 588 710 596 697 q 544 763 579 740 q 451 786 508 786 q 356 765 390 786 q 322 699 322 743 q 341 650 322 671 q 403 614 360 629 q 524 582 447 599 q 728 523 650 558 q 842 431 806 488 q 879 290 879 375 q 825 128 879 196 q 677 23 771 60 q 460 -14 583 -14 m 403 1042 q 378 1047 389 1042 q 354 1065 368 1051 l 211 1215 q 200 1238 200 1226 q 222 1257 200 1257 l 292 1257 q 317 1255 304 1257 q 340 1247 329 1253 l 461 1179 l 583 1247 q 607 1255 594 1253 q 631 1257 619 1257 l 701 1257 q 722 1238 722 1257 q 711 1215 722 1226 l 569 1065 q 545 1047 556 1051 q 521 1042 535 1042 l 403 1042 z "},"Ş":{"ha":921,"x_min":40,"x_max":879,"o":"m 457 -306 q 389 -293 419 -306 q 346 -264 358 -281 q 347 -235 333 -247 l 372 -212 q 394 -205 385 -201 q 417 -216 403 -208 q 457 -224 431 -224 q 490 -212 478 -224 q 503 -182 503 -200 q 490 -153 503 -165 q 457 -142 478 -142 q 426 -147 440 -142 q 401 -152 413 -151 q 378 -144 389 -153 l 351 -117 q 344 -99 343 -108 q 353 -72 344 -89 l 381 -10 q 194 42 269 1 q 80 142 118 83 q 40 265 42 200 q 49 285 40 276 q 71 294 58 294 l 246 294 q 276 288 265 294 q 294 269 286 281 q 326 229 306 249 q 379 198 346 210 q 460 186 413 186 q 581 211 540 186 q 622 279 622 236 q 600 331 622 311 q 528 366 578 350 q 397 399 479 382 q 217 456 292 421 q 104 549 143 492 q 65 693 65 607 q 113 844 65 778 q 247 949 161 911 q 451 986 333 986 q 620 961 547 986 q 743 894 693 936 q 819 806 793 853 q 846 715 844 760 q 838 695 846 704 q 817 686 831 686 l 633 686 q 607 692 618 686 q 588 710 596 697 q 544 763 579 740 q 451 786 508 786 q 356 765 390 786 q 322 699 322 743 q 341 650 322 671 q 403 614 360 629 q 524 582 447 599 q 728 523 650 558 q 842 431 806 488 q 879 290 879 375 q 826 128 879 196 q 678 24 772 60 q 463 -14 585 -12 l 436 -69 q 459 -63 444 -65 q 482 -61 474 -61 q 562 -94 532 -61 q 592 -182 592 -128 q 556 -270 592 -235 q 457 -306 519 -306 z "},"Ŝ":{"ha":921,"x_min":40,"x_max":879,"o":"m 460 -14 q 229 26 321 -14 q 90 129 138 65 q 40 265 43 193 q 49 285 40 276 q 71 294 58 294 l 246 294 q 276 288 265 294 q 294 269 286 281 q 326 229 306 249 q 379 198 346 210 q 460 186 413 186 q 581 211 540 186 q 622 279 622 236 q 600 331 622 311 q 528 366 578 350 q 397 399 479 382 q 217 456 292 421 q 104 549 143 492 q 65 693 65 607 q 113 844 65 778 q 247 949 161 911 q 451 986 333 986 q 620 961 547 986 q 743 894 693 936 q 819 806 793 853 q 846 715 844 760 q 838 695 846 704 q 817 686 831 686 l 633 686 q 607 692 618 686 q 588 710 596 697 q 544 763 579 740 q 451 786 508 786 q 356 765 390 786 q 322 699 322 743 q 341 650 322 671 q 403 614 360 629 q 524 582 447 599 q 728 523 650 558 q 842 431 806 488 q 879 290 879 375 q 825 128 879 196 q 677 23 771 60 q 460 -14 583 -14 m 222 1042 q 200 1061 200 1042 q 211 1083 200 1072 l 354 1233 q 378 1253 368 1249 q 403 1257 389 1257 l 521 1257 q 545 1253 535 1257 q 569 1233 556 1249 l 711 1083 q 722 1061 722 1072 q 701 1042 722 1042 l 631 1042 q 607 1044 619 1042 q 583 1051 594 1046 l 461 1119 l 340 1051 q 317 1044 329 1046 q 292 1042 304 1042 l 222 1042 z "},"Ș":{"ha":921,"x_min":40,"x_max":879,"o":"m 460 -14 q 229 26 321 -14 q 90 129 138 65 q 40 265 43 193 q 49 285 40 276 q 71 294 58 294 l 246 294 q 276 288 265 294 q 294 269 286 281 q 326 229 306 249 q 379 198 346 210 q 460 186 413 186 q 581 211 540 186 q 622 279 622 236 q 600 331 622 311 q 528 366 578 350 q 397 399 479 382 q 217 456 292 421 q 104 549 143 492 q 65 693 65 607 q 113 844 65 778 q 247 949 161 911 q 451 986 333 986 q 620 961 547 986 q 743 894 693 936 q 819 806 793 853 q 846 715 844 760 q 838 695 846 704 q 817 686 831 686 l 633 686 q 607 692 618 686 q 588 710 596 697 q 544 763 579 740 q 451 786 508 786 q 356 765 390 786 q 322 699 322 743 q 341 650 322 671 q 403 614 360 629 q 524 582 447 599 q 728 523 650 558 q 842 431 806 488 q 879 290 879 375 q 825 128 879 196 q 677 23 771 60 q 460 -14 583 -14 m 339 -326 q 319 -317 326 -326 q 313 -296 313 -308 l 339 -117 q 354 -84 342 -99 q 390 -69 367 -69 l 544 -69 q 563 -78 556 -69 q 571 -97 571 -86 q 568 -112 571 -106 l 500 -287 q 483 -314 494 -301 q 449 -326 472 -326 l 339 -326 z "},"ẞ":{"ha":932,"x_min":83,"x_max":914,"o":"m 118 0 q 93 10 103 0 q 83 35 83 21 l 83 633 q 133 828 83 750 q 274 947 183 907 q 490 986 365 986 q 644 967 574 986 q 765 915 714 947 q 844 842 817 882 q 872 763 872 803 q 863 722 872 740 q 831 679 854 704 l 600 432 l 576 543 q 765 509 690 543 q 877 417 840 475 q 914 285 914 358 q 869 133 914 197 q 746 35 825 69 q 561 0 667 0 l 414 0 q 385 10 396 0 q 374 35 374 19 l 374 142 q 385 167 374 157 q 414 176 396 176 l 507 176 q 630 207 590 176 q 669 294 669 238 q 630 376 669 347 q 507 406 590 406 l 449 406 q 413 442 413 406 l 413 528 q 417 553 413 544 q 435 578 421 561 l 575 726 q 588 741 583 735 q 592 754 592 747 q 576 781 592 768 q 535 801 561 793 q 475 810 508 810 q 357 769 397 810 q 317 636 317 729 l 317 35 q 306 10 317 21 q 281 0 296 0 l 118 0 z "},"T":{"ha":875,"x_min":29,"x_max":846,"o":"m 346 0 q 321 10 331 0 q 311 35 311 21 l 311 754 l 64 754 q 39 765 49 754 q 29 789 29 775 l 29 938 q 39 963 29 953 q 64 972 49 972 l 811 972 q 836 963 826 972 q 846 938 846 953 l 846 789 q 836 765 846 775 q 811 754 826 754 l 564 754 l 564 35 q 554 10 564 21 q 529 0 544 0 l 346 0 z "},"Ŧ":{"ha":888,"x_min":35,"x_max":853,"o":"m 351 0 q 327 10 338 0 q 317 35 317 21 l 317 407 l 178 407 q 153 417 163 407 q 143 442 143 426 l 143 511 q 153 536 143 526 q 178 546 163 546 l 317 546 l 317 754 l 69 754 q 45 765 56 754 q 35 789 35 775 l 35 938 q 45 963 35 953 q 69 972 56 972 l 817 972 q 842 963 832 972 q 853 938 853 953 l 853 789 q 842 765 853 775 q 817 754 832 754 l 571 754 l 571 546 l 710 546 q 735 536 725 546 q 744 511 744 526 l 744 442 q 735 417 744 426 q 710 407 725 407 l 571 407 l 571 35 q 560 10 571 21 q 535 0 550 0 l 351 0 z "},"Ť":{"ha":875,"x_min":29,"x_max":846,"o":"m 346 0 q 321 10 331 0 q 311 35 311 21 l 311 754 l 64 754 q 39 765 49 754 q 29 789 29 775 l 29 938 q 39 963 29 953 q 64 972 49 972 l 811 972 q 836 963 826 972 q 846 938 846 953 l 846 789 q 836 765 846 775 q 811 754 826 754 l 564 754 l 564 35 q 554 10 564 21 q 529 0 544 0 l 346 0 m 379 1042 q 355 1047 365 1042 q 331 1065 344 1051 l 188 1215 q 176 1238 176 1226 q 199 1257 176 1257 l 268 1257 q 293 1255 281 1257 q 317 1247 306 1253 l 438 1179 l 560 1247 q 583 1255 571 1253 q 607 1257 596 1257 l 678 1257 q 699 1238 699 1257 q 688 1215 699 1226 l 546 1065 q 522 1047 532 1051 q 497 1042 511 1042 l 379 1042 z "},"Ț":{"ha":875,"x_min":29,"x_max":846,"o":"m 346 0 q 321 10 331 0 q 311 35 311 21 l 311 754 l 64 754 q 39 765 49 754 q 29 789 29 775 l 29 938 q 39 963 29 953 q 64 972 49 972 l 811 972 q 836 963 826 972 q 846 938 846 953 l 846 789 q 836 765 846 775 q 811 754 826 754 l 564 754 l 564 35 q 554 10 564 21 q 529 0 544 0 l 346 0 m 315 -326 q 296 -317 303 -326 q 289 -296 289 -308 l 315 -117 q 331 -84 318 -99 q 367 -69 343 -69 l 521 -69 q 540 -78 532 -69 q 547 -97 547 -86 q 544 -112 547 -106 l 476 -287 q 460 -314 471 -301 q 425 -326 449 -326 l 315 -326 z "},"U":{"ha":1007,"x_min":89,"x_max":919,"o":"m 506 -14 q 285 27 379 -14 q 140 153 192 68 q 89 371 89 239 l 89 938 q 99 963 89 953 q 124 972 108 972 l 303 972 q 328 963 318 972 q 339 938 339 953 l 339 372 q 382 237 339 282 q 504 192 425 192 q 626 237 582 192 q 669 372 669 282 l 669 938 q 680 963 669 953 q 704 972 690 972 l 885 972 q 909 963 899 972 q 919 938 919 953 l 919 371 q 868 153 919 239 q 724 27 817 68 q 506 -14 631 -14 z "},"Ú":{"ha":1007,"x_min":89,"x_max":919,"o":"m 506 -14 q 285 27 379 -14 q 140 153 192 68 q 89 371 89 239 l 89 938 q 99 963 89 953 q 124 972 108 972 l 303 972 q 328 963 318 972 q 339 938 339 953 l 339 372 q 382 237 339 282 q 504 192 425 192 q 626 237 582 192 q 669 372 669 282 l 669 938 q 680 963 669 953 q 704 972 690 972 l 885 972 q 909 963 899 972 q 919 938 919 953 l 919 371 q 868 153 919 239 q 724 27 817 68 q 506 -14 631 -14 m 418 1042 q 396 1064 396 1042 q 403 1082 396 1075 l 525 1231 q 549 1252 539 1247 q 576 1257 558 1257 l 771 1257 q 797 1229 797 1257 q 790 1213 797 1219 l 606 1061 q 583 1047 594 1051 q 553 1042 572 1042 l 418 1042 z "},"Ŭ":{"ha":1007,"x_min":89,"x_max":919,"o":"m 506 -14 q 285 27 379 -14 q 140 153 192 68 q 89 371 89 239 l 89 938 q 99 963 89 953 q 124 972 108 972 l 303 972 q 328 963 318 972 q 339 938 339 953 l 339 372 q 382 237 339 282 q 504 192 425 192 q 626 237 582 192 q 669 372 669 282 l 669 938 q 680 963 669 953 q 704 972 690 972 l 885 972 q 909 963 899 972 q 919 938 919 953 l 919 371 q 868 153 919 239 q 724 27 817 68 q 506 -14 631 -14 m 504 1032 q 382 1059 429 1032 q 313 1131 335 1086 q 292 1228 292 1175 q 299 1247 292 1239 q 318 1254 306 1254 l 411 1254 q 431 1247 424 1254 q 438 1228 438 1239 q 451 1171 438 1196 q 504 1146 464 1146 q 558 1171 544 1146 q 572 1228 572 1196 q 579 1247 572 1239 q 599 1254 586 1254 l 692 1254 q 711 1247 704 1254 q 718 1228 718 1239 q 697 1131 718 1175 q 628 1059 675 1086 q 504 1032 581 1032 z "},"Û":{"ha":1007,"x_min":89,"x_max":919,"o":"m 506 -14 q 285 27 379 -14 q 140 153 192 68 q 89 371 89 239 l 89 938 q 99 963 89 953 q 124 972 108 972 l 303 972 q 328 963 318 972 q 339 938 339 953 l 339 372 q 382 237 339 282 q 504 192 425 192 q 626 237 582 192 q 669 372 669 282 l 669 938 q 680 963 669 953 q 704 972 690 972 l 885 972 q 909 963 899 972 q 919 938 919 953 l 919 371 q 868 153 919 239 q 724 27 817 68 q 506 -14 631 -14 m 265 1042 q 243 1061 243 1042 q 254 1083 243 1072 l 397 1233 q 422 1253 411 1249 q 446 1257 432 1257 l 564 1257 q 588 1253 578 1257 q 613 1233 599 1249 l 754 1083 q 765 1061 765 1072 q 744 1042 765 1042 l 674 1042 q 650 1044 663 1042 q 626 1051 638 1046 l 504 1119 l 383 1051 q 360 1044 372 1046 q 335 1042 347 1042 l 265 1042 z "},"Ü":{"ha":1007,"x_min":89,"x_max":919,"o":"m 506 -14 q 285 27 379 -14 q 140 153 192 68 q 89 371 89 239 l 89 938 q 99 963 89 953 q 124 972 108 972 l 303 972 q 328 963 318 972 q 339 938 339 953 l 339 372 q 382 237 339 282 q 504 192 425 192 q 626 237 582 192 q 669 372 669 282 l 669 938 q 680 963 669 953 q 704 972 690 972 l 885 972 q 909 963 899 972 q 919 938 919 953 l 919 371 q 868 153 919 239 q 724 27 817 68 q 506 -14 631 -14 m 604 1042 q 581 1050 590 1042 q 572 1074 572 1058 l 572 1200 q 581 1223 572 1214 q 604 1232 590 1232 l 732 1232 q 755 1223 746 1232 q 764 1200 764 1214 l 764 1074 q 755 1050 764 1058 q 732 1042 746 1042 l 604 1042 m 275 1042 q 253 1050 261 1042 q 244 1074 244 1058 l 244 1200 q 253 1223 244 1214 q 275 1232 261 1232 l 403 1232 q 426 1223 417 1232 q 435 1200 435 1214 l 435 1074 q 426 1050 435 1058 q 403 1042 417 1042 l 275 1042 z "},"Ù":{"ha":1007,"x_min":89,"x_max":919,"o":"m 506 -14 q 285 27 379 -14 q 140 153 192 68 q 89 371 89 239 l 89 938 q 99 963 89 953 q 124 972 108 972 l 303 972 q 328 963 318 972 q 339 938 339 953 l 339 372 q 382 237 339 282 q 504 192 425 192 q 626 237 582 192 q 669 372 669 282 l 669 938 q 680 963 669 953 q 704 972 690 972 l 885 972 q 909 963 899 972 q 919 938 919 953 l 919 371 q 868 153 919 239 q 724 27 817 68 q 506 -14 631 -14 m 461 1042 q 431 1047 442 1042 q 408 1061 419 1051 l 224 1213 q 217 1229 217 1219 q 243 1257 217 1257 l 438 1257 q 465 1252 454 1257 q 489 1231 475 1247 l 611 1082 q 618 1064 618 1075 q 596 1042 618 1042 l 461 1042 z "},"Ű":{"ha":1007,"x_min":89,"x_max":919,"o":"m 506 -14 q 285 27 379 -14 q 140 153 192 68 q 89 371 89 239 l 89 938 q 99 963 89 953 q 124 972 108 972 l 303 972 q 328 963 318 972 q 339 938 339 953 l 339 372 q 382 237 339 282 q 504 192 425 192 q 626 237 582 192 q 669 372 669 282 l 669 938 q 680 963 669 953 q 704 972 690 972 l 885 972 q 909 963 899 972 q 919 938 919 953 l 919 371 q 868 153 919 239 q 724 27 817 68 q 506 -14 631 -14 m 599 1042 q 576 1064 576 1042 q 579 1075 576 1069 q 583 1085 582 1081 l 649 1231 q 700 1257 661 1257 l 858 1257 q 886 1231 886 1257 q 878 1213 886 1221 l 742 1061 q 696 1042 725 1042 l 599 1042 m 310 1042 q 288 1064 288 1042 q 290 1075 288 1069 q 294 1085 293 1081 l 360 1231 q 411 1257 372 1257 l 568 1257 q 596 1231 596 1257 q 588 1213 596 1221 l 451 1061 q 407 1042 435 1042 l 310 1042 z "},"Ū":{"ha":1007,"x_min":89,"x_max":919,"o":"m 506 -14 q 285 27 379 -14 q 140 153 192 68 q 89 371 89 239 l 89 938 q 99 963 89 953 q 124 972 108 972 l 303 972 q 328 963 318 972 q 339 938 339 953 l 339 372 q 382 237 339 282 q 504 192 425 192 q 626 237 582 192 q 669 372 669 282 l 669 938 q 680 963 669 953 q 704 972 690 972 l 885 972 q 909 963 899 972 q 919 938 919 953 l 919 371 q 868 153 919 239 q 724 27 817 68 q 506 -14 631 -14 m 288 1042 q 265 1050 274 1042 q 257 1074 257 1058 l 257 1175 q 265 1198 257 1189 q 288 1207 274 1207 l 718 1207 q 742 1198 733 1207 q 750 1175 750 1189 l 750 1074 q 742 1050 750 1058 q 718 1042 733 1042 l 288 1042 z "},"Ų":{"ha":1007,"x_min":89,"x_max":919,"o":"m 610 -306 q 489 -276 538 -306 q 416 -197 440 -247 q 392 -85 392 -147 q 394 -42 392 -61 q 403 -6 397 -22 q 174 107 258 15 q 89 371 89 199 l 89 938 q 99 963 89 953 q 124 972 108 972 l 303 972 q 328 963 318 972 q 339 938 339 953 l 339 372 q 382 237 339 282 q 504 192 425 192 q 626 237 582 192 q 669 372 669 282 l 669 938 q 680 963 669 953 q 704 972 690 972 l 885 972 q 909 963 899 972 q 919 938 919 953 l 919 371 q 881 178 919 256 q 771 55 842 100 q 604 -7 700 10 q 549 -33 567 -14 q 532 -85 532 -53 q 553 -144 532 -119 q 615 -169 574 -169 l 632 -169 q 657 -180 647 -169 q 667 -204 667 -190 l 667 -271 q 657 -295 667 -285 q 632 -306 647 -306 l 610 -306 z "},"Ů":{"ha":1007,"x_min":89,"x_max":919,"o":"m 506 -14 q 285 27 379 -14 q 140 153 192 68 q 89 371 89 239 l 89 938 q 99 963 89 953 q 124 972 108 972 l 303 972 q 328 963 318 972 q 339 938 339 953 l 339 372 q 382 237 339 282 q 504 192 425 192 q 626 237 582 192 q 669 372 669 282 l 669 938 q 680 963 669 953 q 704 972 690 972 l 885 972 q 909 963 899 972 q 919 938 919 953 l 919 371 q 868 153 919 239 q 724 27 817 68 q 506 -14 631 -14 m 504 1028 q 414 1063 451 1028 q 376 1150 376 1097 q 414 1237 376 1203 q 504 1271 451 1271 q 595 1237 557 1271 q 633 1150 633 1203 q 595 1063 633 1097 q 504 1028 557 1028 m 504 1108 q 534 1120 522 1108 q 546 1150 546 1132 q 534 1180 546 1168 q 504 1192 522 1192 q 474 1180 486 1192 q 463 1150 463 1168 q 474 1120 463 1132 q 504 1108 486 1108 z "},"Ũ":{"ha":1007,"x_min":89,"x_max":919,"o":"m 506 -14 q 285 27 379 -14 q 140 153 192 68 q 89 371 89 239 l 89 938 q 99 963 89 953 q 124 972 108 972 l 303 972 q 328 963 318 972 q 339 938 339 953 l 339 372 q 382 237 339 282 q 504 192 425 192 q 626 237 582 192 q 669 372 669 282 l 669 938 q 680 963 669 953 q 704 972 690 972 l 885 972 q 909 963 899 972 q 919 938 919 953 l 919 371 q 868 153 919 239 q 724 27 817 68 q 506 -14 631 -14 m 588 1035 q 525 1047 550 1035 q 480 1072 500 1060 q 435 1083 460 1083 q 408 1074 417 1083 q 392 1053 399 1064 q 369 1042 385 1042 l 286 1042 q 269 1049 276 1042 q 263 1065 263 1057 q 270 1118 263 1088 q 297 1177 278 1149 q 345 1224 315 1206 q 418 1243 375 1243 q 482 1231 457 1243 q 528 1206 507 1218 q 572 1193 549 1193 q 599 1204 592 1193 q 614 1226 607 1215 q 636 1236 621 1236 l 719 1236 q 738 1228 732 1236 q 744 1211 744 1221 q 736 1159 744 1189 q 710 1101 728 1129 q 661 1053 692 1072 q 588 1035 631 1035 z "},"V":{"ha":963,"x_min":32,"x_max":931,"o":"m 375 0 q 338 13 351 0 q 318 42 324 25 l 35 931 q 32 943 32 938 q 41 963 32 954 q 63 972 50 972 l 235 972 q 269 960 257 972 q 285 936 282 947 l 482 294 l 678 936 q 694 960 682 947 q 728 972 706 972 l 901 972 q 922 963 913 972 q 931 943 931 954 q 928 931 931 938 l 644 42 q 626 13 640 25 q 588 0 613 0 l 375 0 z "},"W":{"ha":1154,"x_min":46,"x_max":1108,"o":"m 253 0 q 215 14 229 0 q 199 46 201 28 l 47 933 q 46 940 46 938 q 46 943 46 942 q 55 963 46 954 q 75 972 64 972 l 247 972 q 290 942 286 972 l 381 400 l 481 719 q 494 744 485 731 q 526 757 504 757 l 626 757 q 660 744 650 757 q 672 719 669 731 l 772 400 l 863 942 q 906 972 867 972 l 1078 972 q 1099 963 1090 972 q 1108 943 1108 954 q 1108 940 1108 942 q 1107 933 1107 938 l 956 46 q 939 14 953 28 q 901 0 925 0 l 769 0 q 733 13 746 0 q 717 36 721 25 l 576 433 l 436 36 q 420 13 432 25 q 385 0 408 0 l 253 0 z "},"Ẃ":{"ha":1154,"x_min":46,"x_max":1108,"o":"m 253 0 q 215 14 229 0 q 199 46 201 28 l 47 933 q 46 940 46 938 q 46 943 46 942 q 55 963 46 954 q 75 972 64 972 l 247 972 q 290 942 286 972 l 381 400 l 481 719 q 494 744 485 731 q 526 757 504 757 l 626 757 q 660 744 650 757 q 672 719 669 731 l 772 400 l 863 942 q 906 972 867 972 l 1078 972 q 1099 963 1090 972 q 1108 943 1108 954 q 1108 940 1108 942 q 1107 933 1107 938 l 956 46 q 939 14 953 28 q 901 0 925 0 l 769 0 q 733 13 746 0 q 717 36 721 25 l 576 433 l 436 36 q 420 13 432 25 q 385 0 408 0 l 253 0 m 490 1042 q 468 1064 468 1042 q 475 1082 468 1075 l 597 1231 q 621 1252 611 1247 q 649 1257 631 1257 l 843 1257 q 869 1229 869 1257 q 863 1213 869 1219 l 678 1061 q 656 1047 667 1051 q 625 1042 644 1042 l 490 1042 z "},"Ŵ":{"ha":1154,"x_min":46,"x_max":1108,"o":"m 253 0 q 215 14 229 0 q 199 46 201 28 l 47 933 q 46 940 46 938 q 46 943 46 942 q 55 963 46 954 q 75 972 64 972 l 247 972 q 290 942 286 972 l 381 400 l 481 719 q 494 744 485 731 q 526 757 504 757 l 626 757 q 660 744 650 757 q 672 719 669 731 l 772 400 l 863 942 q 906 972 867 972 l 1078 972 q 1099 963 1090 972 q 1108 943 1108 954 q 1108 940 1108 942 q 1107 933 1107 938 l 956 46 q 939 14 953 28 q 901 0 925 0 l 769 0 q 733 13 746 0 q 717 36 721 25 l 576 433 l 436 36 q 420 13 432 25 q 385 0 408 0 l 253 0 m 338 1042 q 315 1061 315 1042 q 326 1083 315 1072 l 469 1233 q 494 1253 483 1249 q 518 1257 504 1257 l 636 1257 q 660 1253 650 1257 q 685 1233 671 1249 l 826 1083 q 838 1061 838 1072 q 817 1042 838 1042 l 746 1042 q 722 1044 735 1042 q 699 1051 710 1046 l 576 1119 l 456 1051 q 432 1044 444 1046 q 407 1042 419 1042 l 338 1042 z "},"Ẅ":{"ha":1154,"x_min":46,"x_max":1108,"o":"m 253 0 q 215 14 229 0 q 199 46 201 28 l 47 933 q 46 940 46 938 q 46 943 46 942 q 55 963 46 954 q 75 972 64 972 l 247 972 q 290 942 286 972 l 381 400 l 481 719 q 494 744 485 731 q 526 757 504 757 l 626 757 q 660 744 650 757 q 672 719 669 731 l 772 400 l 863 942 q 906 972 867 972 l 1078 972 q 1099 963 1090 972 q 1108 943 1108 954 q 1108 940 1108 942 q 1107 933 1107 938 l 956 46 q 939 14 953 28 q 901 0 925 0 l 769 0 q 733 13 746 0 q 717 36 721 25 l 576 433 l 436 36 q 420 13 432 25 q 385 0 408 0 l 253 0 m 676 1042 q 653 1050 663 1042 q 644 1074 644 1058 l 644 1200 q 653 1223 644 1214 q 676 1232 663 1232 l 804 1232 q 827 1223 818 1232 q 836 1200 836 1214 l 836 1074 q 827 1050 836 1058 q 804 1042 818 1042 l 676 1042 m 347 1042 q 325 1050 333 1042 q 317 1074 317 1058 l 317 1200 q 325 1223 317 1214 q 347 1232 333 1232 l 475 1232 q 498 1223 489 1232 q 507 1200 507 1214 l 507 1074 q 498 1050 507 1058 q 475 1042 489 1042 l 347 1042 z "},"Ẁ":{"ha":1154,"x_min":46,"x_max":1108,"o":"m 253 0 q 215 14 229 0 q 199 46 201 28 l 47 933 q 46 940 46 938 q 46 943 46 942 q 55 963 46 954 q 75 972 64 972 l 247 972 q 290 942 286 972 l 381 400 l 481 719 q 494 744 485 731 q 526 757 504 757 l 626 757 q 660 744 650 757 q 672 719 669 731 l 772 400 l 863 942 q 906 972 867 972 l 1078 972 q 1099 963 1090 972 q 1108 943 1108 954 q 1108 940 1108 942 q 1107 933 1107 938 l 956 46 q 939 14 953 28 q 901 0 925 0 l 769 0 q 733 13 746 0 q 717 36 721 25 l 576 433 l 436 36 q 420 13 432 25 q 385 0 408 0 l 253 0 m 533 1042 q 503 1047 514 1042 q 481 1061 492 1051 l 296 1213 q 289 1229 289 1219 q 315 1257 289 1257 l 510 1257 q 537 1252 526 1257 q 561 1231 547 1247 l 683 1082 q 690 1064 690 1075 q 668 1042 690 1042 l 533 1042 z "},"X":{"ha":958,"x_min":15,"x_max":943,"o":"m 46 0 q 24 9 33 0 q 15 29 15 18 q 17 38 15 33 q 21 46 18 42 l 324 496 l 43 926 q 39 943 39 935 q 47 963 39 954 q 68 972 56 972 l 269 972 q 301 962 290 972 q 318 943 313 951 l 483 692 l 651 943 q 668 962 657 951 q 700 972 679 972 l 892 972 q 912 963 903 972 q 921 943 921 954 q 915 926 921 933 l 633 497 l 939 46 q 942 38 942 42 q 943 29 943 33 q 935 9 943 18 q 914 0 926 0 l 707 0 q 674 10 686 0 q 658 28 663 21 l 475 294 l 293 28 q 278 10 289 21 q 246 0 267 0 l 46 0 z "},"Y":{"ha":946,"x_min":21,"x_max":924,"o":"m 382 0 q 358 10 368 0 q 347 35 347 21 l 347 333 l 25 928 q 22 935 24 932 q 21 943 21 939 q 30 963 21 954 q 51 972 39 972 l 225 972 q 258 962 246 972 q 274 943 269 951 l 472 585 l 672 943 q 688 962 676 951 q 721 972 700 972 l 894 972 q 915 963 907 972 q 924 943 924 954 q 923 935 924 939 q 921 928 922 932 l 599 333 l 599 35 q 588 10 599 21 q 563 0 578 0 l 382 0 z "},"Ý":{"ha":946,"x_min":21,"x_max":924,"o":"m 382 0 q 358 10 368 0 q 347 35 347 21 l 347 333 l 25 928 q 22 935 24 932 q 21 943 21 939 q 30 963 21 954 q 51 972 39 972 l 225 972 q 258 962 246 972 q 274 943 269 951 l 472 585 l 672 943 q 688 962 676 951 q 721 972 700 972 l 894 972 q 915 963 907 972 q 924 943 924 954 q 923 935 924 939 q 921 928 922 932 l 599 333 l 599 35 q 588 10 599 21 q 563 0 578 0 l 382 0 m 386 1042 q 364 1064 364 1042 q 371 1082 364 1075 l 493 1231 q 517 1252 507 1247 q 544 1257 526 1257 l 739 1257 q 765 1229 765 1257 q 758 1213 765 1219 l 574 1061 q 551 1047 563 1051 q 521 1042 540 1042 l 386 1042 z "},"Ŷ":{"ha":946,"x_min":21,"x_max":924,"o":"m 382 0 q 358 10 368 0 q 347 35 347 21 l 347 333 l 25 928 q 22 935 24 932 q 21 943 21 939 q 30 963 21 954 q 51 972 39 972 l 225 972 q 258 962 246 972 q 274 943 269 951 l 472 585 l 672 943 q 688 962 676 951 q 721 972 700 972 l 894 972 q 915 963 907 972 q 924 943 924 954 q 923 935 924 939 q 921 928 922 932 l 599 333 l 599 35 q 588 10 599 21 q 563 0 578 0 l 382 0 m 233 1042 q 211 1061 211 1042 q 222 1083 211 1072 l 365 1233 q 390 1253 379 1249 q 414 1257 400 1257 l 532 1257 q 556 1253 546 1257 q 581 1233 567 1249 l 722 1083 q 733 1061 733 1072 q 713 1042 733 1042 l 642 1042 q 618 1044 631 1042 q 594 1051 606 1046 l 472 1119 l 351 1051 q 328 1044 340 1046 q 303 1042 315 1042 l 233 1042 z "},"Ÿ":{"ha":946,"x_min":21,"x_max":924,"o":"m 382 0 q 358 10 368 0 q 347 35 347 21 l 347 333 l 25 928 q 22 935 24 932 q 21 943 21 939 q 30 963 21 954 q 51 972 39 972 l 225 972 q 258 962 246 972 q 274 943 269 951 l 472 585 l 672 943 q 688 962 676 951 q 721 972 700 972 l 894 972 q 915 963 907 972 q 924 943 924 954 q 923 935 924 939 q 921 928 922 932 l 599 333 l 599 35 q 588 10 599 21 q 563 0 578 0 l 382 0 m 574 1042 q 551 1050 560 1042 q 542 1074 542 1058 l 542 1200 q 551 1223 542 1214 q 574 1232 560 1232 l 701 1232 q 724 1223 715 1232 q 733 1200 733 1214 l 733 1074 q 724 1050 733 1058 q 701 1042 715 1042 l 574 1042 m 244 1042 q 222 1050 231 1042 q 214 1074 214 1058 l 214 1200 q 222 1223 214 1214 q 244 1232 231 1232 l 372 1232 q 395 1223 386 1232 q 404 1200 404 1214 l 404 1074 q 395 1050 404 1058 q 372 1042 386 1042 l 244 1042 z "},"Ỳ":{"ha":946,"x_min":21,"x_max":924,"o":"m 382 0 q 358 10 368 0 q 347 35 347 21 l 347 333 l 25 928 q 22 935 24 932 q 21 943 21 939 q 30 963 21 954 q 51 972 39 972 l 225 972 q 258 962 246 972 q 274 943 269 951 l 472 585 l 672 943 q 688 962 676 951 q 721 972 700 972 l 894 972 q 915 963 907 972 q 924 943 924 954 q 923 935 924 939 q 921 928 922 932 l 599 333 l 599 35 q 588 10 599 21 q 563 0 578 0 l 382 0 m 429 1042 q 399 1047 410 1042 q 376 1061 388 1051 l 192 1213 q 185 1229 185 1219 q 211 1257 185 1257 l 406 1257 q 433 1252 422 1257 q 457 1231 443 1247 l 579 1082 q 586 1064 586 1075 q 564 1042 586 1042 l 429 1042 z "},"Z":{"ha":903,"x_min":53,"x_max":853,"o":"m 88 0 q 63 10 72 0 q 53 36 53 21 l 53 171 q 60 203 53 190 q 74 221 68 215 l 521 765 l 100 765 q 76 775 86 765 q 65 800 65 785 l 65 938 q 76 963 65 953 q 100 972 86 972 l 801 972 q 826 963 817 972 q 836 938 836 953 l 836 803 q 831 776 836 788 q 818 756 826 765 l 383 210 l 817 210 q 842 199 832 210 q 853 174 853 189 l 853 35 q 842 10 853 21 q 817 0 832 0 l 88 0 z "},"Ź":{"ha":903,"x_min":53,"x_max":853,"o":"m 88 0 q 63 10 72 0 q 53 36 53 21 l 53 171 q 60 203 53 190 q 74 221 68 215 l 521 765 l 100 765 q 76 775 86 765 q 65 800 65 785 l 65 938 q 76 963 65 953 q 100 972 86 972 l 801 972 q 826 963 817 972 q 836 938 836 953 l 836 803 q 831 776 836 788 q 818 756 826 765 l 383 210 l 817 210 q 842 199 832 210 q 853 174 853 189 l 853 35 q 842 10 853 21 q 817 0 832 0 l 88 0 m 353 1042 q 331 1064 331 1042 q 338 1082 331 1075 l 460 1231 q 483 1252 474 1247 q 511 1257 493 1257 l 706 1257 q 732 1229 732 1257 q 725 1213 732 1219 l 540 1061 q 518 1047 529 1051 q 488 1042 507 1042 l 353 1042 z "},"Ž":{"ha":903,"x_min":53,"x_max":853,"o":"m 88 0 q 63 10 72 0 q 53 36 53 21 l 53 171 q 60 203 53 190 q 74 221 68 215 l 521 765 l 100 765 q 76 775 86 765 q 65 800 65 785 l 65 938 q 76 963 65 953 q 100 972 86 972 l 801 972 q 826 963 817 972 q 836 938 836 953 l 836 803 q 831 776 836 788 q 818 756 826 765 l 383 210 l 817 210 q 842 199 832 210 q 853 174 853 189 l 853 35 q 842 10 853 21 q 817 0 832 0 l 88 0 m 381 1042 q 356 1047 367 1042 q 332 1065 346 1051 l 189 1215 q 178 1238 178 1226 q 200 1257 178 1257 l 269 1257 q 294 1255 282 1257 q 318 1247 307 1253 l 439 1179 l 561 1247 q 585 1255 572 1253 q 608 1257 597 1257 l 679 1257 q 700 1238 700 1257 q 689 1215 700 1226 l 547 1065 q 523 1047 533 1051 q 499 1042 513 1042 l 381 1042 z "},"Ż":{"ha":903,"x_min":53,"x_max":853,"o":"m 88 0 q 63 10 72 0 q 53 36 53 21 l 53 171 q 60 203 53 190 q 74 221 68 215 l 521 765 l 100 765 q 76 775 86 765 q 65 800 65 785 l 65 938 q 76 963 65 953 q 100 972 86 972 l 801 972 q 826 963 817 972 q 836 938 836 953 l 836 803 q 831 776 836 788 q 818 756 826 765 l 383 210 l 817 210 q 842 199 832 210 q 853 174 853 189 l 853 35 q 842 10 853 21 q 817 0 832 0 l 88 0 m 367 1042 q 344 1050 353 1042 q 336 1074 336 1058 l 336 1217 q 344 1240 336 1231 q 367 1249 353 1249 l 510 1249 q 533 1240 524 1249 q 542 1217 542 1231 l 542 1074 q 533 1050 542 1058 q 510 1042 524 1042 l 367 1042 z "},"a":{"ha":819,"x_min":36,"x_max":744,"o":"m 299 -14 q 165 15 224 -14 q 71 92 106 43 q 36 201 36 140 q 117 358 36 300 q 331 436 197 415 l 504 463 l 504 482 q 483 558 504 532 q 407 585 463 585 q 344 569 368 585 q 306 528 319 554 q 271 510 293 510 l 115 510 q 92 519 100 510 q 85 540 83 528 q 103 598 85 565 q 161 663 122 631 q 261 715 200 694 q 410 736 322 736 q 563 715 499 736 q 667 657 626 694 q 726 569 707 619 q 744 457 744 518 l 744 35 q 734 10 744 21 q 710 0 724 0 l 549 0 q 524 10 533 0 q 514 35 514 21 l 514 83 q 465 35 496 57 q 394 -1 435 13 q 299 -14 353 -14 m 364 144 q 437 162 404 144 q 488 216 469 179 q 507 308 507 253 l 507 328 l 389 307 q 294 273 324 296 q 264 219 264 250 q 278 179 264 196 q 315 153 292 163 q 364 144 338 144 z "},"á":{"ha":819,"x_min":36,"x_max":744,"o":"m 299 -14 q 165 15 224 -14 q 71 92 106 43 q 36 201 36 140 q 117 358 36 300 q 331 436 197 415 l 504 463 l 504 482 q 483 558 504 532 q 407 585 463 585 q 344 569 368 585 q 306 528 319 554 q 271 510 293 510 l 115 510 q 92 519 100 510 q 85 540 83 528 q 103 598 85 565 q 161 663 122 631 q 261 715 200 694 q 410 736 322 736 q 563 715 499 736 q 667 657 626 694 q 726 569 707 619 q 744 457 744 518 l 744 35 q 734 10 744 21 q 710 0 724 0 l 549 0 q 524 10 533 0 q 514 35 514 21 l 514 83 q 465 35 496 57 q 394 -1 435 13 q 299 -14 353 -14 m 364 144 q 437 162 404 144 q 488 216 469 179 q 507 308 507 253 l 507 328 l 389 307 q 294 273 324 296 q 264 219 264 250 q 278 179 264 196 q 315 153 292 163 q 364 144 338 144 m 326 826 q 304 849 304 826 q 311 867 304 860 l 433 1015 q 457 1037 447 1032 q 485 1042 467 1042 l 668 1042 q 694 1014 694 1042 q 688 997 694 1004 l 503 846 q 481 831 492 836 q 450 826 469 826 l 326 826 z "},"ă":{"ha":819,"x_min":36,"x_max":744,"o":"m 299 -14 q 165 15 224 -14 q 71 92 106 43 q 36 201 36 140 q 117 358 36 300 q 331 436 197 415 l 504 463 l 504 482 q 483 558 504 532 q 407 585 463 585 q 344 569 368 585 q 306 528 319 554 q 271 510 293 510 l 115 510 q 92 519 100 510 q 85 540 83 528 q 103 598 85 565 q 161 663 122 631 q 261 715 200 694 q 410 736 322 736 q 563 715 499 736 q 667 657 626 694 q 726 569 707 619 q 744 457 744 518 l 744 35 q 734 10 744 21 q 710 0 724 0 l 549 0 q 524 10 533 0 q 514 35 514 21 l 514 83 q 465 35 496 57 q 394 -1 435 13 q 299 -14 353 -14 m 364 144 q 437 162 404 144 q 488 216 469 179 q 507 308 507 253 l 507 328 l 389 307 q 294 273 324 296 q 264 219 264 250 q 278 179 264 196 q 315 153 292 163 q 364 144 338 144 m 407 819 q 290 846 336 819 q 222 917 244 872 q 200 1015 200 961 q 207 1034 200 1026 q 226 1042 214 1042 l 317 1042 q 336 1034 329 1042 q 343 1015 343 1026 q 357 958 343 983 q 407 933 371 933 q 459 958 446 933 q 472 1015 472 983 q 479 1034 472 1026 q 499 1042 486 1042 l 588 1042 q 607 1034 600 1042 q 614 1015 614 1026 q 592 917 614 961 q 524 846 569 872 q 407 819 478 819 z "},"â":{"ha":819,"x_min":36,"x_max":744,"o":"m 299 -14 q 165 15 224 -14 q 71 92 106 43 q 36 201 36 140 q 117 358 36 300 q 331 436 197 415 l 504 463 l 504 482 q 483 558 504 532 q 407 585 463 585 q 344 569 368 585 q 306 528 319 554 q 271 510 293 510 l 115 510 q 92 519 100 510 q 85 540 83 528 q 103 598 85 565 q 161 663 122 631 q 261 715 200 694 q 410 736 322 736 q 563 715 499 736 q 667 657 626 694 q 726 569 707 619 q 744 457 744 518 l 744 35 q 734 10 744 21 q 710 0 724 0 l 549 0 q 524 10 533 0 q 514 35 514 21 l 514 83 q 465 35 496 57 q 394 -1 435 13 q 299 -14 353 -14 m 364 144 q 437 162 404 144 q 488 216 469 179 q 507 308 507 253 l 507 328 l 389 307 q 294 273 324 296 q 264 219 264 250 q 278 179 264 196 q 315 153 292 163 q 364 144 338 144 m 172 826 q 151 846 151 826 q 161 868 151 857 l 304 1018 q 328 1038 318 1033 q 353 1042 339 1042 l 463 1042 q 487 1038 476 1042 q 511 1018 497 1033 l 653 868 q 664 846 664 857 q 643 826 664 826 l 576 826 q 553 828 565 826 q 529 836 540 831 l 407 904 l 286 836 q 263 828 275 831 q 238 826 250 826 l 172 826 z "},"ä":{"ha":819,"x_min":36,"x_max":744,"o":"m 299 -14 q 165 15 224 -14 q 71 92 106 43 q 36 201 36 140 q 117 358 36 300 q 331 436 197 415 l 504 463 l 504 482 q 483 558 504 532 q 407 585 463 585 q 344 569 368 585 q 306 528 319 554 q 271 510 293 510 l 115 510 q 92 519 100 510 q 85 540 83 528 q 103 598 85 565 q 161 663 122 631 q 261 715 200 694 q 410 736 322 736 q 563 715 499 736 q 667 657 626 694 q 726 569 707 619 q 744 457 744 518 l 744 35 q 734 10 744 21 q 710 0 724 0 l 549 0 q 524 10 533 0 q 514 35 514 21 l 514 83 q 465 35 496 57 q 394 -1 435 13 q 299 -14 353 -14 m 364 144 q 437 162 404 144 q 488 216 469 179 q 507 308 507 253 l 507 328 l 389 307 q 294 273 324 296 q 264 219 264 250 q 278 179 264 196 q 315 153 292 163 q 364 144 338 144 m 486 843 q 463 851 472 843 q 454 875 454 860 l 454 1001 q 463 1024 454 1015 q 486 1033 472 1033 l 614 1033 q 637 1024 628 1033 q 646 1001 646 1015 l 646 875 q 637 851 646 860 q 614 843 628 843 l 486 843 m 199 843 q 176 851 185 843 q 168 875 168 860 l 168 1001 q 176 1024 168 1015 q 199 1033 185 1033 l 326 1033 q 349 1024 340 1033 q 358 1001 358 1015 l 358 875 q 349 851 358 860 q 326 843 340 843 l 199 843 z "},"à":{"ha":819,"x_min":36,"x_max":744,"o":"m 299 -14 q 165 15 224 -14 q 71 92 106 43 q 36 201 36 140 q 117 358 36 300 q 331 436 197 415 l 504 463 l 504 482 q 483 558 504 532 q 407 585 463 585 q 344 569 368 585 q 306 528 319 554 q 271 510 293 510 l 115 510 q 92 519 100 510 q 85 540 83 528 q 103 598 85 565 q 161 663 122 631 q 261 715 200 694 q 410 736 322 736 q 563 715 499 736 q 667 657 626 694 q 726 569 707 619 q 744 457 744 518 l 744 35 q 734 10 744 21 q 710 0 724 0 l 549 0 q 524 10 533 0 q 514 35 514 21 l 514 83 q 465 35 496 57 q 394 -1 435 13 q 299 -14 353 -14 m 364 144 q 437 162 404 144 q 488 216 469 179 q 507 308 507 253 l 507 328 l 389 307 q 294 273 324 296 q 264 219 264 250 q 278 179 264 196 q 315 153 292 163 q 364 144 338 144 m 368 826 q 338 831 349 826 q 315 846 326 836 l 131 997 q 124 1015 124 1004 q 150 1042 124 1042 l 333 1042 q 361 1037 351 1042 q 385 1015 371 1032 l 507 867 q 514 849 514 860 q 492 826 514 826 l 368 826 z "},"ā":{"ha":819,"x_min":36,"x_max":744,"o":"m 299 -14 q 165 15 224 -14 q 71 92 106 43 q 36 201 36 140 q 117 358 36 300 q 331 436 197 415 l 504 463 l 504 482 q 483 558 504 532 q 407 585 463 585 q 344 569 368 585 q 306 528 319 554 q 271 510 293 510 l 115 510 q 92 519 100 510 q 85 540 83 528 q 103 598 85 565 q 161 663 122 631 q 261 715 200 694 q 410 736 322 736 q 563 715 499 736 q 667 657 626 694 q 726 569 707 619 q 744 457 744 518 l 744 35 q 734 10 744 21 q 710 0 724 0 l 549 0 q 524 10 533 0 q 514 35 514 21 l 514 83 q 465 35 496 57 q 394 -1 435 13 q 299 -14 353 -14 m 364 144 q 437 162 404 144 q 488 216 469 179 q 507 308 507 253 l 507 328 l 389 307 q 294 273 324 296 q 264 219 264 250 q 278 179 264 196 q 315 153 292 163 q 364 144 338 144 m 213 840 q 190 849 199 840 q 182 872 182 857 l 182 969 q 190 992 182 983 q 213 1001 199 1001 l 600 1001 q 623 992 614 1001 q 632 969 632 983 l 632 872 q 623 849 632 857 q 600 840 614 840 l 213 840 z "},"ą":{"ha":819,"x_min":36,"x_max":744,"o":"m 693 -306 q 578 -278 625 -306 q 508 -201 532 -250 q 485 -89 485 -151 q 492 -45 485 -65 q 510 -8 500 -25 q 531 18 521 8 q 519 28 524 21 q 514 43 514 35 l 514 83 q 465 35 496 57 q 394 -1 435 13 q 299 -14 353 -14 q 165 15 224 -14 q 71 92 106 43 q 36 201 36 140 q 117 358 36 300 q 331 436 197 415 l 504 463 l 504 482 q 483 558 504 532 q 407 585 463 585 q 352 572 374 585 q 315 545 331 560 q 282 521 300 531 q 276 513 279 515 q 267 510 272 510 l 115 510 q 92 519 101 510 q 85 540 83 528 q 103 598 85 565 q 161 663 122 631 q 261 715 200 694 q 410 736 322 736 q 563 715 499 736 q 667 657 626 694 q 726 569 707 619 q 744 457 744 518 l 744 35 q 736 13 744 22 q 714 0 728 3 l 699 0 q 642 -34 660 -10 q 625 -89 625 -58 q 642 -147 625 -124 q 699 -169 660 -169 l 710 -169 q 734 -180 724 -169 q 744 -204 744 -190 l 744 -271 q 734 -295 744 -285 q 710 -306 724 -306 l 693 -306 m 364 144 q 437 162 404 144 q 488 216 469 179 q 507 308 507 253 l 507 328 l 389 307 q 294 273 324 296 q 264 219 264 250 q 278 179 264 196 q 315 153 292 163 q 364 144 338 144 z "},"å":{"ha":819,"x_min":36,"x_max":744,"o":"m 299 -14 q 165 15 224 -14 q 71 92 106 43 q 36 201 36 140 q 117 358 36 300 q 331 436 197 415 l 504 463 l 504 482 q 483 558 504 532 q 407 585 463 585 q 344 569 368 585 q 306 528 319 554 q 271 510 293 510 l 115 510 q 92 519 100 510 q 85 540 83 528 q 103 598 85 565 q 161 663 122 631 q 261 715 200 694 q 410 736 322 736 q 563 715 499 736 q 667 657 626 694 q 726 569 707 619 q 744 457 744 518 l 744 35 q 734 10 744 21 q 710 0 724 0 l 549 0 q 524 10 533 0 q 514 35 514 21 l 514 83 q 465 35 496 57 q 394 -1 435 13 q 299 -14 353 -14 m 364 144 q 437 162 404 144 q 488 216 469 179 q 507 308 507 253 l 507 328 l 389 307 q 294 273 324 296 q 264 219 264 250 q 278 179 264 196 q 315 153 292 163 q 364 144 338 144 m 407 819 q 317 854 354 819 q 279 942 279 889 q 317 1028 279 994 q 407 1063 354 1063 q 498 1028 460 1063 q 536 942 536 994 q 498 854 536 889 q 407 819 460 819 m 407 900 q 437 912 425 900 q 449 942 449 924 q 437 972 449 960 q 407 983 425 983 q 377 972 389 983 q 365 942 365 960 q 377 912 365 924 q 407 900 389 900 z "},"ã":{"ha":819,"x_min":36,"x_max":744,"o":"m 299 -14 q 165 15 224 -14 q 71 92 106 43 q 36 201 36 140 q 117 358 36 300 q 331 436 197 415 l 504 463 l 504 482 q 483 558 504 532 q 407 585 463 585 q 344 569 368 585 q 306 528 319 554 q 271 510 293 510 l 115 510 q 92 519 100 510 q 85 540 83 528 q 103 598 85 565 q 161 663 122 631 q 261 715 200 694 q 410 736 322 736 q 563 715 499 736 q 667 657 626 694 q 726 569 707 619 q 744 457 744 518 l 744 35 q 734 10 744 21 q 710 0 724 0 l 549 0 q 524 10 533 0 q 514 35 514 21 l 514 83 q 465 35 496 57 q 394 -1 435 13 q 299 -14 353 -14 m 364 144 q 437 162 404 144 q 488 216 469 179 q 507 308 507 253 l 507 328 l 389 307 q 294 273 324 296 q 264 219 264 250 q 278 179 264 196 q 315 153 292 163 q 364 144 338 144 m 490 819 q 428 832 451 819 q 385 856 404 844 q 340 868 365 868 q 313 858 322 868 q 297 838 304 849 q 275 826 290 826 l 192 826 q 175 834 182 826 q 168 850 168 842 q 176 902 168 872 q 201 960 183 932 q 249 1006 219 988 q 322 1025 279 1025 q 385 1013 361 1025 q 429 988 410 1000 q 472 976 449 976 q 499 987 492 976 q 515 1008 507 997 q 538 1018 522 1018 l 621 1018 q 639 1011 632 1018 q 646 993 646 1004 q 638 942 646 971 q 611 884 629 913 q 563 838 593 856 q 490 819 533 819 z "},"æ":{"ha":1271,"x_min":38,"x_max":1221,"o":"m 317 -14 q 167 15 229 -14 q 71 92 104 43 q 38 201 38 140 q 117 358 38 300 q 331 438 197 417 l 504 464 l 504 483 q 483 559 504 533 q 408 585 463 585 q 352 572 374 585 q 315 545 331 560 q 282 521 300 531 q 276 513 279 515 q 267 510 272 510 l 115 510 q 93 519 101 510 q 85 540 85 528 q 103 598 85 565 q 160 663 121 631 q 260 715 199 694 q 410 736 322 736 q 552 715 497 736 q 639 658 607 693 q 736 715 681 693 q 863 736 792 736 q 1031 704 963 736 q 1142 619 1100 672 q 1202 499 1183 565 q 1221 365 1221 433 l 1221 332 q 1211 307 1221 317 q 1186 297 1201 297 l 747 297 l 747 288 q 764 204 749 236 q 805 157 779 172 q 861 142 831 142 q 914 154 889 142 q 958 192 939 167 q 978 210 971 206 q 1003 214 986 214 l 1172 214 q 1203 183 1203 214 q 1182 128 1203 161 q 1119 63 1161 94 q 1013 8 1076 31 q 863 -14 949 -14 q 704 16 771 -14 q 594 96 638 46 q 466 10 539 33 q 317 -14 393 -14 m 364 144 q 438 162 406 144 q 488 216 469 179 q 507 308 507 253 l 507 328 l 389 307 q 294 273 324 296 q 264 219 264 250 q 278 179 264 196 q 315 153 292 163 q 364 144 338 144 m 747 435 l 976 435 l 976 440 q 948 546 976 507 q 863 585 919 585 q 805 569 831 585 q 764 522 779 553 q 747 440 749 490 l 747 435 z "},"ǽ":{"ha":1271,"x_min":38,"x_max":1221,"o":"m 317 -14 q 167 15 229 -14 q 71 92 104 43 q 38 201 38 140 q 117 358 38 300 q 331 438 197 417 l 504 464 l 504 483 q 483 559 504 533 q 408 585 463 585 q 352 572 374 585 q 315 545 331 560 q 282 521 300 531 q 276 513 279 515 q 267 510 272 510 l 115 510 q 93 519 101 510 q 85 540 85 528 q 103 598 85 565 q 160 663 121 631 q 260 715 199 694 q 410 736 322 736 q 552 715 497 736 q 639 658 607 693 q 736 715 681 693 q 863 736 792 736 q 1031 704 963 736 q 1142 619 1100 672 q 1202 499 1183 565 q 1221 365 1221 433 l 1221 332 q 1211 307 1221 317 q 1186 297 1201 297 l 747 297 l 747 288 q 764 204 749 236 q 805 157 779 172 q 861 142 831 142 q 914 154 889 142 q 958 192 939 167 q 978 210 971 206 q 1003 214 986 214 l 1172 214 q 1203 183 1203 214 q 1182 128 1203 161 q 1119 63 1161 94 q 1013 8 1076 31 q 863 -14 949 -14 q 704 16 771 -14 q 594 96 638 46 q 466 10 539 33 q 317 -14 393 -14 m 364 144 q 438 162 406 144 q 488 216 469 179 q 507 308 507 253 l 507 328 l 389 307 q 294 273 324 296 q 264 219 264 250 q 278 179 264 196 q 315 153 292 163 q 364 144 338 144 m 747 435 l 976 435 l 976 440 q 948 546 976 507 q 863 585 919 585 q 805 569 831 585 q 764 522 779 553 q 747 440 749 490 l 747 435 m 557 826 q 535 849 535 826 q 542 867 535 860 l 664 1015 q 688 1037 678 1032 q 715 1042 697 1042 l 899 1042 q 925 1014 925 1042 q 918 997 925 1004 l 733 846 q 711 831 722 836 q 681 826 700 826 l 557 826 z "},"b":{"ha":876,"x_min":82,"x_max":821,"o":"m 524 -14 q 394 13 447 -14 q 308 79 342 39 l 308 35 q 298 10 308 21 q 274 0 288 0 l 117 0 q 92 10 101 0 q 82 35 82 21 l 82 951 q 92 976 82 967 q 117 986 101 986 l 286 986 q 311 976 301 986 q 321 951 321 967 l 321 654 q 406 713 356 690 q 524 736 456 736 q 647 713 593 736 q 738 648 700 690 q 796 545 775 606 q 819 411 817 485 q 821 362 821 383 q 819 313 821 340 q 796 174 817 235 q 737 72 775 114 q 646 8 699 29 q 524 -14 593 -14 m 449 172 q 522 192 496 172 q 560 244 549 211 q 575 318 572 278 q 575 404 578 361 q 560 478 572 444 q 522 531 549 511 q 449 550 496 550 q 378 531 406 550 q 336 483 350 513 q 321 418 322 453 q 319 367 319 392 q 321 314 319 342 q 336 244 324 276 q 376 192 349 213 q 449 172 404 172 z "},"c":{"ha":819,"x_min":54,"x_max":778,"o":"m 414 -14 q 232 24 311 -14 q 106 133 153 61 q 56 304 60 204 q 54 360 54 326 q 56 417 54 394 q 106 590 60 518 q 231 699 151 661 q 414 736 311 736 q 578 709 510 736 q 690 642 647 682 q 753 559 732 601 q 776 485 775 517 q 767 460 778 471 q 742 450 756 450 l 565 450 q 542 457 550 450 q 526 478 533 464 q 484 539 510 521 q 418 557 458 557 q 333 521 363 557 q 300 410 303 485 q 300 311 299 354 q 333 200 304 235 q 418 165 363 165 q 486 184 461 165 q 526 244 511 203 q 542 265 533 258 q 565 272 550 272 l 742 272 q 767 263 756 272 q 776 238 778 253 q 763 183 775 215 q 724 117 750 151 q 655 53 697 82 q 553 5 613 24 q 414 -14 493 -14 z "},"ć":{"ha":819,"x_min":54,"x_max":778,"o":"m 414 -14 q 232 24 311 -14 q 106 133 153 61 q 56 304 60 204 q 54 360 54 326 q 56 417 54 394 q 106 590 60 518 q 231 699 151 661 q 414 736 311 736 q 578 709 510 736 q 690 642 647 682 q 753 559 732 601 q 776 485 775 517 q 767 460 778 471 q 742 450 756 450 l 565 450 q 542 457 550 450 q 526 478 533 464 q 484 539 510 521 q 418 557 458 557 q 333 521 363 557 q 300 410 303 485 q 300 311 299 354 q 333 200 304 235 q 418 165 363 165 q 486 184 461 165 q 526 244 511 203 q 542 265 533 258 q 565 272 550 272 l 742 272 q 767 263 756 272 q 776 238 778 253 q 763 183 775 215 q 724 117 750 151 q 655 53 697 82 q 553 5 613 24 q 414 -14 493 -14 m 331 826 q 308 849 308 826 q 315 867 308 860 l 438 1015 q 461 1037 451 1032 q 489 1042 471 1042 l 672 1042 q 699 1014 699 1042 q 692 997 699 1004 l 507 846 q 485 831 496 836 q 454 826 474 826 l 331 826 z "},"č":{"ha":819,"x_min":54,"x_max":778,"o":"m 414 -14 q 232 24 311 -14 q 106 133 153 61 q 56 304 60 204 q 54 360 54 326 q 56 417 54 394 q 106 590 60 518 q 231 699 151 661 q 414 736 311 736 q 578 709 510 736 q 690 642 647 682 q 753 559 732 601 q 776 485 775 517 q 767 460 778 471 q 742 450 756 450 l 565 450 q 542 457 550 450 q 526 478 533 464 q 484 539 510 521 q 418 557 458 557 q 333 521 363 557 q 300 410 303 485 q 300 311 299 354 q 333 200 304 235 q 418 165 363 165 q 486 184 461 165 q 526 244 511 203 q 542 265 533 258 q 565 272 550 272 l 742 272 q 767 263 756 272 q 776 238 778 253 q 763 183 775 215 q 724 117 750 151 q 655 53 697 82 q 553 5 613 24 q 414 -14 493 -14 m 357 826 q 333 831 343 826 q 308 850 322 836 l 165 1000 q 156 1022 156 1011 q 176 1042 156 1042 l 242 1042 q 267 1040 254 1042 q 290 1032 279 1038 l 411 964 l 533 1032 q 557 1040 544 1038 q 581 1042 569 1042 l 647 1042 q 668 1022 668 1042 q 657 1000 668 1011 l 515 850 q 491 831 501 836 q 467 826 481 826 l 357 826 z "},"ç":{"ha":819,"x_min":54,"x_max":778,"o":"m 414 -306 q 346 -293 376 -306 q 303 -264 315 -281 q 304 -235 290 -247 l 329 -212 q 351 -205 342 -201 q 374 -216 360 -208 q 414 -224 388 -224 q 447 -212 435 -224 q 460 -182 460 -200 q 447 -153 460 -165 q 414 -142 435 -142 q 383 -147 397 -142 q 358 -152 369 -151 q 335 -144 346 -153 l 308 -117 q 301 -99 300 -108 q 310 -72 301 -89 l 338 -8 q 138 92 214 11 q 56 304 61 172 q 54 360 54 326 q 56 417 54 394 q 106 590 60 518 q 231 699 151 661 q 414 736 311 736 q 578 709 510 736 q 690 642 647 682 q 753 559 732 601 q 776 485 775 517 q 767 460 778 471 q 742 450 756 450 l 565 450 q 542 457 550 450 q 526 478 533 464 q 484 539 510 521 q 418 557 458 557 q 333 521 363 557 q 300 410 303 485 q 300 311 299 354 q 333 200 304 235 q 418 165 363 165 q 486 184 461 165 q 526 244 511 203 q 542 265 533 258 q 565 272 550 272 l 742 272 q 767 263 756 272 q 776 238 778 253 q 755 167 775 210 q 694 85 735 125 q 585 16 653 44 q 419 -14 518 -12 l 393 -69 q 416 -63 401 -65 q 439 -61 431 -61 q 519 -94 489 -61 q 549 -182 549 -128 q 513 -270 549 -235 q 414 -306 476 -306 z "},"ĉ":{"ha":819,"x_min":54,"x_max":778,"o":"m 414 -14 q 232 24 311 -14 q 106 133 153 61 q 56 304 60 204 q 54 360 54 326 q 56 417 54 394 q 106 590 60 518 q 231 699 151 661 q 414 736 311 736 q 578 709 510 736 q 690 642 647 682 q 753 559 732 601 q 776 485 775 517 q 767 460 778 471 q 742 450 756 450 l 565 450 q 542 457 550 450 q 526 478 533 464 q 484 539 510 521 q 418 557 458 557 q 333 521 363 557 q 300 410 303 485 q 300 311 299 354 q 333 200 304 235 q 418 165 363 165 q 486 184 461 165 q 526 244 511 203 q 542 265 533 258 q 565 272 550 272 l 742 272 q 767 263 756 272 q 776 238 778 253 q 763 183 775 215 q 724 117 750 151 q 655 53 697 82 q 553 5 613 24 q 414 -14 493 -14 m 176 826 q 156 846 156 826 q 165 868 156 857 l 308 1018 q 333 1038 322 1033 q 357 1042 343 1042 l 467 1042 q 491 1038 481 1042 q 515 1018 501 1033 l 657 868 q 668 846 668 857 q 647 826 668 826 l 581 826 q 557 828 569 826 q 533 836 544 831 l 411 904 l 290 836 q 267 828 279 831 q 242 826 254 826 l 176 826 z "},"ċ":{"ha":819,"x_min":54,"x_max":778,"o":"m 414 -14 q 232 24 311 -14 q 106 133 153 61 q 56 304 60 204 q 54 360 54 326 q 56 417 54 394 q 106 590 60 518 q 231 699 151 661 q 414 736 311 736 q 578 709 510 736 q 690 642 647 682 q 753 559 732 601 q 776 485 775 517 q 767 460 778 471 q 742 450 756 450 l 565 450 q 542 457 550 450 q 526 478 533 464 q 484 539 510 521 q 418 557 458 557 q 333 521 363 557 q 300 410 303 485 q 300 311 299 354 q 333 200 304 235 q 418 165 363 165 q 486 184 461 165 q 526 244 511 203 q 542 265 533 258 q 565 272 550 272 l 742 272 q 767 263 756 272 q 776 238 778 253 q 763 183 775 215 q 724 117 750 151 q 655 53 697 82 q 553 5 613 24 q 414 -14 493 -14 m 340 838 q 318 847 326 838 q 310 869 310 856 l 310 1008 q 318 1031 310 1022 q 340 1040 326 1040 l 479 1040 q 502 1031 493 1040 q 511 1008 511 1022 l 511 869 q 502 847 511 856 q 479 838 493 838 l 340 838 z "},"d":{"ha":876,"x_min":56,"x_max":794,"o":"m 351 -14 q 231 8 285 -14 q 140 72 178 29 q 81 174 101 114 q 57 313 60 235 q 56 362 56 340 q 57 411 56 383 q 81 545 60 485 q 139 648 101 606 q 231 713 176 690 q 351 736 285 736 q 471 713 421 736 q 556 654 521 690 l 556 951 q 565 976 556 967 q 590 986 575 986 l 760 986 q 784 976 774 986 q 794 951 794 967 l 794 35 q 784 10 794 21 q 760 0 774 0 l 603 0 q 578 10 588 0 q 568 35 568 21 l 568 79 q 482 13 535 39 q 351 -14 429 -14 m 428 172 q 501 192 474 172 q 541 244 528 213 q 556 314 554 276 q 557 367 557 342 q 556 418 557 392 q 540 483 554 453 q 499 531 526 513 q 428 550 471 550 q 355 531 382 550 q 316 478 328 511 q 301 404 304 444 q 301 318 297 361 q 316 244 304 278 q 355 192 328 211 q 428 172 382 172 z "},"ð":{"ha":840,"x_min":51,"x_max":783,"o":"m 417 -14 q 222 25 304 -14 q 96 139 140 64 q 51 319 51 214 q 97 501 51 426 q 226 614 143 575 q 417 653 308 653 q 460 648 440 653 q 497 632 481 643 q 438 743 475 693 l 285 683 q 269 679 275 679 q 249 687 257 679 q 240 707 240 694 l 240 742 q 247 769 240 760 q 271 783 254 778 l 368 821 q 314 869 343 846 q 254 915 285 893 q 239 931 243 924 q 235 943 235 938 q 243 964 235 956 q 264 972 251 972 l 438 972 q 477 967 461 972 q 503 954 493 961 q 536 926 519 940 q 567 897 553 913 l 693 947 q 710 951 704 951 q 730 944 722 951 q 738 924 738 936 l 738 889 q 731 863 738 872 q 707 847 724 854 l 640 821 q 740 634 703 742 q 782 371 778 526 q 783 342 783 357 q 782 315 783 328 q 734 138 779 211 q 609 25 689 64 q 417 -14 529 -14 m 417 156 q 485 174 458 156 q 524 224 511 192 q 538 294 538 256 q 539 319 539 308 q 538 343 539 329 q 525 415 538 383 q 487 465 513 447 q 417 483 461 483 q 347 465 374 483 q 308 415 321 447 q 296 343 296 383 q 294 319 294 329 q 296 294 294 308 q 309 224 297 256 q 348 174 321 192 q 417 156 375 156 z "},"ď":{"ha":1008,"x_min":56,"x_max":1117,"o":"m 351 -14 q 231 8 285 -14 q 140 72 178 29 q 81 174 101 114 q 57 313 60 235 q 56 362 56 340 q 57 411 56 383 q 81 545 60 485 q 139 648 101 606 q 231 713 176 690 q 351 736 285 736 q 471 713 421 736 q 556 654 521 690 l 556 951 q 565 976 556 967 q 590 986 575 986 l 760 986 q 784 976 774 986 q 794 951 794 967 l 794 35 q 784 10 794 21 q 760 0 774 0 l 603 0 q 578 10 588 0 q 568 35 568 21 l 568 79 q 482 13 535 39 q 351 -14 429 -14 m 428 172 q 501 192 474 172 q 541 244 528 213 q 556 314 554 276 q 557 367 557 342 q 556 418 557 392 q 540 483 554 453 q 499 531 526 513 q 428 550 471 550 q 355 531 382 550 q 316 478 328 511 q 301 404 304 444 q 301 318 297 361 q 316 244 304 278 q 355 192 328 211 q 428 172 382 172 m 894 729 q 875 738 882 729 q 868 760 868 747 l 896 939 q 910 972 899 957 q 946 986 922 986 l 1090 986 q 1110 978 1101 986 q 1118 958 1118 969 q 1114 943 1118 950 l 1046 768 q 1029 742 1040 754 q 994 729 1018 729 l 894 729 z "},"đ":{"ha":876,"x_min":56,"x_max":886,"o":"m 353 -14 q 226 9 281 -14 q 135 76 172 32 q 79 179 99 119 q 57 313 60 239 q 56 362 56 340 q 57 411 56 383 q 79 540 60 481 q 135 644 99 600 q 226 712 172 688 q 353 736 281 736 q 472 713 421 736 q 556 654 522 690 l 556 774 l 499 774 q 474 783 485 774 q 464 808 464 793 l 464 860 q 474 885 464 875 q 499 894 485 894 l 556 894 l 556 951 q 565 976 556 967 q 590 986 575 986 l 760 986 q 785 976 775 986 q 794 951 794 967 l 794 894 l 851 894 q 876 885 865 894 q 886 860 886 875 l 886 808 q 876 783 886 793 q 851 774 865 774 l 794 774 l 794 35 q 785 10 794 21 q 760 0 775 0 l 603 0 q 578 10 589 0 q 568 35 568 21 l 568 86 q 483 15 536 43 q 353 -14 431 -14 m 428 172 q 501 192 474 172 q 542 244 529 213 q 556 314 554 276 q 558 367 558 342 q 556 418 558 392 q 540 483 554 453 q 499 531 526 513 q 428 550 472 550 q 355 531 382 550 q 316 478 328 511 q 301 404 304 444 q 301 318 299 361 q 316 244 304 278 q 355 192 328 211 q 428 172 382 172 z "},"e":{"ha":825,"x_min":53,"x_max":776,"o":"m 415 -14 q 154 75 251 -14 q 53 339 57 164 q 53 364 53 349 q 53 388 53 379 q 102 576 57 497 q 227 695 147 654 q 414 736 307 736 q 616 688 536 736 q 736 556 696 639 q 776 365 776 472 l 776 332 q 767 307 776 317 q 742 297 757 297 l 297 297 q 297 293 297 296 q 297 288 297 290 q 312 214 299 247 q 351 161 325 181 q 414 142 376 142 q 460 151 442 142 q 492 172 479 160 q 511 192 504 183 q 531 210 524 207 q 556 214 539 214 l 728 214 q 751 206 742 214 q 758 183 760 197 q 735 126 757 160 q 670 60 713 93 q 564 7 628 28 q 415 -14 500 -14 m 297 435 l 532 435 l 532 438 q 519 516 532 483 q 478 567 506 549 q 414 585 451 585 q 351 567 378 585 q 311 516 325 549 q 297 438 297 483 l 297 435 z "},"é":{"ha":825,"x_min":53,"x_max":776,"o":"m 415 -14 q 154 75 251 -14 q 53 339 57 164 q 53 364 53 349 q 53 388 53 379 q 102 576 57 497 q 227 695 147 654 q 414 736 307 736 q 616 688 536 736 q 736 556 696 639 q 776 365 776 472 l 776 332 q 767 307 776 317 q 742 297 757 297 l 297 297 q 297 293 297 296 q 297 288 297 290 q 312 214 299 247 q 351 161 325 181 q 414 142 376 142 q 460 151 442 142 q 492 172 479 160 q 511 192 504 183 q 531 210 524 207 q 556 214 539 214 l 728 214 q 751 206 742 214 q 758 183 760 197 q 735 126 757 160 q 670 60 713 93 q 564 7 628 28 q 415 -14 500 -14 m 297 435 l 532 435 l 532 438 q 519 516 532 483 q 478 567 506 549 q 414 585 451 585 q 351 567 378 585 q 311 516 325 549 q 297 438 297 483 l 297 435 m 333 826 q 311 849 311 826 q 318 867 311 860 l 440 1015 q 464 1037 454 1032 q 492 1042 474 1042 l 675 1042 q 701 1014 701 1042 q 694 997 701 1004 l 510 846 q 488 831 499 836 q 457 826 476 826 l 333 826 z "},"ĕ":{"ha":825,"x_min":53,"x_max":776,"o":"m 415 -14 q 154 75 251 -14 q 53 339 57 164 q 53 364 53 349 q 53 388 53 379 q 102 576 57 497 q 227 695 147 654 q 414 736 307 736 q 616 688 536 736 q 736 556 696 639 q 776 365 776 472 l 776 332 q 767 307 776 317 q 742 297 757 297 l 297 297 q 297 293 297 296 q 297 288 297 290 q 312 214 299 247 q 351 161 325 181 q 414 142 376 142 q 460 151 442 142 q 492 172 479 160 q 511 192 504 183 q 531 210 524 207 q 556 214 539 214 l 728 214 q 751 206 742 214 q 758 183 760 197 q 735 126 757 160 q 670 60 713 93 q 564 7 628 28 q 415 -14 500 -14 m 297 435 l 532 435 l 532 438 q 519 516 532 483 q 478 567 506 549 q 414 585 451 585 q 351 567 378 585 q 311 516 325 549 q 297 438 297 483 l 297 435 m 414 819 q 297 846 343 819 q 229 917 251 872 q 207 1015 207 961 q 214 1034 207 1026 q 233 1042 221 1042 l 324 1042 q 343 1034 336 1042 q 350 1015 350 1026 q 364 958 350 983 q 414 933 378 933 q 466 958 453 933 q 479 1015 479 983 q 486 1034 479 1026 q 506 1042 493 1042 l 594 1042 q 614 1034 607 1042 q 621 1015 621 1026 q 599 917 621 961 q 531 846 576 872 q 414 819 485 819 z "},"ě":{"ha":825,"x_min":53,"x_max":776,"o":"m 415 -14 q 154 75 251 -14 q 53 339 57 164 q 53 364 53 349 q 53 388 53 379 q 102 576 57 497 q 227 695 147 654 q 414 736 307 736 q 616 688 536 736 q 736 556 696 639 q 776 365 776 472 l 776 332 q 767 307 776 317 q 742 297 757 297 l 297 297 q 297 293 297 296 q 297 288 297 290 q 312 214 299 247 q 351 161 325 181 q 414 142 376 142 q 460 151 442 142 q 492 172 479 160 q 511 192 504 183 q 531 210 524 207 q 556 214 539 214 l 728 214 q 751 206 742 214 q 758 183 760 197 q 735 126 757 160 q 670 60 713 93 q 564 7 628 28 q 415 -14 500 -14 m 297 435 l 532 435 l 532 438 q 519 516 532 483 q 478 567 506 549 q 414 585 451 585 q 351 567 378 585 q 311 516 325 549 q 297 438 297 483 l 297 435 m 360 826 q 335 831 346 826 q 311 850 325 836 l 168 1000 q 158 1022 158 1011 q 179 1042 158 1042 l 244 1042 q 269 1040 257 1042 q 293 1032 282 1038 l 414 964 l 536 1032 q 560 1040 547 1038 q 583 1042 572 1042 l 650 1042 q 671 1022 671 1042 q 660 1000 671 1011 l 518 850 q 494 831 504 836 q 469 826 483 826 l 360 826 z "},"ê":{"ha":825,"x_min":53,"x_max":776,"o":"m 415 -14 q 154 75 251 -14 q 53 339 57 164 q 53 364 53 349 q 53 388 53 379 q 102 576 57 497 q 227 695 147 654 q 414 736 307 736 q 616 688 536 736 q 736 556 696 639 q 776 365 776 472 l 776 332 q 767 307 776 317 q 742 297 757 297 l 297 297 q 297 293 297 296 q 297 288 297 290 q 312 214 299 247 q 351 161 325 181 q 414 142 376 142 q 460 151 442 142 q 492 172 479 160 q 511 192 504 183 q 531 210 524 207 q 556 214 539 214 l 728 214 q 751 206 742 214 q 758 183 760 197 q 735 126 757 160 q 670 60 713 93 q 564 7 628 28 q 415 -14 500 -14 m 297 435 l 532 435 l 532 438 q 519 516 532 483 q 478 567 506 549 q 414 585 451 585 q 351 567 378 585 q 311 516 325 549 q 297 438 297 483 l 297 435 m 179 826 q 158 846 158 826 q 168 868 158 857 l 311 1018 q 335 1038 325 1033 q 360 1042 346 1042 l 469 1042 q 494 1038 483 1042 q 518 1018 504 1033 l 660 868 q 671 846 671 857 q 650 826 671 826 l 583 826 q 560 828 572 826 q 536 836 547 831 l 414 904 l 293 836 q 269 828 282 831 q 244 826 257 826 l 179 826 z "},"ë":{"ha":825,"x_min":53,"x_max":776,"o":"m 415 -14 q 154 75 251 -14 q 53 339 57 164 q 53 364 53 349 q 53 388 53 379 q 102 576 57 497 q 227 695 147 654 q 414 736 307 736 q 616 688 536 736 q 736 556 696 639 q 776 365 776 472 l 776 332 q 767 307 776 317 q 742 297 757 297 l 297 297 q 297 293 297 296 q 297 288 297 290 q 312 214 299 247 q 351 161 325 181 q 414 142 376 142 q 460 151 442 142 q 492 172 479 160 q 511 192 504 183 q 531 210 524 207 q 556 214 539 214 l 728 214 q 751 206 742 214 q 758 183 760 197 q 735 126 757 160 q 670 60 713 93 q 564 7 628 28 q 415 -14 500 -14 m 297 435 l 532 435 l 532 438 q 519 516 532 483 q 478 567 506 549 q 414 585 451 585 q 351 567 378 585 q 311 516 325 549 q 297 438 297 483 l 297 435 m 493 843 q 470 851 479 843 q 461 875 461 860 l 461 1001 q 470 1024 461 1015 q 493 1033 479 1033 l 621 1033 q 644 1024 635 1033 q 653 1001 653 1015 l 653 875 q 644 851 653 860 q 621 843 635 843 l 493 843 m 206 843 q 183 851 192 843 q 175 875 175 860 l 175 1001 q 183 1024 175 1015 q 206 1033 192 1033 l 333 1033 q 356 1024 347 1033 q 365 1001 365 1015 l 365 875 q 356 851 365 860 q 333 843 347 843 l 206 843 z "},"ė":{"ha":825,"x_min":53,"x_max":776,"o":"m 415 -14 q 154 75 251 -14 q 53 339 57 164 q 53 364 53 349 q 53 388 53 379 q 102 576 57 497 q 227 695 147 654 q 414 736 307 736 q 616 688 536 736 q 736 556 696 639 q 776 365 776 472 l 776 332 q 767 307 776 317 q 742 297 757 297 l 297 297 q 297 293 297 296 q 297 288 297 290 q 312 214 299 247 q 351 161 325 181 q 414 142 376 142 q 460 151 442 142 q 492 172 479 160 q 511 192 504 183 q 531 210 524 207 q 556 214 539 214 l 728 214 q 751 206 742 214 q 758 183 760 197 q 735 126 757 160 q 670 60 713 93 q 564 7 628 28 q 415 -14 500 -14 m 297 435 l 532 435 l 532 438 q 519 516 532 483 q 478 567 506 549 q 414 585 451 585 q 351 567 378 585 q 311 516 325 549 q 297 438 297 483 l 297 435 m 343 838 q 321 847 329 838 q 313 869 313 856 l 313 1008 q 321 1031 313 1022 q 343 1040 329 1040 l 482 1040 q 505 1031 496 1040 q 514 1008 514 1022 l 514 869 q 505 847 514 856 q 482 838 496 838 l 343 838 z "},"è":{"ha":825,"x_min":53,"x_max":776,"o":"m 415 -14 q 154 75 251 -14 q 53 339 57 164 q 53 364 53 349 q 53 388 53 379 q 102 576 57 497 q 227 695 147 654 q 414 736 307 736 q 616 688 536 736 q 736 556 696 639 q 776 365 776 472 l 776 332 q 767 307 776 317 q 742 297 757 297 l 297 297 q 297 293 297 296 q 297 288 297 290 q 312 214 299 247 q 351 161 325 181 q 414 142 376 142 q 460 151 442 142 q 492 172 479 160 q 511 192 504 183 q 531 210 524 207 q 556 214 539 214 l 728 214 q 751 206 742 214 q 758 183 760 197 q 735 126 757 160 q 670 60 713 93 q 564 7 628 28 q 415 -14 500 -14 m 297 435 l 532 435 l 532 438 q 519 516 532 483 q 478 567 506 549 q 414 585 451 585 q 351 567 378 585 q 311 516 325 549 q 297 438 297 483 l 297 435 m 375 826 q 344 831 356 826 q 322 846 333 836 l 138 997 q 131 1015 131 1004 q 157 1042 131 1042 l 340 1042 q 368 1037 358 1042 q 392 1015 378 1032 l 514 867 q 521 849 521 860 q 499 826 521 826 l 375 826 z "},"ē":{"ha":825,"x_min":53,"x_max":776,"o":"m 415 -14 q 154 75 251 -14 q 53 339 57 164 q 53 364 53 349 q 53 388 53 379 q 102 576 57 497 q 227 695 147 654 q 414 736 307 736 q 616 688 536 736 q 736 556 696 639 q 776 365 776 472 l 776 332 q 767 307 776 317 q 742 297 757 297 l 297 297 q 297 293 297 296 q 297 288 297 290 q 312 214 299 247 q 351 161 325 181 q 414 142 376 142 q 460 151 442 142 q 492 172 479 160 q 511 192 504 183 q 531 210 524 207 q 556 214 539 214 l 728 214 q 751 206 742 214 q 758 183 760 197 q 735 126 757 160 q 670 60 713 93 q 564 7 628 28 q 415 -14 500 -14 m 297 435 l 532 435 l 532 438 q 519 516 532 483 q 478 567 506 549 q 414 585 451 585 q 351 567 378 585 q 311 516 325 549 q 297 438 297 483 l 297 435 m 219 840 q 197 849 206 840 q 189 872 189 857 l 189 969 q 197 992 189 983 q 219 1001 206 1001 l 607 1001 q 630 992 621 1001 q 639 969 639 983 l 639 872 q 630 849 639 857 q 607 840 621 840 l 219 840 z "},"ę":{"ha":826,"x_min":53,"x_max":778,"o":"m 489 -306 q 368 -276 417 -306 q 295 -197 319 -247 q 271 -85 271 -147 q 286 1 271 -35 q 118 117 179 32 q 54 339 57 203 q 53 363 53 349 q 54 386 53 376 q 102 574 57 496 q 227 694 147 653 q 415 736 307 736 q 617 688 536 736 q 738 556 697 639 q 778 365 778 472 l 778 332 q 767 307 778 317 q 742 297 757 297 l 299 297 l 299 288 q 312 214 299 247 q 351 161 325 181 q 414 142 376 142 q 460 151 442 142 q 492 172 479 160 q 511 192 504 183 q 532 210 524 207 q 556 214 540 214 l 728 214 q 751 206 742 214 q 758 183 760 197 q 727 116 757 156 q 640 42 697 76 q 497 -7 583 7 q 433 -34 454 -15 q 413 -85 413 -53 q 433 -144 413 -119 q 494 -169 453 -169 l 511 -169 q 536 -180 526 -169 q 546 -204 546 -190 l 546 -271 q 536 -295 546 -285 q 511 -306 526 -306 l 489 -306 m 297 435 l 532 435 l 532 438 q 519 516 532 483 q 478 567 506 549 q 414 585 451 585 q 351 567 378 585 q 311 516 325 549 q 297 438 297 483 l 297 435 z "},"f":{"ha":615,"x_min":24,"x_max":611,"o":"m 199 0 q 174 10 185 0 q 164 35 164 21 l 164 540 l 58 540 q 33 550 43 540 q 24 575 24 560 l 24 688 q 33 713 24 703 q 58 722 43 722 l 164 722 l 164 767 q 201 919 164 861 q 306 1002 238 976 q 468 1028 374 1028 l 576 1028 q 601 1018 592 1028 q 611 993 611 1008 l 611 881 q 601 856 611 865 q 576 846 592 846 l 479 846 q 413 824 432 846 q 394 760 394 801 l 394 722 l 563 722 q 588 713 578 722 q 597 688 597 703 l 597 575 q 588 550 597 560 q 563 540 578 540 l 394 540 l 394 35 q 385 10 394 21 q 360 0 375 0 l 199 0 z "},"g":{"ha":881,"x_min":54,"x_max":799,"o":"m 436 -306 q 259 -278 329 -306 q 148 -211 189 -250 q 89 -134 107 -172 q 69 -74 71 -96 q 79 -48 68 -58 q 106 -37 90 -37 l 282 -37 q 304 -44 296 -37 q 318 -67 313 -51 q 338 -98 326 -82 q 370 -125 349 -114 q 429 -136 392 -136 q 499 -123 471 -136 q 540 -80 526 -110 q 554 0 554 -50 l 554 93 q 472 37 522 58 q 351 15 422 15 q 226 36 281 15 q 136 99 172 57 q 80 200 100 140 q 56 338 60 260 q 56 411 54 374 q 79 545 60 485 q 135 648 99 606 q 226 713 172 690 q 351 736 281 736 q 480 708 426 736 q 568 636 533 679 l 568 688 q 578 712 568 701 q 603 722 588 722 l 763 722 q 788 712 778 722 q 799 688 799 701 l 799 19 q 756 -158 799 -86 q 633 -268 714 -231 q 436 -306 551 -306 m 426 196 q 499 215 471 196 q 540 265 526 235 q 554 331 553 296 q 556 374 556 346 q 554 415 556 401 q 540 482 553 451 q 499 531 526 513 q 426 550 471 550 q 353 531 381 550 q 315 478 326 511 q 300 404 303 444 q 300 342 299 374 q 315 268 303 301 q 353 215 326 235 q 426 196 381 196 z "},"ğ":{"ha":881,"x_min":54,"x_max":799,"o":"m 436 -306 q 259 -278 329 -306 q 148 -211 189 -250 q 89 -134 107 -172 q 69 -74 71 -96 q 79 -48 68 -58 q 106 -37 90 -37 l 282 -37 q 304 -44 296 -37 q 318 -67 313 -51 q 338 -98 326 -82 q 370 -125 349 -114 q 429 -136 392 -136 q 499 -123 471 -136 q 540 -80 526 -110 q 554 0 554 -50 l 554 93 q 472 37 522 58 q 351 15 422 15 q 226 36 281 15 q 136 99 172 57 q 80 200 100 140 q 56 338 60 260 q 56 411 54 374 q 79 545 60 485 q 135 648 99 606 q 226 713 172 690 q 351 736 281 736 q 480 708 426 736 q 568 636 533 679 l 568 688 q 578 712 568 701 q 603 722 588 722 l 763 722 q 788 712 778 722 q 799 688 799 701 l 799 19 q 756 -158 799 -86 q 633 -268 714 -231 q 436 -306 551 -306 m 426 196 q 499 215 471 196 q 540 265 526 235 q 554 331 553 296 q 556 374 556 346 q 554 415 556 401 q 540 482 553 451 q 499 531 526 513 q 426 550 471 550 q 353 531 381 550 q 315 478 326 511 q 300 404 303 444 q 300 342 299 374 q 315 268 303 301 q 353 215 326 235 q 426 196 381 196 m 429 819 q 313 846 358 819 q 244 917 267 872 q 222 1015 222 961 q 229 1034 222 1026 q 249 1042 236 1042 l 339 1042 q 358 1034 351 1042 q 365 1015 365 1026 q 379 958 365 983 q 429 933 393 933 q 481 958 468 933 q 494 1015 494 983 q 501 1034 494 1026 q 521 1042 508 1042 l 610 1042 q 629 1034 622 1042 q 636 1015 636 1026 q 614 917 636 961 q 546 846 592 872 q 429 819 500 819 z "},"ĝ":{"ha":881,"x_min":54,"x_max":799,"o":"m 436 -306 q 259 -278 329 -306 q 148 -211 189 -250 q 89 -134 107 -172 q 69 -74 71 -96 q 79 -48 68 -58 q 106 -37 90 -37 l 282 -37 q 304 -44 296 -37 q 318 -67 313 -51 q 338 -98 326 -82 q 370 -125 349 -114 q 429 -136 392 -136 q 499 -123 471 -136 q 540 -80 526 -110 q 554 0 554 -50 l 554 93 q 472 37 522 58 q 351 15 422 15 q 226 36 281 15 q 136 99 172 57 q 80 200 100 140 q 56 338 60 260 q 56 411 54 374 q 79 545 60 485 q 135 648 99 606 q 226 713 172 690 q 351 736 281 736 q 480 708 426 736 q 568 636 533 679 l 568 688 q 578 712 568 701 q 603 722 588 722 l 763 722 q 788 712 778 722 q 799 688 799 701 l 799 19 q 756 -158 799 -86 q 633 -268 714 -231 q 436 -306 551 -306 m 426 196 q 499 215 471 196 q 540 265 526 235 q 554 331 553 296 q 556 374 556 346 q 554 415 556 401 q 540 482 553 451 q 499 531 526 513 q 426 550 471 550 q 353 531 381 550 q 315 478 326 511 q 300 404 303 444 q 300 342 299 374 q 315 268 303 301 q 353 215 326 235 q 426 196 381 196 m 193 826 q 172 846 172 826 q 182 868 172 857 l 325 1018 q 349 1038 339 1033 q 374 1042 360 1042 l 483 1042 q 508 1038 497 1042 q 532 1018 518 1033 l 674 868 q 685 846 685 857 q 664 826 685 826 l 597 826 q 574 828 586 826 q 550 836 561 831 l 428 904 l 307 836 q 283 828 296 831 q 258 826 271 826 l 193 826 z "},"ģ":{"ha":881,"x_min":54,"x_max":799,"o":"m 436 -306 q 259 -278 329 -306 q 148 -211 189 -250 q 89 -134 107 -172 q 69 -74 71 -96 q 79 -48 68 -58 q 106 -37 90 -37 l 282 -37 q 304 -44 296 -37 q 318 -67 313 -51 q 338 -98 326 -82 q 370 -125 349 -114 q 429 -136 392 -136 q 499 -123 471 -136 q 540 -80 526 -110 q 554 0 554 -50 l 554 93 q 472 37 522 58 q 351 15 422 15 q 226 36 281 15 q 136 99 172 57 q 80 200 100 140 q 56 338 60 260 q 56 411 54 374 q 79 545 60 485 q 135 648 99 606 q 226 713 172 690 q 351 736 281 736 q 480 708 426 736 q 568 636 533 679 l 568 688 q 578 712 568 701 q 603 722 588 722 l 763 722 q 788 712 778 722 q 799 688 799 701 l 799 19 q 756 -158 799 -86 q 633 -268 714 -231 q 436 -306 551 -306 m 426 196 q 499 215 471 196 q 540 265 526 235 q 554 331 553 296 q 556 374 556 346 q 554 415 556 401 q 540 482 553 451 q 499 531 526 513 q 426 550 471 550 q 353 531 381 550 q 315 478 326 511 q 300 404 303 444 q 300 342 299 374 q 315 268 303 301 q 353 215 326 235 q 426 196 381 196 m 354 826 q 335 835 343 826 q 328 854 328 843 q 331 869 328 863 l 400 1044 q 417 1071 406 1058 q 450 1083 428 1083 l 551 1083 q 570 1074 563 1083 q 578 1053 578 1065 l 550 875 q 535 842 547 857 q 500 826 524 826 l 354 826 z "},"ġ":{"ha":881,"x_min":54,"x_max":799,"o":"m 436 -306 q 259 -278 329 -306 q 148 -211 189 -250 q 89 -134 107 -172 q 69 -74 71 -96 q 79 -48 68 -58 q 106 -37 90 -37 l 282 -37 q 304 -44 296 -37 q 318 -67 313 -51 q 338 -98 326 -82 q 370 -125 349 -114 q 429 -136 392 -136 q 499 -123 471 -136 q 540 -80 526 -110 q 554 0 554 -50 l 554 93 q 472 37 522 58 q 351 15 422 15 q 226 36 281 15 q 136 99 172 57 q 80 200 100 140 q 56 338 60 260 q 56 411 54 374 q 79 545 60 485 q 135 648 99 606 q 226 713 172 690 q 351 736 281 736 q 480 708 426 736 q 568 636 533 679 l 568 688 q 578 712 568 701 q 603 722 588 722 l 763 722 q 788 712 778 722 q 799 688 799 701 l 799 19 q 756 -158 799 -86 q 633 -268 714 -231 q 436 -306 551 -306 m 426 196 q 499 215 471 196 q 540 265 526 235 q 554 331 553 296 q 556 374 556 346 q 554 415 556 401 q 540 482 553 451 q 499 531 526 513 q 426 550 471 550 q 353 531 381 550 q 315 478 326 511 q 300 404 303 444 q 300 342 299 374 q 315 268 303 301 q 353 215 326 235 q 426 196 381 196 m 358 838 q 336 847 344 838 q 328 869 328 856 l 328 1008 q 336 1031 328 1022 q 358 1040 344 1040 l 497 1040 q 520 1031 511 1040 q 529 1008 529 1022 l 529 869 q 520 847 529 856 q 497 838 511 838 l 358 838 z "},"h":{"ha":903,"x_min":82,"x_max":828,"o":"m 117 0 q 92 10 101 0 q 82 35 82 21 l 82 951 q 92 976 82 967 q 117 986 101 986 l 294 986 q 319 976 310 986 q 329 951 329 967 l 329 642 q 422 710 367 685 q 549 736 476 736 q 692 700 629 736 q 792 594 756 664 q 828 422 828 525 l 828 35 q 818 10 828 21 q 793 0 808 0 l 614 0 q 590 10 600 0 q 579 35 579 21 l 579 414 q 548 515 579 479 q 457 550 517 550 q 364 515 399 550 q 329 414 329 479 l 329 35 q 319 10 329 21 q 294 0 310 0 l 117 0 z "},"ħ":{"ha":903,"x_min":-6,"x_max":828,"o":"m 29 764 q 5 774 15 764 q -6 800 -6 785 l -6 851 q 5 876 -6 865 q 29 886 15 886 l 381 886 q 406 876 396 886 q 417 851 417 865 l 417 800 q 406 774 417 785 q 381 764 396 764 l 29 764 m 117 0 q 92 10 101 0 q 82 35 82 21 l 82 951 q 92 976 82 967 q 117 986 101 986 l 294 986 q 319 976 310 986 q 329 951 329 967 l 329 642 q 422 710 367 685 q 549 736 476 736 q 692 700 629 736 q 792 594 756 664 q 828 422 828 525 l 828 35 q 818 10 828 21 q 793 0 808 0 l 614 0 q 590 10 600 0 q 579 35 579 21 l 579 414 q 548 515 579 479 q 457 550 517 550 q 364 515 399 550 q 329 414 329 479 l 329 35 q 319 10 329 21 q 294 0 310 0 l 117 0 z "},"ĥ":{"ha":903,"x_min":82,"x_max":828,"o":"m 117 0 q 92 10 101 0 q 82 35 82 21 l 82 951 q 92 976 82 967 q 117 986 101 986 l 294 986 q 319 976 310 986 q 329 951 329 967 l 329 642 q 422 710 367 685 q 549 736 476 736 q 692 700 629 736 q 792 594 756 664 q 828 422 828 525 l 828 35 q 818 10 828 21 q 793 0 808 0 l 614 0 q 590 10 600 0 q 579 35 579 21 l 579 414 q 548 515 579 479 q 457 550 517 550 q 364 515 399 550 q 329 414 329 479 l 329 35 q 319 10 329 21 q 294 0 310 0 l 117 0 m 218 1043 q 197 1063 197 1043 q 207 1085 197 1074 l 350 1235 q 374 1254 364 1250 q 399 1258 385 1258 l 508 1258 q 533 1254 522 1258 q 557 1235 543 1250 l 699 1085 q 710 1063 710 1074 q 689 1043 710 1043 l 622 1043 q 599 1045 611 1043 q 575 1053 586 1047 l 453 1121 l 332 1053 q 308 1045 321 1047 q 283 1043 296 1043 l 218 1043 z "},"i":{"ha":397,"x_min":81,"x_max":317,"o":"m 117 0 q 92 10 101 0 q 82 35 82 21 l 82 688 q 92 713 82 703 q 117 722 101 722 l 281 722 q 306 713 296 722 q 315 688 315 703 l 315 35 q 306 10 315 21 q 281 0 296 0 l 117 0 m 115 826 q 90 836 100 826 q 81 861 81 846 l 81 986 q 90 1010 81 1000 q 115 1021 100 1021 l 282 1021 q 306 1010 296 1021 q 317 986 317 1000 l 317 861 q 306 836 317 846 q 282 826 296 826 l 115 826 z "},"ı":{"ha":397,"x_min":82,"x_max":315,"o":"m 117 0 q 92 10 101 0 q 82 35 82 21 l 82 688 q 92 713 82 703 q 117 722 101 722 l 281 722 q 306 713 296 722 q 315 688 315 703 l 315 35 q 306 10 315 21 q 281 0 296 0 l 117 0 z "},"í":{"ha":397,"x_min":82,"x_max":486,"o":"m 117 0 q 92 10 101 0 q 82 35 82 21 l 82 688 q 92 713 82 703 q 117 722 101 722 l 281 722 q 306 713 296 722 q 315 688 315 703 l 315 35 q 306 10 315 21 q 281 0 296 0 l 117 0 m 118 826 q 96 849 96 826 q 103 867 96 860 l 225 1015 q 249 1037 239 1032 q 276 1042 258 1042 l 460 1042 q 486 1014 486 1042 q 479 997 486 1004 l 294 846 q 272 831 283 836 q 242 826 261 826 l 118 826 z "},"ĭ":{"ha":397,"x_min":-7,"x_max":406,"o":"m 117 0 q 92 10 101 0 q 82 35 82 21 l 82 688 q 92 713 82 703 q 117 722 101 722 l 281 722 q 306 713 296 722 q 315 688 315 703 l 315 35 q 306 10 315 21 q 281 0 296 0 l 117 0 m 199 819 q 82 846 128 819 q 14 917 36 872 q -8 1015 -8 961 q -1 1034 -8 1026 q 18 1042 6 1042 l 108 1042 q 128 1034 121 1042 q 135 1015 135 1026 q 149 958 135 983 q 199 933 163 933 q 251 958 238 933 q 264 1015 264 983 q 271 1034 264 1026 q 290 1042 278 1042 l 379 1042 q 399 1034 392 1042 q 406 1015 406 1026 q 383 917 406 961 q 315 846 361 872 q 199 819 269 819 z "},"î":{"ha":397,"x_min":-57,"x_max":456,"o":"m 117 0 q 92 10 101 0 q 82 35 82 21 l 82 688 q 92 713 82 703 q 117 722 101 722 l 281 722 q 306 713 296 722 q 315 688 315 703 l 315 35 q 306 10 315 21 q 281 0 296 0 l 117 0 m -36 826 q -57 846 -57 826 q -47 868 -57 857 l 96 1018 q 120 1038 110 1033 q 144 1042 131 1042 l 254 1042 q 278 1038 268 1042 q 303 1018 289 1033 l 444 868 q 456 846 456 857 q 435 826 456 826 l 368 826 q 344 828 357 826 q 321 836 332 831 l 199 904 l 78 836 q 54 828 67 831 q 29 826 42 826 l -36 826 z "},"ï":{"ha":397,"x_min":-40,"x_max":438,"o":"m 117 0 q 92 10 101 0 q 82 35 82 21 l 82 688 q 92 713 82 703 q 117 722 101 722 l 281 722 q 306 713 296 722 q 315 688 315 703 l 315 35 q 306 10 315 21 q 281 0 296 0 l 117 0 m 278 843 q 255 851 264 843 q 246 875 246 860 l 246 1001 q 255 1024 246 1015 q 278 1033 264 1033 l 406 1033 q 428 1024 419 1033 q 438 1001 438 1015 l 438 875 q 428 851 438 860 q 406 843 419 843 l 278 843 m -10 843 q -32 851 -24 843 q -40 875 -40 860 l -40 1001 q -32 1024 -40 1015 q -10 1033 -24 1033 l 118 1033 q 141 1024 132 1033 q 150 1001 150 1015 l 150 875 q 141 851 150 860 q 118 843 132 843 l -10 843 z "},"ì":{"ha":397,"x_min":-83,"x_max":315,"o":"m 117 0 q 92 10 101 0 q 82 35 82 21 l 82 688 q 92 713 82 703 q 117 722 101 722 l 281 722 q 306 713 296 722 q 315 688 315 703 l 315 35 q 306 10 315 21 q 281 0 296 0 l 117 0 m 160 826 q 129 831 140 826 q 107 846 118 836 l -78 997 q -85 1015 -85 1004 q -58 1042 -85 1042 l 125 1042 q 153 1037 143 1042 q 176 1015 163 1032 l 299 867 q 306 849 306 860 q 283 826 306 826 l 160 826 z "},"ĳ":{"ha":818,"x_min":81,"x_max":738,"o":"m 117 0 q 92 10 101 0 q 82 35 82 21 l 82 688 q 92 713 82 703 q 117 722 101 722 l 281 722 q 306 713 296 722 q 315 688 315 703 l 315 35 q 306 10 315 21 q 281 0 296 0 l 117 0 m 115 826 q 90 836 100 826 q 81 861 81 846 l 81 986 q 90 1010 81 1000 q 115 1021 100 1021 l 282 1021 q 306 1010 296 1021 q 317 986 317 1000 l 317 861 q 306 836 317 846 q 282 826 296 826 l 115 826 m 358 -264 q 333 -253 343 -264 q 324 -229 324 -243 l 324 -117 q 333 -92 324 -101 q 358 -82 343 -82 l 410 -82 q 463 -69 444 -82 q 488 -33 481 -56 q 494 19 494 -10 l 494 688 q 505 713 494 703 q 529 722 515 722 l 701 722 q 726 713 717 722 q 736 688 736 703 l 736 14 q 701 -138 736 -76 q 599 -232 665 -200 q 436 -264 532 -264 l 358 -264 m 528 826 q 503 836 514 826 q 493 861 493 846 l 493 986 q 503 1010 493 1000 q 528 1021 514 1021 l 703 1021 q 727 1010 717 1021 q 738 986 738 1000 l 738 861 q 727 836 738 846 q 703 826 717 826 l 528 826 z "},"ī":{"ha":397,"x_min":-26,"x_max":424,"o":"m 117 0 q 92 10 101 0 q 82 35 82 21 l 82 688 q 92 713 82 703 q 117 722 101 722 l 281 722 q 306 713 296 722 q 315 688 315 703 l 315 35 q 306 10 315 21 q 281 0 296 0 l 117 0 m 4 840 q -18 849 -10 840 q -26 872 -26 857 l -26 969 q -18 992 -26 983 q 4 1001 -10 1001 l 392 1001 q 415 992 406 1001 q 424 969 424 983 l 424 872 q 415 849 424 857 q 392 840 406 840 l 4 840 z "},"į":{"ha":407,"x_min":65,"x_max":332,"o":"m 275 -281 q 118 -224 171 -281 q 65 -78 65 -167 q 81 -12 65 -39 q 122 28 96 15 l 115 31 q 99 40 106 32 q 92 57 92 47 l 92 688 q 102 713 92 703 q 128 722 113 722 l 292 722 q 316 713 306 722 q 326 688 326 703 l 326 35 q 316 10 326 21 q 292 0 306 0 l 281 0 q 217 -22 238 0 q 197 -78 197 -43 q 217 -133 197 -111 q 281 -154 238 -154 l 297 -154 q 322 -165 311 -154 q 332 -189 332 -175 l 332 -246 q 322 -271 332 -261 q 297 -281 311 -281 l 275 -281 m 126 826 q 101 836 111 826 q 90 861 90 846 l 90 986 q 101 1010 90 1000 q 126 1021 111 1021 l 292 1021 q 317 1010 307 1021 q 328 986 328 1000 l 328 861 q 317 836 328 846 q 292 826 307 826 l 126 826 z "},"ĩ":{"ha":397,"x_min":-40,"x_max":438,"o":"m 117 0 q 92 10 101 0 q 82 35 82 21 l 82 688 q 92 713 82 703 q 117 722 101 722 l 281 722 q 306 713 296 722 q 315 688 315 703 l 315 35 q 306 10 315 21 q 281 0 296 0 l 117 0 m 282 819 q 219 832 243 819 q 176 856 196 844 q 132 868 157 868 q 105 858 114 868 q 89 838 96 849 q 67 826 82 826 l -17 826 q -33 834 -26 826 q -40 850 -40 842 q -33 902 -40 872 q -7 960 -25 932 q 41 1006 11 988 q 114 1025 71 1025 q 177 1013 153 1025 q 221 988 201 1000 q 264 976 240 976 q 291 987 283 976 q 306 1008 299 997 q 329 1018 314 1018 l 413 1018 q 431 1011 424 1018 q 438 993 438 1004 q 429 942 438 971 q 403 884 421 913 q 355 838 385 856 q 282 819 325 819 z "},"j":{"ha":421,"x_min":-74,"x_max":340,"o":"m -39 -264 q -64 -253 -54 -264 q -74 -229 -74 -243 l -74 -117 q -64 -92 -74 -101 q -39 -82 -54 -82 l 13 -82 q 65 -69 47 -82 q 90 -33 83 -56 q 97 19 97 -10 l 97 688 q 108 713 97 703 q 132 722 118 722 l 304 722 q 329 713 319 722 q 339 688 339 703 l 339 14 q 303 -138 339 -76 q 201 -232 268 -200 q 39 -264 135 -264 l -39 -264 m 131 826 q 106 836 117 826 q 96 861 96 846 l 96 986 q 106 1010 96 1000 q 131 1021 117 1021 l 306 1021 q 330 1010 319 1021 q 340 986 340 1000 l 340 861 q 330 836 340 846 q 306 826 319 826 l 131 826 z "},"ȷ":{"ha":558,"x_min":25,"x_max":476,"o":"m 60 -264 q 35 -253 44 -264 q 25 -229 25 -243 l 25 -86 q 35 -61 25 -71 q 60 -51 44 -51 l 149 -51 q 201 -38 183 -51 q 226 -2 219 -25 q 233 50 233 21 l 233 533 l 67 533 q 42 543 53 533 q 32 568 32 553 l 32 688 q 42 713 32 703 q 67 722 53 722 l 442 722 q 467 713 457 722 q 476 688 476 703 l 476 50 q 441 -116 476 -46 q 339 -225 406 -186 q 176 -264 272 -264 l 60 -264 z "},"ĵ":{"ha":558,"x_min":13,"x_max":526,"o":"m 60 -264 q 35 -253 44 -264 q 25 -229 25 -243 l 25 -86 q 35 -61 25 -71 q 60 -51 44 -51 l 149 -51 q 201 -38 183 -51 q 226 -2 219 -25 q 233 50 233 21 l 233 533 l 67 533 q 42 543 53 533 q 32 568 32 553 l 32 688 q 42 713 32 703 q 67 722 53 722 l 442 722 q 467 713 457 722 q 476 688 476 703 l 476 50 q 441 -116 476 -46 q 339 -225 406 -186 q 176 -264 272 -264 l 60 -264 m 35 826 q 14 846 14 826 q 24 868 14 857 l 167 1018 q 191 1038 181 1033 q 215 1042 201 1042 l 325 1042 q 349 1038 339 1042 q 374 1018 360 1033 l 515 868 q 526 846 526 857 q 506 826 526 826 l 439 826 q 415 828 428 826 q 392 836 403 831 l 269 904 l 149 836 q 125 828 138 831 q 100 826 113 826 l 35 826 z "},"k":{"ha":813,"x_min":82,"x_max":803,"o":"m 117 0 q 92 10 101 0 q 82 35 82 21 l 82 951 q 92 976 82 967 q 117 986 101 986 l 278 986 q 302 976 292 986 q 313 951 313 967 l 313 486 l 506 699 q 524 715 514 708 q 551 722 533 722 l 738 722 q 759 713 750 722 q 768 692 768 704 q 766 679 768 686 q 757 668 764 672 l 507 399 l 792 53 q 803 32 803 42 q 794 9 803 18 q 771 0 785 0 l 581 0 q 550 8 560 0 q 532 24 540 15 l 313 288 l 313 35 q 302 10 313 21 q 278 0 292 0 l 117 0 z "},"ķ":{"ha":813,"x_min":82,"x_max":803,"o":"m 117 0 q 92 10 101 0 q 82 35 82 21 l 82 951 q 92 976 82 967 q 117 986 101 986 l 278 986 q 302 976 292 986 q 313 951 313 967 l 313 486 l 506 699 q 524 715 514 708 q 551 722 533 722 l 738 722 q 759 713 750 722 q 768 692 768 704 q 766 679 768 686 q 757 668 764 672 l 507 399 l 792 53 q 803 32 803 42 q 794 9 803 18 q 771 0 785 0 l 581 0 q 550 8 560 0 q 532 24 540 15 l 313 288 l 313 35 q 302 10 313 21 q 278 0 292 0 l 117 0 m 289 -326 q 269 -317 276 -326 q 263 -296 263 -308 l 290 -117 q 305 -84 293 -99 q 340 -69 317 -69 l 485 -69 q 504 -78 496 -69 q 513 -97 513 -86 q 508 -112 513 -106 l 440 -287 q 424 -314 435 -301 q 389 -326 413 -326 l 289 -326 z "},"ĸ":{"ha":813,"x_min":82,"x_max":801,"o":"m 117 0 q 92 10 101 0 q 82 35 82 21 l 82 688 q 92 713 82 703 q 117 722 101 722 l 276 722 q 302 713 292 722 q 313 688 313 703 l 313 446 l 517 699 q 536 715 526 708 q 564 722 546 722 l 739 722 q 762 713 753 722 q 771 692 771 704 q 768 679 771 686 q 760 668 765 672 l 514 367 l 792 53 q 801 32 801 43 q 792 9 801 18 q 771 0 783 0 l 579 0 q 549 8 558 0 q 531 24 539 17 l 313 272 l 313 35 q 302 10 313 21 q 276 0 292 0 l 117 0 z "},"l":{"ha":397,"x_min":82,"x_max":315,"o":"m 117 0 q 92 10 101 0 q 82 35 82 21 l 82 951 q 92 976 82 967 q 117 986 101 986 l 281 986 q 306 976 296 986 q 315 951 315 967 l 315 35 q 306 10 315 21 q 281 0 296 0 l 117 0 z "},"ĺ":{"ha":397,"x_min":82,"x_max":486,"o":"m 117 0 q 92 10 101 0 q 82 35 82 21 l 82 951 q 92 976 82 967 q 117 986 101 986 l 281 986 q 306 976 296 986 q 315 951 315 967 l 315 35 q 306 10 315 21 q 281 0 296 0 l 117 0 m 119 1042 q 97 1064 97 1042 q 104 1082 97 1075 l 226 1231 q 250 1252 240 1247 q 278 1257 260 1257 l 461 1257 q 488 1229 488 1257 q 481 1213 488 1219 l 296 1061 q 274 1047 285 1051 q 243 1042 263 1042 l 119 1042 z "},"ľ":{"ha":533,"x_min":82,"x_max":636,"o":"m 117 0 q 92 10 101 0 q 82 35 82 21 l 82 951 q 92 976 82 967 q 117 986 101 986 l 281 986 q 306 976 296 986 q 315 951 315 967 l 315 35 q 306 10 315 21 q 281 0 296 0 l 117 0 m 414 729 q 394 738 401 729 q 388 760 388 747 l 415 939 q 430 972 418 957 q 465 986 442 986 l 610 986 q 629 978 621 986 q 638 958 638 969 q 633 943 638 950 l 565 768 q 549 742 560 754 q 514 729 538 729 l 414 729 z "},"ļ":{"ha":397,"x_min":56,"x_max":315,"o":"m 117 0 q 92 10 101 0 q 82 35 82 21 l 82 951 q 92 976 82 967 q 117 986 101 986 l 281 986 q 306 976 296 986 q 315 951 315 967 l 315 35 q 306 10 315 21 q 281 0 296 0 l 117 0 m 82 -326 q 63 -317 69 -326 q 56 -296 56 -308 l 83 -117 q 98 -84 86 -99 q 133 -69 110 -69 l 278 -69 q 297 -78 289 -69 q 306 -97 306 -86 q 301 -112 306 -106 l 233 -287 q 217 -314 228 -301 q 182 -326 206 -326 l 82 -326 z "},"ŀ":{"ha":583,"x_min":82,"x_max":592,"o":"m 117 0 q 92 10 101 0 q 82 35 82 21 l 82 951 q 92 976 82 967 q 117 986 101 986 l 281 986 q 306 976 296 986 q 315 951 315 967 l 315 35 q 306 10 315 21 q 281 0 296 0 l 117 0 m 421 400 q 397 408 406 400 q 389 432 389 417 l 389 571 q 397 594 389 585 q 421 603 406 603 l 560 603 q 583 594 574 603 q 592 571 592 585 l 592 432 q 583 408 592 417 q 560 400 574 400 l 421 400 z "},"ł":{"ha":476,"x_min":33,"x_max":444,"o":"m 157 0 q 132 10 142 0 q 122 35 122 21 l 122 364 l 78 347 q 61 343 68 343 q 42 351 50 343 q 33 371 33 358 l 33 475 q 40 502 33 493 q 64 517 47 511 l 122 538 l 122 951 q 132 976 122 967 q 157 986 142 986 l 321 986 q 346 976 336 986 q 356 951 356 967 l 356 629 l 400 646 q 417 650 411 650 q 436 642 428 650 q 444 622 444 635 l 444 519 q 438 494 444 503 q 414 478 431 485 l 356 454 l 356 35 q 346 10 356 21 q 321 0 336 0 l 157 0 z "},"m":{"ha":1272,"x_min":82,"x_max":1197,"o":"m 117 0 q 92 10 101 0 q 82 35 82 21 l 82 688 q 92 713 82 703 q 117 722 101 722 l 268 722 q 293 713 283 722 q 303 688 303 703 l 303 640 q 381 706 331 678 q 499 736 431 735 q 719 617 660 740 q 810 703 751 669 q 940 736 869 736 q 1070 703 1013 736 q 1163 603 1128 671 q 1197 429 1197 536 l 1197 35 q 1188 10 1197 21 q 1163 0 1178 0 l 1001 0 q 976 10 986 0 q 965 35 965 21 l 965 419 q 951 497 965 468 q 914 538 938 525 q 860 550 890 550 q 810 538 835 550 q 772 497 786 525 q 757 419 757 468 l 757 35 q 747 10 757 21 q 722 0 738 0 l 561 0 q 536 10 546 0 q 526 35 526 21 l 526 419 q 511 497 526 468 q 472 538 496 525 q 421 550 449 550 q 370 538 394 550 q 331 497 346 525 q 317 421 317 468 l 317 35 q 306 10 317 21 q 282 0 296 0 l 117 0 z "},"n":{"ha":893,"x_min":82,"x_max":818,"o":"m 117 0 q 92 10 101 0 q 82 35 82 21 l 82 688 q 92 713 82 703 q 117 722 101 722 l 276 722 q 302 713 292 722 q 313 688 313 703 l 313 635 q 406 707 347 678 q 543 736 464 736 q 685 700 624 736 q 783 594 747 664 q 818 422 818 525 l 818 35 q 808 10 818 21 q 783 0 799 0 l 608 0 q 584 10 594 0 q 574 35 574 21 l 574 414 q 542 515 574 479 q 450 550 511 550 q 359 515 393 550 q 325 414 325 479 l 325 35 q 315 10 325 21 q 290 0 304 0 l 117 0 z "},"ń":{"ha":893,"x_min":82,"x_max":818,"o":"m 117 0 q 92 10 101 0 q 82 35 82 21 l 82 688 q 92 713 82 703 q 117 722 101 722 l 276 722 q 302 713 292 722 q 313 688 313 703 l 313 635 q 406 707 347 678 q 543 736 464 736 q 685 700 624 736 q 783 594 747 664 q 818 422 818 525 l 818 35 q 808 10 818 21 q 783 0 799 0 l 608 0 q 584 10 594 0 q 574 35 574 21 l 574 414 q 542 515 574 479 q 450 550 511 550 q 359 515 393 550 q 325 414 325 479 l 325 35 q 315 10 325 21 q 290 0 304 0 l 117 0 m 369 826 q 347 849 347 826 q 354 867 347 860 l 476 1015 q 500 1037 490 1032 q 528 1042 510 1042 l 711 1042 q 738 1014 738 1042 q 731 997 738 1004 l 546 846 q 524 831 535 836 q 493 826 513 826 l 369 826 z "},"ŉ":{"ha":893,"x_min":-85,"x_max":818,"o":"m -58 781 q -78 790 -71 781 q -85 811 -85 799 l -57 990 q -42 1023 -54 1008 q -7 1038 -31 1038 l 138 1038 q 157 1029 149 1038 q 165 1010 165 1021 q 161 994 165 1001 l 93 819 q 76 793 88 806 q 42 781 65 781 l -58 781 m 117 0 q 92 10 101 0 q 82 35 82 21 l 82 688 q 92 713 82 703 q 117 722 101 722 l 276 722 q 302 713 292 722 q 313 688 313 703 l 313 635 q 406 707 347 678 q 543 736 464 736 q 685 700 624 736 q 783 594 747 664 q 818 422 818 525 l 818 35 q 808 10 818 21 q 783 0 799 0 l 608 0 q 584 10 594 0 q 574 35 574 21 l 574 414 q 542 515 574 479 q 450 550 511 550 q 359 515 393 550 q 325 414 325 479 l 325 35 q 315 10 325 21 q 290 0 304 0 l 117 0 z "},"ň":{"ha":893,"x_min":82,"x_max":818,"o":"m 117 0 q 92 10 101 0 q 82 35 82 21 l 82 688 q 92 713 82 703 q 117 722 101 722 l 276 722 q 302 713 292 722 q 313 688 313 703 l 313 635 q 406 707 347 678 q 543 736 464 736 q 685 700 624 736 q 783 594 747 664 q 818 422 818 525 l 818 35 q 808 10 818 21 q 783 0 799 0 l 608 0 q 584 10 594 0 q 574 35 574 21 l 574 414 q 542 515 574 479 q 450 550 511 550 q 359 515 393 550 q 325 414 325 479 l 325 35 q 315 10 325 21 q 290 0 304 0 l 117 0 m 396 826 q 372 831 382 826 q 347 850 361 836 l 204 1000 q 194 1022 194 1011 q 215 1042 194 1042 l 281 1042 q 306 1040 293 1042 q 329 1032 318 1038 l 450 964 l 572 1032 q 596 1040 583 1038 q 619 1042 608 1042 l 686 1042 q 707 1022 707 1042 q 696 1000 707 1011 l 554 850 q 530 831 540 836 q 506 826 519 826 l 396 826 z "},"ņ":{"ha":893,"x_min":82,"x_max":818,"o":"m 117 0 q 92 10 101 0 q 82 35 82 21 l 82 688 q 92 713 82 703 q 117 722 101 722 l 276 722 q 302 713 292 722 q 313 688 313 703 l 313 635 q 406 707 347 678 q 543 736 464 736 q 685 700 624 736 q 783 594 747 664 q 818 422 818 525 l 818 35 q 808 10 818 21 q 783 0 799 0 l 608 0 q 584 10 594 0 q 574 35 574 21 l 574 414 q 542 515 574 479 q 450 550 511 550 q 359 515 393 550 q 325 414 325 479 l 325 35 q 315 10 325 21 q 290 0 304 0 l 117 0 m 335 -326 q 315 -317 322 -326 q 308 -296 308 -308 l 336 -117 q 351 -84 339 -99 q 386 -69 363 -69 l 531 -69 q 550 -78 542 -69 q 558 -97 558 -86 q 554 -112 558 -106 l 486 -287 q 469 -314 481 -301 q 435 -326 458 -326 l 335 -326 z "},"ñ":{"ha":893,"x_min":82,"x_max":818,"o":"m 117 0 q 92 10 101 0 q 82 35 82 21 l 82 688 q 92 713 82 703 q 117 722 101 722 l 276 722 q 302 713 292 722 q 313 688 313 703 l 313 635 q 406 707 347 678 q 543 736 464 736 q 685 700 624 736 q 783 594 747 664 q 818 422 818 525 l 818 35 q 808 10 818 21 q 783 0 799 0 l 608 0 q 584 10 594 0 q 574 35 574 21 l 574 414 q 542 515 574 479 q 450 550 511 550 q 359 515 393 550 q 325 414 325 479 l 325 35 q 315 10 325 21 q 290 0 304 0 l 117 0 m 533 819 q 471 832 494 819 q 428 856 447 844 q 383 868 408 868 q 356 858 365 868 q 340 838 347 849 q 318 826 333 826 l 235 826 q 218 834 225 826 q 211 850 211 842 q 219 902 211 872 q 244 960 226 932 q 292 1006 263 988 q 365 1025 322 1025 q 428 1013 404 1025 q 472 988 453 1000 q 515 976 492 976 q 542 987 535 976 q 558 1008 550 997 q 581 1018 565 1018 l 664 1018 q 682 1011 675 1018 q 689 993 689 1004 q 681 942 689 971 q 654 884 672 913 q 606 838 636 856 q 533 819 576 819 z "},"ŋ":{"ha":893,"x_min":82,"x_max":818,"o":"m 433 -312 q 408 -302 418 -312 q 397 -278 397 -292 l 397 -140 q 408 -116 397 -126 q 433 -106 418 -106 l 468 -106 q 532 -92 510 -106 q 564 -49 554 -78 q 574 22 574 -21 l 574 414 q 542 515 574 479 q 450 550 511 550 q 359 515 393 550 q 325 414 325 479 l 325 35 q 315 10 325 21 q 290 0 304 0 l 117 0 q 92 10 101 0 q 82 35 82 21 l 82 688 q 92 713 82 703 q 117 722 101 722 l 276 722 q 302 713 292 722 q 313 688 313 703 l 313 635 q 406 707 347 678 q 543 736 464 736 q 685 700 624 736 q 783 594 747 664 q 818 422 818 525 l 818 13 q 775 -167 818 -94 q 651 -276 732 -239 q 460 -312 571 -312 l 433 -312 z "},"o":{"ha":849,"x_min":56,"x_max":793,"o":"m 424 -14 q 227 24 307 -14 q 105 131 147 61 q 57 299 63 201 q 56 362 56 326 q 57 424 56 397 q 107 592 63 522 q 231 699 151 661 q 424 736 311 736 q 617 699 538 736 q 742 592 697 661 q 792 424 786 522 q 793 362 793 397 q 792 299 793 326 q 744 131 786 201 q 622 24 701 61 q 424 -14 542 -14 m 424 156 q 515 193 486 156 q 547 306 543 231 q 549 361 549 326 q 547 417 549 396 q 515 528 543 490 q 424 567 486 567 q 334 528 364 567 q 301 417 304 490 q 300 361 300 396 q 301 306 300 326 q 334 193 304 231 q 424 156 364 156 z "},"ó":{"ha":849,"x_min":56,"x_max":793,"o":"m 424 -14 q 227 24 307 -14 q 105 131 147 61 q 57 299 63 201 q 56 362 56 326 q 57 424 56 397 q 107 592 63 522 q 231 699 151 661 q 424 736 311 736 q 617 699 538 736 q 742 592 697 661 q 792 424 786 522 q 793 362 793 397 q 792 299 793 326 q 744 131 786 201 q 622 24 701 61 q 424 -14 542 -14 m 424 156 q 515 193 486 156 q 547 306 543 231 q 549 361 549 326 q 547 417 549 396 q 515 528 543 490 q 424 567 486 567 q 334 528 364 567 q 301 417 304 490 q 300 361 300 396 q 301 306 300 326 q 334 193 304 231 q 424 156 364 156 m 343 826 q 321 849 321 826 q 328 867 321 860 l 450 1015 q 474 1037 464 1032 q 501 1042 483 1042 l 685 1042 q 711 1014 711 1042 q 704 997 711 1004 l 519 846 q 497 831 508 836 q 467 826 486 826 l 343 826 z "},"ŏ":{"ha":849,"x_min":56,"x_max":793,"o":"m 424 -14 q 227 24 307 -14 q 105 131 147 61 q 57 299 63 201 q 56 362 56 326 q 57 424 56 397 q 107 592 63 522 q 231 699 151 661 q 424 736 311 736 q 617 699 538 736 q 742 592 697 661 q 792 424 786 522 q 793 362 793 397 q 792 299 793 326 q 744 131 786 201 q 622 24 701 61 q 424 -14 542 -14 m 424 156 q 515 193 486 156 q 547 306 543 231 q 549 361 549 326 q 547 417 549 396 q 515 528 543 490 q 424 567 486 567 q 334 528 364 567 q 301 417 304 490 q 300 361 300 396 q 301 306 300 326 q 334 193 304 231 q 424 156 364 156 m 424 819 q 307 846 353 819 q 239 917 261 872 q 217 1015 217 961 q 224 1034 217 1026 q 243 1042 231 1042 l 333 1042 q 353 1034 346 1042 q 360 1015 360 1026 q 374 958 360 983 q 424 933 388 933 q 476 958 463 933 q 489 1015 489 983 q 496 1034 489 1026 q 515 1042 503 1042 l 604 1042 q 624 1034 617 1042 q 631 1015 631 1026 q 608 917 631 961 q 540 846 586 872 q 424 819 494 819 z "},"ô":{"ha":849,"x_min":56,"x_max":793,"o":"m 424 -14 q 227 24 307 -14 q 105 131 147 61 q 57 299 63 201 q 56 362 56 326 q 57 424 56 397 q 107 592 63 522 q 231 699 151 661 q 424 736 311 736 q 617 699 538 736 q 742 592 697 661 q 792 424 786 522 q 793 362 793 397 q 792 299 793 326 q 744 131 786 201 q 622 24 701 61 q 424 -14 542 -14 m 424 156 q 515 193 486 156 q 547 306 543 231 q 549 361 549 326 q 547 417 549 396 q 515 528 543 490 q 424 567 486 567 q 334 528 364 567 q 301 417 304 490 q 300 361 300 396 q 301 306 300 326 q 334 193 304 231 q 424 156 364 156 m 189 826 q 168 846 168 826 q 178 868 168 857 l 321 1018 q 345 1038 335 1033 q 369 1042 356 1042 l 479 1042 q 503 1038 493 1042 q 528 1018 514 1033 l 669 868 q 681 846 681 857 q 660 826 681 826 l 593 826 q 569 828 582 826 q 546 836 557 831 l 424 904 l 303 836 q 279 828 292 831 q 254 826 267 826 l 189 826 z "},"ö":{"ha":849,"x_min":56,"x_max":793,"o":"m 424 -14 q 227 24 307 -14 q 105 131 147 61 q 57 299 63 201 q 56 362 56 326 q 57 424 56 397 q 107 592 63 522 q 231 699 151 661 q 424 736 311 736 q 617 699 538 736 q 742 592 697 661 q 792 424 786 522 q 793 362 793 397 q 792 299 793 326 q 744 131 786 201 q 622 24 701 61 q 424 -14 542 -14 m 424 156 q 515 193 486 156 q 547 306 543 231 q 549 361 549 326 q 547 417 549 396 q 515 528 543 490 q 424 567 486 567 q 334 528 364 567 q 301 417 304 490 q 300 361 300 396 q 301 306 300 326 q 334 193 304 231 q 424 156 364 156 m 503 843 q 480 851 489 843 q 471 875 471 860 l 471 1001 q 480 1024 471 1015 q 503 1033 489 1033 l 631 1033 q 653 1024 644 1033 q 663 1001 663 1015 l 663 875 q 653 851 663 860 q 631 843 644 843 l 503 843 m 215 843 q 193 851 201 843 q 185 875 185 860 l 185 1001 q 193 1024 185 1015 q 215 1033 201 1033 l 343 1033 q 366 1024 357 1033 q 375 1001 375 1015 l 375 875 q 366 851 375 860 q 343 843 357 843 l 215 843 z "},"ò":{"ha":849,"x_min":56,"x_max":793,"o":"m 424 -14 q 227 24 307 -14 q 105 131 147 61 q 57 299 63 201 q 56 362 56 326 q 57 424 56 397 q 107 592 63 522 q 231 699 151 661 q 424 736 311 736 q 617 699 538 736 q 742 592 697 661 q 792 424 786 522 q 793 362 793 397 q 792 299 793 326 q 744 131 786 201 q 622 24 701 61 q 424 -14 542 -14 m 424 156 q 515 193 486 156 q 547 306 543 231 q 549 361 549 326 q 547 417 549 396 q 515 528 543 490 q 424 567 486 567 q 334 528 364 567 q 301 417 304 490 q 300 361 300 396 q 301 306 300 326 q 334 193 304 231 q 424 156 364 156 m 385 826 q 354 831 365 826 q 332 846 343 836 l 147 997 q 140 1015 140 1004 q 167 1042 140 1042 l 350 1042 q 378 1037 368 1042 q 401 1015 388 1032 l 524 867 q 531 849 531 860 q 508 826 531 826 l 385 826 z "},"ő":{"ha":849,"x_min":56,"x_max":793,"o":"m 424 -14 q 227 24 307 -14 q 105 131 147 61 q 57 299 63 201 q 56 362 56 326 q 57 424 56 397 q 107 592 63 522 q 231 699 151 661 q 424 736 311 736 q 617 699 538 736 q 742 592 697 661 q 792 424 786 522 q 793 362 793 397 q 792 299 793 326 q 744 131 786 201 q 622 24 701 61 q 424 -14 542 -14 m 424 156 q 515 193 486 156 q 547 306 543 231 q 549 361 549 326 q 547 417 549 396 q 515 528 543 490 q 424 567 486 567 q 334 528 364 567 q 301 417 304 490 q 300 361 300 396 q 301 306 300 326 q 334 193 304 231 q 424 156 364 156 m 506 826 q 483 849 483 826 q 486 860 483 854 q 490 869 489 865 l 557 1015 q 608 1042 569 1042 l 754 1042 q 782 1015 782 1042 q 774 997 782 1006 l 638 846 q 592 826 621 826 l 506 826 m 210 826 q 188 849 188 826 q 190 860 188 854 q 194 869 193 865 l 260 1015 q 311 1042 272 1042 l 457 1042 q 485 1015 485 1042 q 476 997 485 1006 l 340 846 q 296 826 324 826 l 210 826 z "},"ō":{"ha":849,"x_min":56,"x_max":793,"o":"m 424 -14 q 227 24 307 -14 q 105 131 147 61 q 57 299 63 201 q 56 362 56 326 q 57 424 56 397 q 107 592 63 522 q 231 699 151 661 q 424 736 311 736 q 617 699 538 736 q 742 592 697 661 q 792 424 786 522 q 793 362 793 397 q 792 299 793 326 q 744 131 786 201 q 622 24 701 61 q 424 -14 542 -14 m 424 156 q 515 193 486 156 q 547 306 543 231 q 549 361 549 326 q 547 417 549 396 q 515 528 543 490 q 424 567 486 567 q 334 528 364 567 q 301 417 304 490 q 300 361 300 396 q 301 306 300 326 q 334 193 304 231 q 424 156 364 156 m 229 840 q 207 849 215 840 q 199 872 199 857 l 199 969 q 207 992 199 983 q 229 1001 215 1001 l 617 1001 q 640 992 631 1001 q 649 969 649 983 l 649 872 q 640 849 649 857 q 617 840 631 840 l 229 840 z "},"ø":{"ha":849,"x_min":56,"x_max":793,"o":"m 424 -14 q 227 24 307 -14 q 105 131 147 61 q 57 299 63 201 q 56 362 56 326 q 57 424 56 397 q 107 592 63 522 q 231 699 151 661 q 424 736 311 736 q 617 699 538 736 q 742 592 697 661 q 792 424 786 522 q 793 362 793 397 q 792 299 793 326 q 744 131 786 201 q 622 24 701 61 q 424 -14 542 -14 m 424 156 q 515 193 486 156 q 547 306 543 231 q 549 361 549 326 q 547 417 549 396 q 515 528 543 490 q 424 567 486 567 q 334 528 364 567 q 301 417 304 490 q 300 361 300 396 q 301 306 300 326 q 334 193 304 231 q 424 156 364 156 m 90 -39 q 71 -31 79 -39 q 63 -11 63 -22 q 64 -2 63 -7 q 71 8 65 3 l 681 739 q 693 752 685 744 q 715 760 701 760 l 757 760 q 776 751 768 760 q 785 732 785 743 q 784 724 785 731 q 778 711 783 718 l 168 -18 q 156 -31 164 -24 q 135 -39 149 -39 l 90 -39 z "},"ǿ":{"ha":849,"x_min":56,"x_max":793,"o":"m 424 -14 q 227 24 307 -14 q 105 131 147 61 q 57 299 63 201 q 56 362 56 326 q 57 424 56 397 q 107 592 63 522 q 231 699 151 661 q 424 736 311 736 q 617 699 538 736 q 742 592 697 661 q 792 424 786 522 q 793 362 793 397 q 792 299 793 326 q 744 131 786 201 q 622 24 701 61 q 424 -14 542 -14 m 424 156 q 515 193 486 156 q 547 306 543 231 q 549 361 549 326 q 547 417 549 396 q 515 528 543 490 q 424 567 486 567 q 334 528 364 567 q 301 417 304 490 q 300 361 300 396 q 301 306 300 326 q 334 193 304 231 q 424 156 364 156 m 90 -39 q 71 -31 79 -39 q 63 -11 63 -22 q 64 -2 63 -7 q 71 8 65 3 l 681 739 q 693 752 685 744 q 715 760 701 760 l 757 760 q 776 751 768 760 q 785 732 785 743 q 784 724 785 731 q 778 711 783 718 l 168 -18 q 156 -31 164 -24 q 135 -39 149 -39 l 90 -39 m 343 826 q 321 849 321 826 q 328 867 321 860 l 450 1015 q 474 1037 464 1032 q 501 1042 483 1042 l 685 1042 q 711 1014 711 1042 q 704 997 711 1004 l 519 846 q 497 831 508 836 q 467 826 486 826 l 343 826 z "},"õ":{"ha":849,"x_min":56,"x_max":793,"o":"m 424 -14 q 227 24 307 -14 q 105 131 147 61 q 57 299 63 201 q 56 362 56 326 q 57 424 56 397 q 107 592 63 522 q 231 699 151 661 q 424 736 311 736 q 617 699 538 736 q 742 592 697 661 q 792 424 786 522 q 793 362 793 397 q 792 299 793 326 q 744 131 786 201 q 622 24 701 61 q 424 -14 542 -14 m 424 156 q 515 193 486 156 q 547 306 543 231 q 549 361 549 326 q 547 417 549 396 q 515 528 543 490 q 424 567 486 567 q 334 528 364 567 q 301 417 304 490 q 300 361 300 396 q 301 306 300 326 q 334 193 304 231 q 424 156 364 156 m 507 819 q 444 832 468 819 q 401 856 421 844 q 357 868 382 868 q 330 858 339 868 q 314 838 321 849 q 292 826 307 826 l 208 826 q 192 834 199 826 q 185 850 185 842 q 192 902 185 872 q 218 960 200 932 q 266 1006 236 988 q 339 1025 296 1025 q 402 1013 378 1025 q 446 988 426 1000 q 489 976 465 976 q 516 987 508 976 q 531 1008 524 997 q 554 1018 539 1018 l 638 1018 q 656 1011 649 1018 q 663 993 663 1004 q 654 942 663 971 q 628 884 646 913 q 580 838 610 856 q 507 819 550 819 z "},"œ":{"ha":1321,"x_min":56,"x_max":1274,"o":"m 425 -14 q 227 24 307 -14 q 105 131 147 61 q 57 299 63 201 q 56 362 56 326 q 57 424 56 397 q 107 592 63 522 q 231 699 151 661 q 425 736 311 736 q 570 713 507 736 q 676 647 633 689 q 778 713 718 689 q 911 736 838 736 q 1113 688 1033 736 q 1233 556 1193 639 q 1274 365 1274 472 l 1274 332 q 1264 307 1274 317 q 1239 297 1254 297 l 794 297 l 794 288 q 809 214 796 247 q 848 161 822 181 q 911 142 874 142 q 956 151 938 142 q 986 172 974 160 q 1006 192 999 183 q 1026 210 1018 207 q 1050 214 1033 214 l 1222 214 q 1245 206 1236 214 q 1253 183 1254 197 q 1229 126 1251 160 q 1165 60 1207 93 q 1060 7 1124 28 q 913 -14 996 -14 q 777 8 838 -14 q 674 72 717 31 q 570 9 632 32 q 425 -14 508 -14 m 425 156 q 515 193 486 156 q 547 306 544 231 q 549 361 549 326 q 547 417 549 396 q 515 528 544 490 q 425 567 486 567 q 335 528 364 567 q 301 417 306 490 q 300 361 300 396 q 301 306 300 326 q 335 193 306 231 q 425 156 364 156 m 794 435 l 1029 435 l 1029 438 q 1016 516 1029 483 q 976 567 1003 549 q 911 585 949 585 q 849 567 875 585 q 808 516 822 549 q 794 438 794 483 l 794 435 z "},"p":{"ha":876,"x_min":82,"x_max":821,"o":"m 117 -264 q 92 -253 101 -264 q 82 -229 82 -243 l 82 688 q 92 713 82 703 q 117 722 101 722 l 274 722 q 298 713 288 722 q 308 688 308 703 l 308 638 q 394 708 342 679 q 524 736 447 736 q 646 715 593 736 q 737 651 699 693 q 796 550 775 610 q 819 413 817 490 q 821 361 821 385 q 819 310 821 338 q 796 175 817 235 q 738 74 775 115 q 647 9 700 32 q 524 -14 593 -14 q 405 10 456 -14 q 321 79 354 35 l 321 -229 q 311 -253 321 -243 q 286 -264 301 -264 l 117 -264 m 449 172 q 522 192 496 172 q 560 244 549 211 q 575 318 572 278 q 575 404 578 361 q 560 478 572 444 q 522 531 549 511 q 449 550 496 550 q 376 530 404 550 q 336 478 349 510 q 321 408 324 446 q 319 357 319 382 q 321 304 319 332 q 336 240 322 269 q 378 191 350 210 q 449 172 406 172 z "},"þ":{"ha":878,"x_min":83,"x_max":822,"o":"m 118 -264 q 93 -253 103 -264 q 83 -229 83 -243 l 83 951 q 93 976 83 967 q 118 986 103 986 l 288 986 q 312 976 301 986 q 322 951 322 967 l 322 646 q 401 713 356 689 q 525 736 447 736 q 647 715 594 736 q 738 651 700 693 q 796 550 775 610 q 821 413 817 490 q 822 361 822 385 q 821 310 822 338 q 797 175 818 235 q 738 74 776 115 q 647 9 700 32 q 525 -14 594 -14 q 406 10 456 -14 q 322 79 356 35 l 322 -229 q 312 -253 322 -243 q 288 -264 301 -264 l 118 -264 m 450 172 q 524 192 497 172 q 562 244 550 211 q 576 318 574 278 q 576 404 579 361 q 562 478 574 444 q 524 531 550 511 q 450 550 497 550 q 376 530 404 550 q 336 478 349 510 q 322 408 324 446 q 321 357 321 382 q 322 304 321 332 q 338 240 324 269 q 379 191 351 210 q 450 172 407 172 z "},"q":{"ha":876,"x_min":56,"x_max":794,"o":"m 590 -264 q 565 -253 575 -264 q 556 -229 556 -243 l 556 79 q 472 10 524 35 q 353 -14 421 -14 q 231 9 285 -14 q 139 74 176 32 q 81 175 101 115 q 57 310 60 235 q 56 361 56 338 q 57 413 56 385 q 82 550 61 490 q 140 651 103 610 q 231 715 178 693 q 353 736 285 736 q 483 708 431 736 q 568 638 536 679 l 568 688 q 578 713 568 703 q 603 722 589 722 l 760 722 q 785 713 775 722 q 794 688 794 703 l 794 -229 q 785 -253 794 -243 q 760 -264 775 -264 l 590 -264 m 428 172 q 499 191 472 172 q 540 240 526 210 q 556 304 554 269 q 558 357 558 332 q 556 408 558 382 q 542 478 554 446 q 501 530 529 510 q 428 550 474 550 q 355 531 382 550 q 316 478 328 511 q 301 404 304 444 q 301 318 299 361 q 316 244 304 278 q 355 192 328 211 q 428 172 382 172 z "},"r":{"ha":631,"x_min":82,"x_max":614,"o":"m 117 0 q 92 10 101 0 q 82 35 82 21 l 82 688 q 92 712 82 701 q 117 722 101 722 l 276 722 q 302 712 292 722 q 313 688 313 701 l 313 632 q 401 699 349 675 q 518 722 453 722 l 579 722 q 604 713 594 722 q 614 688 614 703 l 614 544 q 604 520 614 531 q 579 510 594 510 l 444 510 q 356 478 388 510 q 325 390 325 447 l 325 35 q 315 10 325 21 q 289 0 304 0 l 117 0 z "},"ŕ":{"ha":631,"x_min":82,"x_max":626,"o":"m 117 0 q 92 10 101 0 q 82 35 82 21 l 82 688 q 92 712 82 701 q 117 722 101 722 l 276 722 q 302 712 292 722 q 313 688 313 701 l 313 632 q 401 699 349 675 q 518 722 453 722 l 579 722 q 604 713 594 722 q 614 688 614 703 l 614 544 q 604 520 614 531 q 579 510 594 510 l 444 510 q 356 478 388 510 q 325 390 325 447 l 325 35 q 315 10 325 21 q 289 0 304 0 l 117 0 m 260 826 q 238 849 238 826 q 244 867 238 860 l 367 1015 q 390 1037 381 1032 q 418 1042 400 1042 l 601 1042 q 628 1014 628 1042 q 621 997 628 1004 l 436 846 q 414 831 425 836 q 383 826 403 826 l 260 826 z "},"ř":{"ha":631,"x_min":82,"x_max":614,"o":"m 117 0 q 92 10 101 0 q 82 35 82 21 l 82 688 q 92 712 82 701 q 117 722 101 722 l 276 722 q 302 712 292 722 q 313 688 313 701 l 313 632 q 401 699 349 675 q 518 722 453 722 l 579 722 q 604 713 594 722 q 614 688 614 703 l 614 544 q 604 520 614 531 q 579 510 594 510 l 444 510 q 356 478 388 510 q 325 390 325 447 l 325 35 q 315 10 325 21 q 289 0 304 0 l 117 0 m 286 826 q 262 831 272 826 q 238 850 251 836 l 94 1000 q 85 1022 85 1011 q 106 1042 85 1042 l 171 1042 q 196 1040 183 1042 q 219 1032 208 1038 l 340 964 l 463 1032 q 486 1040 474 1038 q 510 1042 499 1042 l 576 1042 q 597 1022 597 1042 q 586 1000 597 1011 l 444 850 q 420 831 431 836 q 396 826 410 826 l 286 826 z "},"ŗ":{"ha":631,"x_min":57,"x_max":614,"o":"m 117 0 q 92 10 101 0 q 82 35 82 21 l 82 688 q 92 712 82 701 q 117 722 101 722 l 276 722 q 302 712 292 722 q 313 688 313 701 l 313 632 q 401 699 349 675 q 518 722 453 722 l 579 722 q 604 713 594 722 q 614 688 614 703 l 614 544 q 604 520 614 531 q 579 510 594 510 l 444 510 q 356 478 388 510 q 325 390 325 447 l 325 35 q 315 10 325 21 q 289 0 304 0 l 117 0 m 83 -326 q 64 -317 71 -326 q 57 -296 57 -308 l 85 -117 q 99 -84 88 -99 q 135 -69 111 -69 l 279 -69 q 299 -78 290 -69 q 307 -97 307 -86 q 303 -112 307 -106 l 235 -287 q 218 -314 229 -301 q 183 -326 207 -326 l 83 -326 z "},"s":{"ha":768,"x_min":42,"x_max":726,"o":"m 379 -14 q 226 6 289 -14 q 123 56 163 26 q 64 116 83 85 q 43 171 44 147 q 53 196 42 186 q 76 206 64 206 l 235 206 q 242 204 239 206 q 250 199 246 203 q 286 174 268 189 q 328 149 304 160 q 385 138 351 138 q 450 153 424 138 q 476 199 476 169 q 464 235 476 221 q 413 264 451 250 q 299 292 375 278 q 172 335 226 308 q 89 406 118 363 q 60 513 60 450 q 96 619 60 568 q 201 703 132 671 q 374 736 271 736 q 513 717 453 736 q 613 669 572 699 q 674 610 653 640 q 696 554 694 579 q 688 530 697 540 q 665 519 678 519 l 521 519 q 510 522 515 519 q 500 526 504 524 q 467 549 483 535 q 428 574 450 563 q 372 585 406 585 q 314 568 335 585 q 293 525 293 551 q 305 492 293 507 q 353 464 317 476 q 468 436 390 451 q 621 387 564 421 q 702 308 678 353 q 726 213 726 263 q 686 94 726 146 q 569 15 646 43 q 379 -14 492 -14 z "},"ś":{"ha":768,"x_min":42,"x_max":726,"o":"m 379 -14 q 226 6 289 -14 q 123 56 163 26 q 64 116 83 85 q 43 171 44 147 q 53 196 42 186 q 76 206 64 206 l 235 206 q 242 204 239 206 q 250 199 246 203 q 286 174 268 189 q 328 149 304 160 q 385 138 351 138 q 450 153 424 138 q 476 199 476 169 q 464 235 476 221 q 413 264 451 250 q 299 292 375 278 q 172 335 226 308 q 89 406 118 363 q 60 513 60 450 q 96 619 60 568 q 201 703 132 671 q 374 736 271 736 q 513 717 453 736 q 613 669 572 699 q 674 610 653 640 q 696 554 694 579 q 688 530 697 540 q 665 519 678 519 l 521 519 q 510 522 515 519 q 500 526 504 524 q 467 549 483 535 q 428 574 450 563 q 372 585 406 585 q 314 568 335 585 q 293 525 293 551 q 305 492 293 507 q 353 464 317 476 q 468 436 390 451 q 621 387 564 421 q 702 308 678 353 q 726 213 726 263 q 686 94 726 146 q 569 15 646 43 q 379 -14 492 -14 m 303 826 q 281 849 281 826 q 288 867 281 860 l 410 1015 q 433 1037 424 1032 q 461 1042 443 1042 l 644 1042 q 671 1014 671 1042 q 664 997 671 1004 l 479 846 q 457 831 468 836 q 426 826 446 826 l 303 826 z "},"š":{"ha":768,"x_min":42,"x_max":726,"o":"m 379 -14 q 226 6 289 -14 q 123 56 163 26 q 64 116 83 85 q 43 171 44 147 q 53 196 42 186 q 76 206 64 206 l 235 206 q 242 204 239 206 q 250 199 246 203 q 286 174 268 189 q 328 149 304 160 q 385 138 351 138 q 450 153 424 138 q 476 199 476 169 q 464 235 476 221 q 413 264 451 250 q 299 292 375 278 q 172 335 226 308 q 89 406 118 363 q 60 513 60 450 q 96 619 60 568 q 201 703 132 671 q 374 736 271 736 q 513 717 453 736 q 613 669 572 699 q 674 610 653 640 q 696 554 694 579 q 688 530 697 540 q 665 519 678 519 l 521 519 q 510 522 515 519 q 500 526 504 524 q 467 549 483 535 q 428 574 450 563 q 372 585 406 585 q 314 568 335 585 q 293 525 293 551 q 305 492 293 507 q 353 464 317 476 q 468 436 390 451 q 621 387 564 421 q 702 308 678 353 q 726 213 726 263 q 686 94 726 146 q 569 15 646 43 q 379 -14 492 -14 m 328 826 q 303 831 314 826 q 279 850 293 836 l 136 1000 q 126 1022 126 1011 q 147 1042 126 1042 l 213 1042 q 238 1040 225 1042 q 261 1032 250 1038 l 382 964 l 504 1032 q 528 1040 515 1038 q 551 1042 540 1042 l 618 1042 q 639 1022 639 1042 q 628 1000 639 1011 l 486 850 q 462 831 472 836 q 438 826 451 826 l 328 826 z "},"ş":{"ha":768,"x_min":42,"x_max":726,"o":"m 394 -306 q 328 -293 358 -306 q 285 -264 297 -281 q 286 -235 272 -247 l 311 -212 q 333 -205 324 -201 q 356 -216 342 -208 q 394 -224 369 -224 q 429 -212 417 -224 q 442 -182 442 -200 q 429 -153 442 -165 q 394 -142 417 -142 q 365 -147 379 -142 q 339 -152 350 -151 q 317 -144 328 -153 l 290 -117 q 283 -99 282 -108 q 292 -72 283 -89 l 318 -10 q 160 33 221 1 q 72 104 100 65 q 43 171 44 143 q 53 196 42 186 q 76 206 64 206 l 228 206 q 237 204 233 206 q 246 199 240 203 q 284 174 267 189 q 326 149 301 160 q 385 138 350 138 q 450 153 424 138 q 476 199 476 169 q 464 235 476 221 q 413 264 451 250 q 299 292 375 278 q 172 335 226 308 q 89 406 118 363 q 60 513 60 450 q 96 619 60 568 q 201 703 132 671 q 374 736 271 736 q 513 717 453 736 q 613 669 572 699 q 674 610 653 640 q 696 554 694 579 q 688 530 697 540 q 665 519 678 519 l 519 519 q 508 522 513 519 q 500 526 504 524 q 467 549 483 535 q 428 574 450 563 q 372 585 406 585 q 314 568 335 585 q 293 525 293 551 q 305 492 293 507 q 353 464 317 476 q 468 436 390 451 q 621 387 564 421 q 702 308 678 353 q 726 213 726 263 q 642 53 726 115 q 401 -14 558 -8 l 374 -69 q 397 -63 382 -65 q 419 -61 411 -61 q 501 -94 471 -61 q 531 -182 531 -128 q 494 -270 531 -235 q 394 -306 458 -306 z "},"ŝ":{"ha":768,"x_min":42,"x_max":726,"o":"m 379 -14 q 226 6 289 -14 q 123 56 163 26 q 64 116 83 85 q 43 171 44 147 q 53 196 42 186 q 76 206 64 206 l 235 206 q 242 204 239 206 q 250 199 246 203 q 286 174 268 189 q 328 149 304 160 q 385 138 351 138 q 450 153 424 138 q 476 199 476 169 q 464 235 476 221 q 413 264 451 250 q 299 292 375 278 q 172 335 226 308 q 89 406 118 363 q 60 513 60 450 q 96 619 60 568 q 201 703 132 671 q 374 736 271 736 q 513 717 453 736 q 613 669 572 699 q 674 610 653 640 q 696 554 694 579 q 688 530 697 540 q 665 519 678 519 l 521 519 q 510 522 515 519 q 500 526 504 524 q 467 549 483 535 q 428 574 450 563 q 372 585 406 585 q 314 568 335 585 q 293 525 293 551 q 305 492 293 507 q 353 464 317 476 q 468 436 390 451 q 621 387 564 421 q 702 308 678 353 q 726 213 726 263 q 686 94 726 146 q 569 15 646 43 q 379 -14 492 -14 m 147 826 q 126 846 126 826 q 136 868 126 857 l 279 1018 q 303 1038 293 1033 q 328 1042 314 1042 l 438 1042 q 462 1038 451 1042 q 486 1018 472 1033 l 628 868 q 639 846 639 857 q 618 826 639 826 l 551 826 q 528 828 540 826 q 504 836 515 831 l 382 904 l 261 836 q 238 828 250 831 q 213 826 225 826 l 147 826 z "},"ș":{"ha":768,"x_min":42,"x_max":726,"o":"m 379 -14 q 226 6 289 -14 q 123 56 163 26 q 64 116 83 85 q 43 171 44 147 q 53 196 42 186 q 76 206 64 206 l 235 206 q 242 204 239 206 q 250 199 246 203 q 286 174 268 189 q 328 149 304 160 q 385 138 351 138 q 450 153 424 138 q 476 199 476 169 q 464 235 476 221 q 413 264 451 250 q 299 292 375 278 q 172 335 226 308 q 89 406 118 363 q 60 513 60 450 q 96 619 60 568 q 201 703 132 671 q 374 736 271 736 q 513 717 453 736 q 613 669 572 699 q 674 610 653 640 q 696 554 694 579 q 688 530 697 540 q 665 519 678 519 l 521 519 q 510 522 515 519 q 500 526 504 524 q 467 549 483 535 q 428 574 450 563 q 372 585 406 585 q 314 568 335 585 q 293 525 293 551 q 305 492 293 507 q 353 464 317 476 q 468 436 390 451 q 621 387 564 421 q 702 308 678 353 q 726 213 726 263 q 686 94 726 146 q 569 15 646 43 q 379 -14 492 -14 m 267 -326 q 247 -317 254 -326 q 240 -296 240 -308 l 268 -117 q 283 -84 271 -99 q 318 -69 294 -69 l 463 -69 q 482 -78 474 -69 q 490 -97 490 -86 q 486 -112 490 -106 l 418 -287 q 401 -314 413 -301 q 367 -326 390 -326 l 267 -326 z "},"ß":{"ha":888,"x_min":82,"x_max":838,"o":"m 117 0 q 92 10 101 0 q 82 35 82 21 l 82 654 q 119 821 82 746 q 237 941 157 896 q 443 986 317 986 q 648 946 571 986 q 760 842 725 906 q 796 711 796 779 q 783 629 796 665 q 749 567 771 593 q 699 522 726 540 q 778 470 747 503 q 823 393 808 438 q 838 293 838 349 q 817 190 838 242 q 753 96 796 139 q 644 26 711 53 q 482 0 576 0 l 413 0 q 383 10 393 0 q 372 35 372 21 l 372 142 q 383 166 372 156 q 413 176 393 176 l 449 176 q 553 212 515 176 q 592 303 592 247 q 555 393 592 357 q 444 429 518 429 l 408 429 q 381 439 390 429 q 372 464 372 449 l 372 557 q 380 581 372 571 q 408 592 388 592 l 440 592 q 538 622 503 593 q 572 700 572 650 q 537 778 572 747 q 443 810 501 810 q 350 773 385 810 q 315 657 315 736 l 315 35 q 305 10 315 21 q 281 0 294 0 l 117 0 z "},"ſ":{"ha":478,"x_min":24,"x_max":613,"o":"m 200 0 q 175 10 185 0 q 165 35 165 21 l 165 540 l 58 540 q 34 550 44 540 q 24 575 24 560 l 24 688 q 34 713 24 703 q 58 722 44 722 l 165 722 l 165 764 q 202 918 165 860 q 307 1002 239 976 q 469 1028 375 1028 l 578 1028 q 602 1018 592 1028 q 613 993 613 1008 l 613 881 q 602 856 613 865 q 578 846 592 846 l 479 846 q 428 835 446 846 q 403 805 410 824 q 396 760 396 786 l 396 35 q 385 10 396 21 q 361 0 375 0 l 200 0 z "},"t":{"ha":649,"x_min":19,"x_max":615,"o":"m 451 0 q 298 28 363 0 q 199 117 233 57 q 164 274 164 178 l 164 540 l 56 540 q 30 550 40 540 q 19 575 19 560 l 19 688 q 30 713 19 703 q 56 722 40 722 l 164 722 l 164 951 q 174 976 164 967 q 199 986 185 986 l 360 986 q 385 976 375 986 q 394 951 394 967 l 394 722 l 568 722 q 594 713 583 722 q 604 688 604 703 l 604 575 q 594 550 604 560 q 568 540 583 540 l 394 540 l 394 293 q 413 218 394 246 q 474 190 431 190 l 581 190 q 606 181 596 190 q 615 156 615 171 l 615 35 q 606 10 615 21 q 581 0 596 0 l 451 0 z "},"ŧ":{"ha":654,"x_min":24,"x_max":619,"o":"m 456 0 q 301 28 365 0 q 202 117 236 57 q 168 274 168 178 l 168 389 l 58 389 q 33 399 43 389 q 24 424 24 408 l 24 475 q 33 500 24 490 q 58 510 43 510 l 168 510 l 168 601 l 58 601 q 33 611 43 601 q 24 636 24 621 l 24 688 q 33 713 24 703 q 58 722 43 722 l 168 722 l 168 951 q 178 976 168 967 q 203 986 188 986 l 364 986 q 388 976 378 986 q 399 951 399 967 l 399 722 l 572 722 q 597 713 588 722 q 607 688 607 703 l 607 636 q 597 611 607 621 q 572 601 588 601 l 399 601 l 399 510 l 572 510 q 597 500 588 510 q 607 475 607 490 l 607 424 q 597 399 607 408 q 572 389 588 389 l 399 389 l 399 293 q 417 218 399 246 q 478 190 435 190 l 585 190 q 609 181 599 190 q 619 156 619 171 l 619 35 q 609 10 619 21 q 585 0 599 0 l 456 0 z "},"ť":{"ha":649,"x_min":19,"x_max":733,"o":"m 451 0 q 298 28 363 0 q 199 117 233 57 q 164 274 164 178 l 164 540 l 56 540 q 30 550 40 540 q 19 575 19 560 l 19 688 q 30 713 19 703 q 56 722 40 722 l 164 722 l 164 951 q 174 976 164 967 q 199 986 185 986 l 360 986 q 385 976 375 986 q 394 951 394 967 l 394 722 l 568 722 q 594 713 583 722 q 604 688 604 703 l 604 575 q 594 550 604 560 q 568 540 583 540 l 394 540 l 394 293 q 413 218 394 246 q 474 190 431 190 l 581 190 q 606 181 596 190 q 615 156 615 171 l 615 35 q 606 10 615 21 q 581 0 596 0 l 451 0 m 510 847 q 490 856 497 847 q 483 878 483 865 l 511 1057 q 526 1090 514 1075 q 561 1104 538 1104 l 706 1104 q 725 1096 717 1104 q 733 1076 733 1088 q 729 1061 733 1068 l 661 886 q 644 860 656 872 q 610 847 633 847 l 510 847 z "},"ț":{"ha":649,"x_min":19,"x_max":615,"o":"m 451 0 q 298 28 363 0 q 199 117 233 57 q 164 274 164 178 l 164 540 l 56 540 q 30 550 40 540 q 19 575 19 560 l 19 688 q 30 713 19 703 q 56 722 40 722 l 164 722 l 164 951 q 174 976 164 967 q 199 986 185 986 l 360 986 q 385 976 375 986 q 394 951 394 967 l 394 722 l 568 722 q 594 713 583 722 q 604 688 604 703 l 604 575 q 594 550 604 560 q 568 540 583 540 l 394 540 l 394 293 q 413 218 394 246 q 474 190 431 190 l 581 190 q 606 181 596 190 q 615 156 615 171 l 615 35 q 606 10 615 21 q 581 0 596 0 l 451 0 m 272 -326 q 253 -317 260 -326 q 246 -296 246 -308 l 274 -117 q 288 -84 276 -99 q 324 -69 300 -69 l 468 -69 q 488 -78 479 -69 q 496 -97 496 -86 q 492 -112 496 -106 l 424 -287 q 407 -314 418 -301 q 372 -326 396 -326 l 272 -326 z "},"u":{"ha":890,"x_min":75,"x_max":808,"o":"m 347 -14 q 206 22 268 -14 q 110 128 144 58 q 75 300 75 199 l 75 688 q 85 713 75 703 q 110 722 94 722 l 283 722 q 309 713 299 722 q 319 688 319 703 l 319 308 q 440 172 319 172 q 531 208 497 172 q 565 308 565 243 l 565 688 q 575 713 565 703 q 600 722 585 722 l 774 722 q 799 713 789 722 q 808 688 808 703 l 808 35 q 799 10 808 21 q 774 0 789 0 l 613 0 q 588 10 599 0 q 578 35 578 21 l 578 88 q 484 12 542 38 q 347 -14 426 -14 z "},"ú":{"ha":890,"x_min":75,"x_max":808,"o":"m 347 -14 q 206 22 268 -14 q 110 128 144 58 q 75 300 75 199 l 75 688 q 85 713 75 703 q 110 722 94 722 l 283 722 q 309 713 299 722 q 319 688 319 703 l 319 308 q 440 172 319 172 q 531 208 497 172 q 565 308 565 243 l 565 688 q 575 713 565 703 q 600 722 585 722 l 774 722 q 799 713 789 722 q 808 688 808 703 l 808 35 q 799 10 808 21 q 774 0 789 0 l 613 0 q 588 10 599 0 q 578 35 578 21 l 578 88 q 484 12 542 38 q 347 -14 426 -14 m 363 826 q 340 849 340 826 q 347 867 340 860 l 469 1015 q 493 1037 483 1032 q 521 1042 503 1042 l 704 1042 q 731 1014 731 1042 q 724 997 731 1004 l 539 846 q 517 831 528 836 q 486 826 506 826 l 363 826 z "},"ŭ":{"ha":890,"x_min":75,"x_max":808,"o":"m 347 -14 q 206 22 268 -14 q 110 128 144 58 q 75 300 75 199 l 75 688 q 85 713 75 703 q 110 722 94 722 l 283 722 q 309 713 299 722 q 319 688 319 703 l 319 308 q 440 172 319 172 q 531 208 497 172 q 565 308 565 243 l 565 688 q 575 713 565 703 q 600 722 585 722 l 774 722 q 799 713 789 722 q 808 688 808 703 l 808 35 q 799 10 808 21 q 774 0 789 0 l 613 0 q 588 10 599 0 q 578 35 578 21 l 578 88 q 484 12 542 38 q 347 -14 426 -14 m 443 819 q 326 846 372 819 q 258 917 281 872 q 236 1015 236 961 q 243 1034 236 1026 q 263 1042 250 1042 l 353 1042 q 372 1034 365 1042 q 379 1015 379 1026 q 393 958 379 983 q 443 933 407 933 q 495 958 482 933 q 508 1015 508 983 q 515 1034 508 1026 q 535 1042 522 1042 l 624 1042 q 643 1034 636 1042 q 650 1015 650 1026 q 628 917 650 961 q 560 846 606 872 q 443 819 514 819 z "},"û":{"ha":890,"x_min":75,"x_max":808,"o":"m 347 -14 q 206 22 268 -14 q 110 128 144 58 q 75 300 75 199 l 75 688 q 85 713 75 703 q 110 722 94 722 l 283 722 q 309 713 299 722 q 319 688 319 703 l 319 308 q 440 172 319 172 q 531 208 497 172 q 565 308 565 243 l 565 688 q 575 713 565 703 q 600 722 585 722 l 774 722 q 799 713 789 722 q 808 688 808 703 l 808 35 q 799 10 808 21 q 774 0 789 0 l 613 0 q 588 10 599 0 q 578 35 578 21 l 578 88 q 484 12 542 38 q 347 -14 426 -14 m 208 826 q 188 846 188 826 q 197 868 188 857 l 340 1018 q 365 1038 354 1033 q 389 1042 375 1042 l 499 1042 q 523 1038 513 1042 q 547 1018 533 1033 l 689 868 q 700 846 700 857 q 679 826 700 826 l 613 826 q 589 828 601 826 q 565 836 576 831 l 443 904 l 322 836 q 299 828 311 831 q 274 826 286 826 l 208 826 z "},"ü":{"ha":890,"x_min":75,"x_max":808,"o":"m 347 -14 q 206 22 268 -14 q 110 128 144 58 q 75 300 75 199 l 75 688 q 85 713 75 703 q 110 722 94 722 l 283 722 q 309 713 299 722 q 319 688 319 703 l 319 308 q 440 172 319 172 q 531 208 497 172 q 565 308 565 243 l 565 688 q 575 713 565 703 q 600 722 585 722 l 774 722 q 799 713 789 722 q 808 688 808 703 l 808 35 q 799 10 808 21 q 774 0 789 0 l 613 0 q 588 10 599 0 q 578 35 578 21 l 578 88 q 484 12 542 38 q 347 -14 426 -14 m 522 843 q 499 851 508 843 q 490 875 490 860 l 490 1001 q 499 1024 490 1015 q 522 1033 508 1033 l 650 1033 q 673 1024 664 1033 q 682 1001 682 1015 l 682 875 q 673 851 682 860 q 650 843 664 843 l 522 843 m 235 843 q 213 851 221 843 q 204 875 204 860 l 204 1001 q 213 1024 204 1015 q 235 1033 221 1033 l 363 1033 q 385 1024 376 1033 q 394 1001 394 1015 l 394 875 q 385 851 394 860 q 363 843 376 843 l 235 843 z "},"ù":{"ha":890,"x_min":75,"x_max":808,"o":"m 347 -14 q 206 22 268 -14 q 110 128 144 58 q 75 300 75 199 l 75 688 q 85 713 75 703 q 110 722 94 722 l 283 722 q 309 713 299 722 q 319 688 319 703 l 319 308 q 440 172 319 172 q 531 208 497 172 q 565 308 565 243 l 565 688 q 575 713 565 703 q 600 722 585 722 l 774 722 q 799 713 789 722 q 808 688 808 703 l 808 35 q 799 10 808 21 q 774 0 789 0 l 613 0 q 588 10 599 0 q 578 35 578 21 l 578 88 q 484 12 542 38 q 347 -14 426 -14 m 404 826 q 374 831 385 826 q 351 846 363 836 l 167 997 q 160 1015 160 1004 q 186 1042 160 1042 l 369 1042 q 397 1037 388 1042 q 421 1015 407 1032 l 543 867 q 550 849 550 860 q 528 826 550 826 l 404 826 z "},"ű":{"ha":890,"x_min":75,"x_max":808,"o":"m 347 -14 q 206 22 268 -14 q 110 128 144 58 q 75 300 75 199 l 75 688 q 85 713 75 703 q 110 722 94 722 l 283 722 q 309 713 299 722 q 319 688 319 703 l 319 308 q 440 172 319 172 q 531 208 497 172 q 565 308 565 243 l 565 688 q 575 713 565 703 q 600 722 585 722 l 774 722 q 799 713 789 722 q 808 688 808 703 l 808 35 q 799 10 808 21 q 774 0 789 0 l 613 0 q 588 10 599 0 q 578 35 578 21 l 578 88 q 484 12 542 38 q 347 -14 426 -14 m 525 826 q 503 849 503 826 q 506 860 503 854 q 510 869 508 865 l 576 1015 q 628 1042 589 1042 l 774 1042 q 801 1015 801 1042 q 793 997 801 1006 l 657 846 q 611 826 640 826 l 525 826 m 229 826 q 207 849 207 826 q 210 860 207 854 q 214 869 213 865 l 279 1015 q 331 1042 292 1042 l 476 1042 q 504 1015 504 1042 q 496 997 504 1006 l 360 846 q 315 826 343 826 l 229 826 z "},"ū":{"ha":890,"x_min":75,"x_max":808,"o":"m 347 -14 q 206 22 268 -14 q 110 128 144 58 q 75 300 75 199 l 75 688 q 85 713 75 703 q 110 722 94 722 l 283 722 q 309 713 299 722 q 319 688 319 703 l 319 308 q 440 172 319 172 q 531 208 497 172 q 565 308 565 243 l 565 688 q 575 713 565 703 q 600 722 585 722 l 774 722 q 799 713 789 722 q 808 688 808 703 l 808 35 q 799 10 808 21 q 774 0 789 0 l 613 0 q 588 10 599 0 q 578 35 578 21 l 578 88 q 484 12 542 38 q 347 -14 426 -14 m 249 840 q 226 849 235 840 q 218 872 218 857 l 218 969 q 226 992 218 983 q 249 1001 235 1001 l 636 1001 q 659 992 650 1001 q 668 969 668 983 l 668 872 q 659 849 668 857 q 636 840 650 840 l 249 840 z "},"ų":{"ha":890,"x_min":75,"x_max":808,"o":"m 757 -306 q 643 -278 689 -306 q 573 -201 597 -250 q 549 -89 549 -151 q 556 -45 549 -65 q 575 -8 564 -25 q 596 18 586 8 q 583 28 589 21 q 578 46 578 36 l 578 88 q 484 12 542 38 q 347 -14 426 -14 q 206 22 268 -14 q 110 128 144 58 q 75 300 75 199 l 75 688 q 85 713 75 703 q 110 722 94 722 l 283 722 q 309 713 299 722 q 319 688 319 703 l 319 308 q 440 172 319 172 q 531 208 497 172 q 565 308 565 243 l 565 688 q 575 713 565 703 q 600 722 585 722 l 774 722 q 799 713 789 722 q 808 688 808 703 l 808 35 q 800 13 808 22 q 776 0 792 3 l 761 -1 q 707 -34 724 -10 q 690 -89 690 -58 q 707 -147 690 -124 q 763 -169 724 -169 l 774 -169 q 799 -180 789 -169 q 808 -204 808 -190 l 808 -271 q 799 -295 808 -285 q 774 -306 789 -306 l 757 -306 z "},"ů":{"ha":890,"x_min":75,"x_max":808,"o":"m 347 -14 q 206 22 268 -14 q 110 128 144 58 q 75 300 75 199 l 75 688 q 85 713 75 703 q 110 722 94 722 l 283 722 q 309 713 299 722 q 319 688 319 703 l 319 308 q 440 172 319 172 q 531 208 497 172 q 565 308 565 243 l 565 688 q 575 713 565 703 q 600 722 585 722 l 774 722 q 799 713 789 722 q 808 688 808 703 l 808 35 q 799 10 808 21 q 774 0 789 0 l 613 0 q 588 10 599 0 q 578 35 578 21 l 578 88 q 484 12 542 38 q 347 -14 426 -14 m 443 819 q 353 854 390 819 q 315 942 315 889 q 353 1028 315 994 q 443 1063 390 1063 q 534 1028 496 1063 q 572 942 572 994 q 534 854 572 889 q 443 819 496 819 m 443 900 q 473 912 461 900 q 485 942 485 924 q 473 972 485 960 q 443 983 461 983 q 413 972 425 983 q 401 942 401 960 q 413 912 401 924 q 443 900 425 900 z "},"ũ":{"ha":890,"x_min":75,"x_max":808,"o":"m 347 -14 q 206 22 268 -14 q 110 128 144 58 q 75 300 75 199 l 75 688 q 85 713 75 703 q 110 722 94 722 l 283 722 q 309 713 299 722 q 319 688 319 703 l 319 308 q 440 172 319 172 q 531 208 497 172 q 565 308 565 243 l 565 688 q 575 713 565 703 q 600 722 585 722 l 774 722 q 799 713 789 722 q 808 688 808 703 l 808 35 q 799 10 808 21 q 774 0 789 0 l 613 0 q 588 10 599 0 q 578 35 578 21 l 578 88 q 484 12 542 38 q 347 -14 426 -14 m 526 819 q 464 832 488 819 q 421 856 440 844 q 376 868 401 868 q 349 858 358 868 q 333 838 340 849 q 311 826 326 826 l 228 826 q 211 834 218 826 q 204 850 204 842 q 212 902 204 872 q 238 960 219 932 q 285 1006 256 988 q 358 1025 315 1025 q 422 1013 397 1025 q 465 988 446 1000 q 508 976 485 976 q 535 987 528 976 q 551 1008 543 997 q 574 1018 558 1018 l 657 1018 q 675 1011 668 1018 q 682 993 682 1004 q 674 942 682 971 q 647 884 665 913 q 599 838 629 856 q 526 819 569 819 z "},"v":{"ha":826,"x_min":26,"x_max":800,"o":"m 339 0 q 308 10 318 0 q 292 35 299 21 l 29 679 q 26 692 26 685 q 35 713 26 704 q 58 722 44 722 l 215 722 q 243 713 233 722 q 256 693 253 703 l 413 267 l 571 693 q 583 713 574 703 q 611 722 593 722 l 768 722 q 790 713 781 722 q 800 692 800 704 q 797 679 800 685 l 535 35 q 519 10 529 21 q 486 0 508 0 l 339 0 z "},"w":{"ha":1164,"x_min":35,"x_max":1129,"o":"m 283 0 q 253 10 263 0 q 238 35 243 21 l 38 678 q 35 692 35 685 q 44 713 35 704 q 67 722 54 722 l 210 722 q 238 713 228 722 q 251 693 249 703 l 368 296 l 493 692 q 506 712 496 701 q 536 722 517 722 l 628 722 q 658 712 647 722 q 671 692 669 701 l 796 296 l 913 693 q 926 713 915 703 q 954 722 936 722 l 1097 722 q 1119 713 1110 722 q 1129 692 1129 704 q 1126 678 1129 685 l 926 35 q 912 10 922 21 q 881 0 901 0 l 756 0 q 725 10 736 0 q 710 35 714 21 l 582 415 l 454 35 q 439 10 450 21 q 408 0 428 0 l 283 0 z "},"ẃ":{"ha":1164,"x_min":35,"x_max":1129,"o":"m 283 0 q 253 10 263 0 q 238 35 243 21 l 38 678 q 35 692 35 685 q 44 713 35 704 q 67 722 54 722 l 210 722 q 238 713 228 722 q 251 693 249 703 l 368 296 l 493 692 q 506 712 496 701 q 536 722 517 722 l 628 722 q 658 712 647 722 q 671 692 669 701 l 796 296 l 913 693 q 926 713 915 703 q 954 722 936 722 l 1097 722 q 1119 713 1110 722 q 1129 692 1129 704 q 1126 678 1129 685 l 926 35 q 912 10 922 21 q 881 0 901 0 l 756 0 q 725 10 736 0 q 710 35 714 21 l 582 415 l 454 35 q 439 10 450 21 q 408 0 428 0 l 283 0 m 501 826 q 479 849 479 826 q 486 867 479 860 l 608 1015 q 632 1037 622 1032 q 660 1042 642 1042 l 843 1042 q 869 1014 869 1042 q 863 997 869 1004 l 678 846 q 656 831 667 836 q 625 826 644 826 l 501 826 z "},"ŵ":{"ha":1164,"x_min":35,"x_max":1129,"o":"m 283 0 q 253 10 263 0 q 238 35 243 21 l 38 678 q 35 692 35 685 q 44 713 35 704 q 67 722 54 722 l 210 722 q 238 713 228 722 q 251 693 249 703 l 368 296 l 493 692 q 506 712 496 701 q 536 722 517 722 l 628 722 q 658 712 647 722 q 671 692 669 701 l 796 296 l 913 693 q 926 713 915 703 q 954 722 936 722 l 1097 722 q 1119 713 1110 722 q 1129 692 1129 704 q 1126 678 1129 685 l 926 35 q 912 10 922 21 q 881 0 901 0 l 756 0 q 725 10 736 0 q 710 35 714 21 l 582 415 l 454 35 q 439 10 450 21 q 408 0 428 0 l 283 0 m 347 826 q 326 846 326 826 q 336 868 326 857 l 479 1018 q 503 1038 493 1033 q 528 1042 514 1042 l 638 1042 q 662 1038 651 1042 q 686 1018 672 1033 l 828 868 q 839 846 839 857 q 818 826 839 826 l 751 826 q 728 828 740 826 q 704 836 715 831 l 582 904 l 461 836 q 438 828 450 831 q 413 826 425 826 l 347 826 z "},"ẅ":{"ha":1164,"x_min":35,"x_max":1129,"o":"m 283 0 q 253 10 263 0 q 238 35 243 21 l 38 678 q 35 692 35 685 q 44 713 35 704 q 67 722 54 722 l 210 722 q 238 713 228 722 q 251 693 249 703 l 368 296 l 493 692 q 506 712 496 701 q 536 722 517 722 l 628 722 q 658 712 647 722 q 671 692 669 701 l 796 296 l 913 693 q 926 713 915 703 q 954 722 936 722 l 1097 722 q 1119 713 1110 722 q 1129 692 1129 704 q 1126 678 1129 685 l 926 35 q 912 10 922 21 q 881 0 901 0 l 756 0 q 725 10 736 0 q 710 35 714 21 l 582 415 l 454 35 q 439 10 450 21 q 408 0 428 0 l 283 0 m 661 843 q 638 851 647 843 q 629 875 629 860 l 629 1001 q 638 1024 629 1015 q 661 1033 647 1033 l 789 1033 q 812 1024 803 1033 q 821 1001 821 1015 l 821 875 q 812 851 821 860 q 789 843 803 843 l 661 843 m 374 843 q 351 851 360 843 q 343 875 343 860 l 343 1001 q 351 1024 343 1015 q 374 1033 360 1033 l 501 1033 q 524 1024 515 1033 q 533 1001 533 1015 l 533 875 q 524 851 533 860 q 501 843 515 843 l 374 843 z "},"ẁ":{"ha":1164,"x_min":35,"x_max":1129,"o":"m 283 0 q 253 10 263 0 q 238 35 243 21 l 38 678 q 35 692 35 685 q 44 713 35 704 q 67 722 54 722 l 210 722 q 238 713 228 722 q 251 693 249 703 l 368 296 l 493 692 q 506 712 496 701 q 536 722 517 722 l 628 722 q 658 712 647 722 q 671 692 669 701 l 796 296 l 913 693 q 926 713 915 703 q 954 722 936 722 l 1097 722 q 1119 713 1110 722 q 1129 692 1129 704 q 1126 678 1129 685 l 926 35 q 912 10 922 21 q 881 0 901 0 l 756 0 q 725 10 736 0 q 710 35 714 21 l 582 415 l 454 35 q 439 10 450 21 q 408 0 428 0 l 283 0 m 543 826 q 513 831 524 826 q 490 846 501 836 l 306 997 q 299 1015 299 1004 q 325 1042 299 1042 l 508 1042 q 536 1037 526 1042 q 560 1015 546 1032 l 682 867 q 689 849 689 860 q 667 826 689 826 l 543 826 z "},"x":{"ha":817,"x_min":22,"x_max":794,"o":"m 53 0 q 31 9 40 0 q 22 32 22 18 q 24 41 22 35 q 29 53 25 47 l 261 371 l 50 669 q 44 681 46 675 q 42 692 42 686 q 51 713 42 704 q 74 722 61 722 l 243 722 q 270 714 261 722 q 283 699 279 706 l 413 521 l 540 697 q 555 713 546 704 q 582 722 564 722 l 744 722 q 766 713 757 722 q 775 692 775 704 q 774 681 775 686 q 768 669 772 675 l 551 371 l 788 53 q 793 42 792 47 q 794 32 794 36 q 785 9 794 18 q 764 0 776 0 l 586 0 q 561 8 569 0 q 547 22 553 15 l 407 213 l 265 22 q 251 8 260 17 q 226 0 243 0 l 53 0 z "},"y":{"ha":829,"x_min":29,"x_max":808,"o":"m 217 -264 q 196 -256 204 -264 q 188 -235 188 -247 q 188 -227 188 -232 q 192 -217 189 -222 l 300 44 l 33 675 q 29 692 29 685 q 40 713 32 704 q 61 722 49 722 l 219 722 q 247 713 238 722 q 260 693 256 704 l 418 289 l 581 693 q 595 713 586 704 q 622 722 604 722 l 778 722 q 799 713 790 722 q 808 693 808 704 q 804 675 808 686 l 411 -235 q 397 -255 407 -246 q 369 -264 388 -264 l 217 -264 z "},"ý":{"ha":829,"x_min":29,"x_max":808,"o":"m 217 -264 q 196 -256 204 -264 q 188 -235 188 -247 q 188 -227 188 -232 q 192 -217 189 -222 l 300 44 l 33 675 q 29 692 29 685 q 40 713 32 704 q 61 722 49 722 l 219 722 q 247 713 238 722 q 260 693 256 704 l 418 289 l 581 693 q 595 713 586 704 q 622 722 604 722 l 778 722 q 799 713 790 722 q 808 693 808 704 q 804 675 808 686 l 411 -235 q 397 -255 407 -246 q 369 -264 388 -264 l 217 -264 m 336 826 q 314 849 314 826 q 321 867 314 860 l 443 1015 q 467 1037 457 1032 q 494 1042 476 1042 l 678 1042 q 704 1014 704 1042 q 697 997 704 1004 l 513 846 q 490 831 501 836 q 460 826 479 826 l 336 826 z "},"ŷ":{"ha":829,"x_min":29,"x_max":808,"o":"m 217 -264 q 196 -256 204 -264 q 188 -235 188 -247 q 188 -227 188 -232 q 192 -217 189 -222 l 300 44 l 33 675 q 29 692 29 685 q 40 713 32 704 q 61 722 49 722 l 219 722 q 247 713 238 722 q 260 693 256 704 l 418 289 l 581 693 q 595 713 586 704 q 622 722 604 722 l 778 722 q 799 713 790 722 q 808 693 808 704 q 804 675 808 686 l 411 -235 q 397 -255 407 -246 q 369 -264 388 -264 l 217 -264 m 182 826 q 161 846 161 826 q 171 868 161 857 l 314 1018 q 338 1038 328 1033 q 363 1042 349 1042 l 472 1042 q 497 1038 486 1042 q 521 1018 507 1033 l 663 868 q 674 846 674 857 q 653 826 674 826 l 586 826 q 563 828 575 826 q 539 836 550 831 l 417 904 l 296 836 q 272 828 285 831 q 247 826 260 826 l 182 826 z "},"ÿ":{"ha":829,"x_min":29,"x_max":808,"o":"m 217 -264 q 196 -256 204 -264 q 188 -235 188 -247 q 188 -227 188 -232 q 192 -217 189 -222 l 300 44 l 33 675 q 29 692 29 685 q 40 713 32 704 q 61 722 49 722 l 219 722 q 247 713 238 722 q 260 693 256 704 l 418 289 l 581 693 q 595 713 586 704 q 622 722 604 722 l 778 722 q 799 713 790 722 q 808 693 808 704 q 804 675 808 686 l 411 -235 q 397 -255 407 -246 q 369 -264 388 -264 l 217 -264 m 496 843 q 473 851 482 843 q 464 875 464 860 l 464 1001 q 473 1024 464 1015 q 496 1033 482 1033 l 624 1033 q 647 1024 638 1033 q 656 1001 656 1015 l 656 875 q 647 851 656 860 q 624 843 638 843 l 496 843 m 208 843 q 186 851 194 843 q 178 875 178 860 l 178 1001 q 186 1024 178 1015 q 208 1033 194 1033 l 336 1033 q 359 1024 350 1033 q 368 1001 368 1015 l 368 875 q 359 851 368 860 q 336 843 350 843 l 208 843 z "},"ỳ":{"ha":829,"x_min":29,"x_max":808,"o":"m 217 -264 q 196 -256 204 -264 q 188 -235 188 -247 q 188 -227 188 -232 q 192 -217 189 -222 l 300 44 l 33 675 q 29 692 29 685 q 40 713 32 704 q 61 722 49 722 l 219 722 q 247 713 238 722 q 260 693 256 704 l 418 289 l 581 693 q 595 713 586 704 q 622 722 604 722 l 778 722 q 799 713 790 722 q 808 693 808 704 q 804 675 808 686 l 411 -235 q 397 -255 407 -246 q 369 -264 388 -264 l 217 -264 m 378 826 q 347 831 358 826 q 325 846 336 836 l 140 997 q 133 1015 133 1004 q 160 1042 133 1042 l 343 1042 q 371 1037 361 1042 q 394 1015 381 1032 l 517 867 q 524 849 524 860 q 501 826 524 826 l 378 826 z "},"z":{"ha":768,"x_min":53,"x_max":722,"o":"m 88 0 q 63 10 74 0 q 53 35 53 21 l 53 143 q 59 170 53 158 q 75 190 65 182 l 400 543 l 100 543 q 74 553 85 543 q 64 578 64 563 l 64 688 q 74 713 64 703 q 100 722 85 722 l 658 722 q 683 713 672 722 q 693 688 693 703 l 693 569 q 688 547 693 557 q 674 528 682 538 l 357 179 l 686 179 q 712 169 701 179 q 722 144 722 160 l 722 35 q 712 10 722 21 q 686 0 701 0 l 88 0 z "},"ź":{"ha":768,"x_min":53,"x_max":722,"o":"m 88 0 q 63 10 74 0 q 53 35 53 21 l 53 143 q 59 170 53 158 q 75 190 65 182 l 400 543 l 100 543 q 74 553 85 543 q 64 578 64 563 l 64 688 q 74 713 64 703 q 100 722 85 722 l 658 722 q 683 713 672 722 q 693 688 693 703 l 693 569 q 688 547 693 557 q 674 528 682 538 l 357 179 l 686 179 q 712 169 701 179 q 722 144 722 160 l 722 35 q 712 10 722 21 q 686 0 701 0 l 88 0 m 306 826 q 283 849 283 826 q 290 867 283 860 l 413 1015 q 436 1037 426 1032 q 464 1042 446 1042 l 647 1042 q 674 1014 674 1042 q 667 997 674 1004 l 482 846 q 460 831 471 836 q 429 826 449 826 l 306 826 z "},"ž":{"ha":768,"x_min":53,"x_max":722,"o":"m 88 0 q 63 10 74 0 q 53 35 53 21 l 53 143 q 59 170 53 158 q 75 190 65 182 l 400 543 l 100 543 q 74 553 85 543 q 64 578 64 563 l 64 688 q 74 713 64 703 q 100 722 85 722 l 658 722 q 683 713 672 722 q 693 688 693 703 l 693 569 q 688 547 693 557 q 674 528 682 538 l 357 179 l 686 179 q 712 169 701 179 q 722 144 722 160 l 722 35 q 712 10 722 21 q 686 0 701 0 l 88 0 m 331 826 q 306 831 317 826 q 282 850 296 836 l 139 1000 q 129 1022 129 1011 q 150 1042 129 1042 l 215 1042 q 240 1040 228 1042 q 264 1032 253 1038 l 385 964 l 507 1032 q 531 1040 518 1038 q 554 1042 543 1042 l 621 1042 q 642 1022 642 1042 q 631 1000 642 1011 l 489 850 q 465 831 475 836 q 440 826 454 826 l 331 826 z "},"ż":{"ha":768,"x_min":53,"x_max":722,"o":"m 88 0 q 63 10 74 0 q 53 35 53 21 l 53 143 q 59 170 53 158 q 75 190 65 182 l 400 543 l 100 543 q 74 553 85 543 q 64 578 64 563 l 64 688 q 74 713 64 703 q 100 722 85 722 l 658 722 q 683 713 672 722 q 693 688 693 703 l 693 569 q 688 547 693 557 q 674 528 682 538 l 357 179 l 686 179 q 712 169 701 179 q 722 144 722 160 l 722 35 q 712 10 722 21 q 686 0 701 0 l 88 0 m 315 838 q 293 847 301 838 q 285 869 285 856 l 285 1008 q 293 1031 285 1022 q 315 1040 301 1040 l 454 1040 q 477 1031 468 1040 q 486 1008 486 1022 l 486 869 q 477 847 486 856 q 454 838 468 838 l 315 838 z "},"ﬁ":{"ha":939,"x_min":24,"x_max":858,"o":"m 199 0 q 174 10 185 0 q 164 35 164 21 l 164 540 l 58 540 q 33 550 43 540 q 24 575 24 560 l 24 688 q 33 713 24 703 q 58 722 43 722 l 164 722 l 164 767 q 201 919 164 861 q 306 1002 238 976 q 468 1028 374 1028 l 824 1028 q 848 1018 838 1028 q 858 993 858 1008 l 858 881 q 848 856 858 865 q 824 846 838 846 l 479 846 q 413 824 432 846 q 394 760 394 801 l 394 722 l 824 722 q 848 713 838 722 q 858 688 858 703 l 858 35 q 848 10 858 21 q 824 0 838 0 l 663 0 q 638 10 647 0 q 628 35 628 21 l 628 540 l 394 540 l 394 35 q 385 10 394 21 q 360 0 375 0 l 199 0 z "}}}
